{"glyphs":{"0":{"ha":2243,"x_min":0,"x_max":0,"o":"m 1190 790 b 1256 840 1226 790 1247 804 b 1258 897 1258 856 1258 875 b 1251 1003 1258 928 1263 971 b 1186 1038 1243 1028 1215 1038 b 1129 996 1160 1036 1136 1025 b 1126 888 1121 964 1126 922 b 1129 843 1126 874 1126 857 b 1190 790 1132 808 1157 790 z m 358 10 l 396 10 l 399 113 l 419 10 l 449 10 l 467 115 l 471 10 l 507 10 l 506 264 l 463 264 l 433 104 l 403 264 l 361 264 z m 488 -258 b 521 -344 488 -289 478 -344 b 551 -300 549 -344 551 -319 l 536 -300 b 535 -321 536 -306 536 -314 b 510 -325 531 -332 513 -333 b 504 -279 500 -314 504 -290 b 508 -236 504 -269 500 -247 b 535 -239 513 -228 531 -228 b 536 -261 536 -247 536 -257 l 551 -261 b 524 -219 551 -244 551 -222 b 488 -258 499 -215 488 -235 z m 539 10 l 579 10 l 579 133 l 624 10 l 656 10 l 656 264 l 615 264 l 615 142 l 572 264 l 539 264 z m 565 -279 b 600 -344 565 -306 560 -344 b 633 -279 635 -344 633 -308 b 603 -219 633 -257 638 -222 b 565 -279 565 -215 565 -247 z m 568 793 l 600 793 l 600 907 b 667 917 621 907 651 901 b 678 1008 694 939 694 981 b 621 1036 667 1031 643 1036 l 568 1036 z m 569 607 b 576 549 569 585 569 564 b 661 517 590 517 632 506 b 703 647 711 532 703 606 l 703 758 l 667 758 l 667 592 b 621 539 667 564 657 528 b 603 596 600 550 603 575 l 603 758 l 569 758 z m 581 -269 l 581 -256 b 608 -233 581 -239 592 -226 b 614 -287 621 -239 614 -272 b 592 -329 614 -303 619 -343 b 581 -269 576 -322 581 -283 z m 600 929 l 600 1010 b 635 1008 611 1010 622 1014 b 656 967 656 1003 656 983 b 635 931 656 951 654 939 b 600 929 622 928 611 929 z m 611 -190 l 632 -190 l 632 -132 l 654 -132 l 654 -119 l 632 -119 l 632 -78 l 661 -78 l 661 -65 l 611 -65 z m 651 -343 l 665 -343 l 665 -256 l 685 -343 l 699 -343 l 719 -256 l 719 -343 l 731 -343 l 731 -219 l 711 -219 l 692 -319 l 668 -219 l 651 -219 z m 668 -124 b 706 -192 668 -150 667 -192 b 738 -128 738 -192 738 -157 b 708 -62 738 -104 740 -65 b 668 -124 668 -61 668 -94 z m 683 10 l 726 10 l 726 56 l 683 56 z m 688 -119 l 688 -100 b 711 -81 688 -86 699 -71 b 721 -135 726 -86 721 -119 b 699 -178 721 -150 721 -183 b 688 -119 681 -171 688 -132 z m 711 793 l 806 793 l 806 815 l 746 815 l 746 907 l 793 907 l 793 929 l 746 929 l 746 1010 l 804 1010 l 804 1036 l 711 1036 z m 726 583 b 792 514 731 544 751 514 b 847 586 833 514 857 550 b 797 651 844 618 822 632 b 761 714 779 671 751 685 b 792 732 764 728 778 738 b 819 686 813 729 818 704 l 846 697 b 825 750 846 717 839 739 b 765 758 806 758 782 760 b 738 668 726 747 719 697 b 783 619 749 649 772 632 b 813 593 797 615 804 604 b 811 546 822 582 825 557 b 772 549 797 533 781 535 b 761 592 761 560 761 575 z m 742 99 b 753 36 742 76 746 56 b 814 7 764 14 790 3 b 858 57 842 14 857 35 b 829 142 863 90 851 118 l 808 165 b 785 194 800 174 790 181 b 803 226 781 204 782 228 b 818 178 819 225 815 194 l 857 181 b 825 261 857 210 854 247 b 746 217 789 278 747 254 b 756 158 742 196 746 174 b 779 132 760 149 771 142 b 818 68 793 115 818 94 b 808 47 818 57 815 50 b 792 56 800 44 796 50 b 782 101 782 69 782 86 z m 751 -343 l 765 -343 l 768 -256 l 783 -343 l 797 -343 l 819 -256 l 822 -343 l 833 -343 l 832 -219 l 815 -219 l 792 -319 l 772 -219 l 751 -219 z m 757 -190 l 772 -190 l 772 -132 l 783 -132 l 801 -190 l 822 -190 l 801 -128 b 801 -71 825 -119 822 -81 b 757 -65 789 -61 772 -65 z m 769 329 l 783 329 l 783 390 b 822 399 797 390 811 389 b 825 444 832 406 832 431 b 769 458 817 460 783 458 z m 772 -119 l 772 -78 b 801 -99 789 -78 801 -81 b 772 -119 801 -117 789 -119 z m 783 401 l 783 447 b 813 426 801 447 813 447 b 803 403 813 417 813 408 b 783 401 797 401 790 401 z m 833 793 l 868 793 l 868 907 l 893 907 l 929 793 l 957 793 l 929 914 b 929 1026 965 928 963 1007 b 833 1036 901 1039 863 1036 z m 844 329 l 890 329 l 890 344 l 857 344 l 857 458 l 844 458 z m 851 -343 l 901 -343 l 901 -332 l 869 -332 l 869 -283 l 894 -283 l 894 -269 l 869 -269 l 869 -232 l 901 -232 l 901 -219 l 851 -219 z m 860 -78 l 882 -78 l 882 -190 l 901 -190 l 901 -78 l 925 -78 l 925 -65 l 860 -65 z m 868 929 l 868 1010 b 903 1007 878 1010 890 1014 b 919 974 917 1003 919 986 b 903 931 924 956 917 940 b 868 929 890 929 878 929 z m 878 138 b 879 67 878 113 876 90 b 906 14 882 47 888 24 b 968 18 922 3 951 3 l 969 10 l 1003 10 l 1003 142 l 938 142 l 938 104 l 963 104 b 938 47 963 90 967 35 b 922 101 917 53 922 88 l 922 193 b 946 226 922 213 926 229 b 960 174 957 222 960 218 l 1000 174 b 972 258 1000 201 1003 240 b 917 264 957 268 935 268 b 879 210 894 254 883 232 b 878 138 876 188 878 161 z m 878 517 l 972 517 l 972 535 l 910 535 l 910 628 l 958 628 l 958 651 l 910 651 l 910 732 l 972 732 l 972 758 l 878 758 z m 903 329 l 949 329 l 949 344 l 917 344 l 917 390 l 944 390 l 944 403 l 917 403 l 917 447 l 949 447 l 949 458 l 903 458 z m 914 -343 l 933 -343 l 933 -283 l 946 -283 l 960 -343 l 976 -343 l 958 -279 b 960 -222 981 -272 979 -233 b 914 -219 947 -215 932 -219 z m 933 -269 l 933 -232 b 958 -256 947 -232 958 -233 b 933 -269 958 -269 947 -269 z m 933 -190 l 949 -190 l 949 -132 l 983 -132 l 983 -190 l 1000 -190 l 1000 -65 l 983 -65 l 983 -119 l 949 -119 l 949 -65 l 933 -65 z m 957 329 l 974 329 l 976 363 l 1003 363 l 1010 329 l 1028 329 l 1003 458 l 986 458 z m 979 375 l 992 433 l 1003 375 z m 979 858 b 1046 790 981 822 1003 790 b 1103 865 1086 790 1111 826 b 1053 929 1096 894 1074 910 b 1013 993 1035 944 1008 964 b 1046 1014 1014 1007 1031 1014 b 1074 967 1065 1007 1071 983 l 1100 974 b 1076 1026 1096 996 1093 1015 b 1019 1031 1063 1038 1035 1039 b 992 942 979 1025 972 974 b 1038 899 1003 926 1022 910 b 1064 869 1051 888 1060 875 b 1064 825 1075 856 1076 832 b 1022 826 1053 813 1035 814 b 1013 868 1014 836 1013 851 z m 992 -258 b 1022 -344 992 -289 981 -344 b 1057 -300 1053 -344 1057 -319 l 1039 -300 b 1038 -321 1039 -306 1043 -314 b 1013 -325 1035 -332 1019 -333 b 1008 -279 1003 -314 1008 -290 b 1013 -236 1008 -269 1003 -247 b 1038 -239 1019 -228 1035 -228 b 1039 -261 1043 -247 1039 -257 l 1057 -261 b 1031 -219 1057 -244 1056 -222 b 992 -258 1003 -215 992 -235 z m 1011 -22 l 1047 -22 l 1119 296 l 1079 296 z m 1017 -190 l 1064 -190 l 1064 -179 l 1035 -179 l 1035 -132 l 1061 -132 l 1061 -119 l 1035 -119 l 1035 -78 l 1064 -78 l 1064 -65 l 1017 -65 z m 1035 365 b 1071 329 1038 347 1050 329 b 1096 371 1092 329 1104 350 b 1071 403 1096 388 1078 393 b 1053 436 1061 410 1050 422 b 1083 422 1057 449 1074 456 l 1096 425 b 1078 456 1096 436 1092 449 b 1046 451 1071 458 1056 458 b 1053 399 1028 436 1038 413 b 1083 360 1063 389 1083 375 b 1063 344 1083 349 1075 344 b 1053 371 1053 349 1053 361 z m 1063 615 b 1064 564 1063 596 1063 582 b 1129 514 1071 531 1096 514 b 1190 563 1163 514 1186 529 b 1192 619 1197 582 1192 597 b 1186 726 1192 651 1203 694 b 1124 758 1179 750 1157 758 b 1065 718 1096 758 1075 747 b 1063 615 1060 685 1063 647 z m 1075 -343 l 1092 -343 l 1092 -219 l 1075 -219 z m 1096 592 l 1096 632 b 1096 711 1096 660 1093 686 b 1121 732 1103 726 1107 732 b 1151 726 1129 738 1142 732 b 1160 685 1163 715 1160 700 l 1160 597 b 1160 574 1160 592 1163 582 b 1142 542 1160 563 1157 549 b 1111 542 1135 535 1121 535 b 1096 592 1096 550 1096 574 z m 1104 -343 l 1121 -343 l 1129 -312 l 1157 -312 l 1160 -343 l 1175 -343 l 1149 -219 l 1129 -219 z m 1111 329 l 1163 329 l 1163 344 l 1129 344 l 1129 390 l 1157 390 l 1157 403 l 1129 403 l 1129 447 l 1160 447 l 1160 458 l 1111 458 z m 1118 -190 l 1129 -190 l 1129 -132 l 1157 -132 l 1157 -119 l 1129 -119 l 1129 -78 l 1164 -78 l 1164 -65 l 1118 -65 z m 1128 8 l 1171 8 l 1171 103 l 1218 103 l 1218 149 l 1171 149 l 1171 218 l 1225 218 l 1225 261 l 1128 261 z m 1129 -303 l 1140 -244 l 1151 -303 z m 1160 867 l 1160 910 b 1163 986 1160 933 1157 967 b 1186 1010 1165 1003 1174 1008 b 1215 1003 1197 1014 1206 1014 b 1226 961 1226 993 1226 974 l 1226 851 b 1207 818 1225 840 1222 826 b 1179 818 1200 814 1186 814 b 1160 867 1160 829 1160 851 z m 1175 -160 b 1217 -190 1179 -183 1193 -196 b 1239 -121 1243 -179 1239 -143 l 1239 -65 l 1226 -65 l 1226 -119 b 1206 -179 1226 -136 1229 -179 b 1190 -119 1185 -179 1190 -136 l 1190 -65 l 1175 -65 l 1175 -132 b 1175 -160 1175 -139 1174 -150 z m 1186 -343 l 1236 -343 l 1236 -332 l 1204 -332 l 1204 -219 l 1186 -219 z m 1204 458 l 1232 329 l 1247 329 l 1275 458 l 1258 458 l 1239 365 l 1222 458 z m 1225 8 l 1268 8 l 1278 68 l 1306 68 l 1313 8 l 1356 8 l 1313 261 l 1272 261 z m 1229 517 l 1256 517 l 1256 681 l 1326 517 l 1353 517 l 1353 758 l 1321 758 l 1321 596 l 1251 758 l 1229 758 z m 1258 -190 l 1303 -190 l 1303 -179 l 1278 -179 l 1278 -65 l 1258 -65 z m 1278 -219 l 1303 -343 l 1319 -343 l 1346 -219 l 1332 -219 l 1313 -312 l 1292 -219 z m 1283 104 l 1290 156 l 1297 104 z m 1288 329 l 1303 329 l 1303 458 l 1288 458 z m 1292 793 l 1321 793 l 1321 956 l 1389 793 l 1411 793 l 1411 1036 l 1383 1036 l 1383 874 l 1315 1036 l 1292 1036 z m 1319 -190 l 1367 -190 l 1367 -179 l 1335 -179 l 1335 -65 l 1319 -65 z m 1324 365 b 1354 329 1325 347 1332 329 b 1383 371 1376 329 1388 350 b 1357 403 1381 388 1365 394 b 1342 436 1347 413 1333 421 b 1367 422 1346 449 1360 456 l 1383 425 b 1365 456 1381 436 1376 449 b 1332 451 1357 458 1343 458 b 1338 399 1313 436 1325 413 b 1367 360 1353 389 1368 375 b 1353 344 1367 349 1358 344 b 1338 371 1343 349 1338 361 z m 1358 -343 l 1410 -343 l 1410 -332 l 1378 -332 l 1378 -283 l 1403 -283 l 1403 -269 l 1378 -269 l 1378 -232 l 1410 -232 l 1410 -219 l 1358 -219 z m 1371 8 l 1410 8 l 1410 111 l 1431 8 l 1460 8 l 1481 114 l 1482 8 l 1521 8 l 1518 261 l 1474 261 l 1444 103 l 1415 261 l 1375 261 z m 1388 517 l 1481 517 l 1481 535 l 1418 535 l 1418 758 l 1388 758 z m 1399 329 l 1415 329 l 1415 458 l 1399 458 z m 1410 -190 l 1422 -190 l 1431 -158 l 1456 -158 l 1461 -190 l 1481 -190 l 1453 -65 l 1433 -65 z m 1422 -343 l 1442 -343 l 1442 -283 l 1453 -283 l 1469 -343 l 1486 -343 l 1467 -282 b 1471 -222 1488 -275 1488 -233 b 1422 -219 1456 -215 1439 -219 z m 1428 447 l 1451 447 l 1451 329 l 1465 329 l 1465 447 l 1486 447 l 1486 458 l 1428 458 z m 1433 -147 l 1443 -89 l 1454 -147 z m 1438 793 l 1467 793 l 1481 851 l 1528 851 l 1540 793 l 1572 793 l 1521 1036 l 1488 1036 z m 1442 -269 l 1442 -232 b 1467 -256 1456 -232 1467 -233 b 1442 -269 1467 -269 1456 -269 z m 1485 875 l 1507 986 l 1525 875 z m 1492 -190 l 1508 -190 l 1508 -106 l 1540 -190 l 1553 -190 l 1553 -65 l 1539 -65 l 1539 -147 l 1503 -65 l 1492 -65 z m 1492 758 l 1525 649 b 1542 604 1531 632 1539 619 b 1542 564 1543 592 1542 575 l 1542 517 l 1574 517 l 1574 575 b 1579 607 1574 585 1572 596 l 1596 657 b 1626 758 1607 690 1617 726 l 1596 758 l 1558 640 l 1521 758 z m 1499 -308 b 1531 -344 1499 -329 1510 -344 b 1558 -306 1554 -344 1567 -325 b 1532 -269 1558 -289 1543 -279 b 1517 -239 1525 -261 1510 -256 b 1536 -232 1521 -232 1526 -228 b 1546 -257 1543 -235 1543 -247 l 1558 -250 b 1543 -222 1558 -236 1554 -226 b 1510 -226 1532 -215 1521 -217 b 1514 -279 1492 -236 1499 -265 b 1546 -315 1525 -287 1546 -303 b 1525 -329 1546 -326 1539 -333 b 1514 -306 1517 -325 1514 -312 z m 1544 8 l 1589 8 l 1589 261 l 1544 261 z m 1572 -190 b 1622 -181 1585 -190 1608 -193 b 1635 -128 1639 -172 1635 -147 b 1626 -75 1635 -110 1639 -86 b 1572 -65 1611 -61 1585 -65 z m 1574 -343 l 1589 -343 l 1589 -219 l 1574 -219 z m 1589 -179 l 1589 -78 b 1617 -96 1607 -78 1617 -78 l 1617 -160 b 1589 -179 1614 -179 1603 -179 z m 1597 793 l 1693 793 l 1693 815 l 1632 815 l 1632 1036 l 1597 1036 z m 1608 -279 b 1643 -344 1608 -306 1607 -344 b 1678 -279 1681 -344 1678 -308 b 1647 -219 1678 -257 1682 -222 b 1608 -279 1608 -215 1608 -247 z m 1608 8 l 1651 8 l 1661 68 l 1688 68 l 1696 8 l 1739 8 l 1696 261 l 1656 261 z m 1629 -269 l 1629 -256 b 1656 -233 1629 -239 1636 -226 b 1664 -287 1667 -239 1664 -272 b 1636 -329 1664 -303 1665 -343 b 1629 -269 1622 -322 1629 -283 z m 1643 517 l 1678 517 l 1678 550 l 1643 550 z m 1643 758 l 1656 568 l 1667 568 l 1678 758 z m 1667 104 l 1674 156 l 1681 104 z m 1697 -343 l 1710 -343 l 1710 -258 l 1744 -343 l 1757 -343 l 1757 -219 l 1744 -219 l 1744 -303 l 1710 -219 l 1697 -219 z m 1756 8 l 1797 8 l 1797 118 l 1810 118 l 1832 8 l 1874 8 l 1846 125 b 1875 196 1868 142 1875 172 b 1829 261 1875 243 1849 261 l 1756 261 z m 1797 154 l 1797 225 l 1811 225 b 1819 154 1836 225 1835 161 z "},"\r":{"ha":833,"x_min":0,"x_max":0,"o":""}," ":{"ha":278,"x_min":0,"x_max":0,"o":""},"A":{"ha":967,"x_min":0,"x_max":0,"o":"m 14 0 l 333 0 l 365 150 l 601 150 l 633 0 l 953 0 l 660 958 l 307 958 z m 415 386 l 483 703 l 551 386 z "},"Á":{"ha":967,"x_min":0,"x_max":0,"o":"m 14 0 l 333 0 l 365 150 l 601 150 l 633 0 l 953 0 l 660 958 l 307 958 z m 342 1000 l 564 1000 l 682 1222 l 411 1222 z m 415 386 l 483 703 l 551 386 z "},"Ă":{"ha":967,"x_min":0,"x_max":0,"o":"m 14 0 l 333 0 l 365 150 l 601 150 l 633 0 l 953 0 l 660 958 l 307 958 z m 251 1192 b 485 986 251 1061 335 986 b 715 1192 635 986 715 1060 l 563 1193 b 485 1119 563 1143 538 1119 b 404 1193 431 1119 404 1143 z m 415 386 l 483 703 l 551 386 z "},"Ắ":{"ha":967,"x_min":0,"x_max":0,"o":"m 14 0 l 333 0 l 365 150 l 601 150 l 633 0 l 953 0 l 660 958 l 307 958 z m 250 1192 b 483 986 250 1061 333 986 b 714 1192 633 986 714 1060 l 561 1193 b 483 1119 561 1143 536 1119 b 403 1193 429 1119 403 1143 z m 363 1207 l 549 1207 l 647 1379 l 421 1379 z m 415 386 l 483 703 l 551 386 z "},"Ặ":{"ha":967,"x_min":0,"x_max":0,"o":"m 14 0 l 333 0 l 365 150 l 601 150 l 633 0 l 953 0 l 660 958 l 307 958 z m 251 1192 b 485 986 251 1061 335 986 b 715 1192 635 986 715 1060 l 563 1193 b 485 1119 563 1143 538 1119 b 404 1193 431 1119 404 1143 z m 343 -156 b 482 -265 343 -231 389 -265 b 618 -156 572 -265 618 -231 b 482 -43 618 -81 572 -43 b 343 -156 389 -43 343 -81 z m 415 386 l 483 703 l 551 386 z "},"Ằ":{"ha":967,"x_min":0,"x_max":0,"o":"m 14 0 l 333 0 l 365 150 l 601 150 l 633 0 l 953 0 l 660 958 l 307 958 z m 250 1190 b 483 985 250 1060 333 985 b 714 1190 633 985 714 1058 l 561 1192 b 483 1118 561 1142 536 1118 b 403 1192 429 1118 403 1142 z m 271 1389 l 388 1207 l 610 1207 l 542 1389 z m 415 386 l 483 703 l 551 386 z "},"Ẳ":{"ha":967,"x_min":0,"x_max":0,"o":"m 14 0 l 333 0 l 365 150 l 601 150 l 633 0 l 953 0 l 660 958 l 307 958 z m 250 1192 b 483 986 250 1061 333 986 b 714 1192 633 986 714 1060 l 561 1193 b 483 1119 561 1143 536 1119 b 403 1193 429 1119 403 1143 z m 342 1351 b 422 1292 401 1326 422 1311 b 381 1221 422 1276 408 1258 l 425 1190 b 621 1361 556 1222 621 1294 b 408 1489 621 1428 550 1489 z m 415 386 l 483 703 l 551 386 z "},"Ẵ":{"ha":967,"x_min":0,"x_max":0,"o":"m 14 0 l 333 0 l 365 150 l 601 150 l 633 0 l 953 0 l 660 958 l 307 958 z m 225 1274 l 272 1221 b 357 1258 300 1244 325 1258 b 594 1208 422 1258 501 1208 b 739 1335 667 1208 732 1257 l 692 1389 b 607 1350 661 1363 636 1350 b 369 1401 542 1350 463 1401 b 225 1274 296 1401 243 1363 z m 250 1192 b 483 986 250 1061 333 986 b 714 1192 633 986 714 1060 l 561 1193 b 483 1119 561 1143 536 1119 b 403 1193 429 1119 403 1143 z m 415 386 l 483 703 l 551 386 z "},"Ǎ":{"ha":967,"x_min":0,"x_max":0,"o":"m 14 0 l 333 0 l 365 150 l 601 150 l 633 0 l 953 0 l 660 958 l 307 958 z m 176 1222 l 324 1000 l 643 1000 l 790 1222 l 533 1222 l 483 1088 l 433 1222 z m 415 386 l 483 703 l 551 386 z "},"Â":{"ha":967,"x_min":0,"x_max":0,"o":"m 14 0 l 333 0 l 365 150 l 601 150 l 633 0 l 953 0 l 660 958 l 307 958 z m 176 1000 l 433 1000 l 483 1135 l 533 1000 l 790 1000 l 643 1222 l 324 1222 z m 415 386 l 483 703 l 551 386 z "},"Ấ":{"ha":967,"x_min":0,"x_max":0,"o":"m 14 0 l 333 0 l 365 150 l 601 150 l 633 0 l 953 0 l 660 958 l 307 958 z m 176 1000 l 433 1000 l 483 1135 l 533 1000 l 790 1000 l 643 1222 l 581 1222 l 682 1371 l 411 1371 l 351 1222 l 324 1222 z m 415 386 l 483 703 l 551 386 z "},"Ậ":{"ha":967,"x_min":0,"x_max":0,"o":"m 14 0 l 333 0 l 365 150 l 601 150 l 633 0 l 953 0 l 660 958 l 307 958 z m 176 1000 l 433 1000 l 483 1135 l 533 1000 l 790 1000 l 643 1222 l 324 1222 z m 343 -156 b 482 -265 343 -231 389 -265 b 618 -156 572 -265 618 -231 b 482 -43 618 -81 572 -43 b 343 -156 389 -43 343 -81 z m 415 386 l 483 703 l 551 386 z "},"Ầ":{"ha":967,"x_min":0,"x_max":0,"o":"m 14 0 l 333 0 l 365 150 l 601 150 l 633 0 l 953 0 l 660 958 l 307 958 z m 176 1000 l 433 1000 l 483 1135 l 533 1000 l 790 1000 l 643 1222 l 601 1222 l 543 1376 l 272 1376 l 374 1222 l 324 1222 z m 415 386 l 483 703 l 551 386 z "},"Ẩ":{"ha":967,"x_min":0,"x_max":0,"o":"m 14 0 l 333 0 l 365 150 l 601 150 l 633 0 l 953 0 l 660 958 l 307 958 z m 176 1000 l 433 1000 l 483 1135 l 533 1000 l 790 1000 l 643 1222 l 518 1222 b 622 1379 588 1264 622 1324 b 410 1526 622 1457 551 1526 l 343 1368 b 424 1300 403 1340 424 1322 b 385 1222 424 1282 411 1263 l 324 1222 z m 415 386 l 483 703 l 551 386 z "},"Ẫ":{"ha":967,"x_min":0,"x_max":0,"o":"m 14 0 l 333 0 l 365 150 l 601 150 l 633 0 l 953 0 l 660 958 l 307 958 z m 168 1000 l 425 1000 l 475 1135 l 525 1000 l 782 1000 l 635 1222 b 708 1363 674 1247 704 1296 l 665 1431 b 588 1382 638 1397 615 1382 b 372 1446 529 1382 457 1446 b 242 1288 306 1446 258 1399 l 285 1222 b 361 1268 310 1251 333 1268 b 496 1222 400 1268 446 1240 l 315 1222 z m 415 386 l 483 703 l 551 386 z "},"Ä":{"ha":967,"x_min":0,"x_max":0,"o":"m 14 0 l 333 0 l 365 150 l 601 150 l 633 0 l 953 0 l 660 958 l 307 958 z m 188 1093 b 326 983 188 1018 235 983 b 463 1093 417 983 463 1018 b 326 1206 463 1168 417 1206 b 188 1093 235 1206 188 1168 z m 415 386 l 483 703 l 551 386 z m 504 1093 b 643 983 504 1018 550 983 b 779 1093 733 983 779 1018 b 643 1206 779 1168 733 1206 b 504 1093 550 1206 504 1168 z "},"Ǟ":{"ha":967,"x_min":0,"x_max":0,"o":"m 14 0 l 333 0 l 365 150 l 601 150 l 633 0 l 953 0 l 660 958 l 307 958 z m 188 1093 b 326 983 188 1018 235 983 b 463 1093 417 983 463 1018 b 326 1206 463 1168 417 1206 b 188 1093 235 1206 188 1168 z m 251 1226 l 724 1226 l 724 1400 l 251 1400 z m 415 386 l 483 703 l 551 386 z m 504 1093 b 643 983 504 1018 550 983 b 779 1093 733 983 779 1018 b 643 1206 779 1168 733 1206 b 504 1093 550 1206 504 1168 z "},"Ạ":{"ha":967,"x_min":0,"x_max":0,"o":"m 14 0 l 333 0 l 365 150 l 601 150 l 633 0 l 953 0 l 660 958 l 307 958 z m 343 -156 b 482 -265 343 -231 389 -265 b 618 -156 572 -265 618 -231 b 482 -43 618 -81 572 -43 b 343 -156 389 -43 343 -81 z m 415 386 l 483 703 l 551 386 z "},"À":{"ha":967,"x_min":0,"x_max":0,"o":"m 14 0 l 333 0 l 365 150 l 601 150 l 633 0 l 953 0 l 660 958 l 307 958 z m 272 1222 l 389 1000 l 611 1000 l 543 1222 z m 415 386 l 483 703 l 551 386 z "},"Ả":{"ha":967,"x_min":0,"x_max":0,"o":"m 14 0 l 333 0 l 365 150 l 601 150 l 633 0 l 953 0 l 660 958 l 307 958 z m 343 1161 b 424 1093 403 1133 424 1115 b 382 1011 424 1075 410 1054 l 426 976 b 622 1172 557 1013 622 1096 b 410 1319 622 1250 551 1319 z m 415 386 l 483 703 l 551 386 z "},"Ɑ":{"ha":990,"x_min":0,"x_max":0,"o":"m 518 -17 b 907 18 650 -17 779 -3 l 907 940 b 518 975 779 961 650 975 b 56 479 208 975 56 800 b 518 -17 56 158 208 -17 z m 350 479 b 531 753 350 664 399 753 b 621 742 554 753 590 750 l 621 217 b 531 206 590 208 554 206 b 350 479 399 206 350 294 z "},"Ā":{"ha":967,"x_min":0,"x_max":0,"o":"m 14 0 l 333 0 l 365 150 l 601 150 l 633 0 l 953 0 l 660 958 l 307 958 z m 251 1010 l 724 1010 l 724 1183 l 251 1183 z m 415 386 l 483 703 l 551 386 z "},"Ą":{"ha":967,"x_min":0,"x_max":0,"o":"m 14 0 l 333 0 l 365 150 l 601 150 l 633 0 l 718 0 b 629 -147 658 -42 629 -96 b 842 -294 629 -225 700 -294 l 908 -136 b 828 -68 849 -108 828 -90 b 861 0 828 -51 839 -33 l 953 0 l 660 958 l 307 958 z m 415 386 l 483 703 l 551 386 z "},"Å":{"ha":967,"x_min":0,"x_max":0,"o":"m 14 0 l 333 0 l 365 150 l 601 150 l 633 0 l 953 0 l 660 957 b 685 1056 676 983 685 1017 b 485 1238 685 1172 614 1238 b 282 1056 356 1238 282 1171 b 307 958 282 1017 290 985 z m 414 1057 b 485 1122 414 1100 439 1122 b 553 1057 529 1122 553 1100 b 485 993 553 1014 531 993 b 414 1057 438 993 414 1014 z m 415 386 l 483 703 l 551 386 z "},"Ǻ":{"ha":967,"x_min":0,"x_max":0,"o":"m 14 0 l 333 0 l 365 150 l 601 150 l 633 0 l 953 0 l 660 957 b 685 1056 676 983 685 1017 b 485 1238 685 1172 614 1238 b 282 1056 356 1238 282 1171 b 307 958 282 1017 290 985 z m 342 1279 l 564 1279 l 682 1501 l 411 1501 z m 414 1057 b 485 1122 414 1100 439 1122 b 553 1057 529 1122 553 1100 b 485 993 553 1014 531 993 b 414 1057 438 993 414 1014 z m 415 386 l 483 703 l 551 386 z "},"Ã":{"ha":967,"x_min":0,"x_max":0,"o":"m 14 0 l 333 0 l 365 150 l 601 150 l 633 0 l 953 0 l 660 958 l 307 958 z m 226 1081 l 274 1015 b 358 1061 301 1044 326 1061 b 596 999 424 1061 503 999 b 740 1156 668 999 733 1060 l 693 1224 b 608 1175 663 1190 638 1175 b 371 1239 543 1175 464 1239 b 226 1081 297 1239 244 1192 z m 415 386 l 483 703 l 551 386 z "},"Æ":{"ha":1272,"x_min":0,"x_max":0,"o":"m -28 0 l 278 0 l 344 150 l 550 150 l 550 0 l 1231 0 l 1231 236 l 836 236 l 836 375 l 1169 375 l 1169 611 l 836 611 l 836 722 l 1231 722 l 1231 958 l 457 958 z m 428 386 l 550 686 l 550 386 z "},"Ǽ":{"ha":1272,"x_min":0,"x_max":0,"o":"m -28 0 l 278 0 l 344 150 l 550 150 l 550 0 l 1231 0 l 1231 236 l 836 236 l 836 375 l 1169 375 l 1169 611 l 836 611 l 836 722 l 1231 722 l 1231 958 l 457 958 z m 428 386 l 550 686 l 550 386 z m 528 1000 l 750 1000 l 868 1222 l 597 1222 z "},"Ǣ":{"ha":1272,"x_min":0,"x_max":0,"o":"m -28 0 l 278 0 l 344 150 l 550 150 l 550 0 l 1231 0 l 1231 236 l 836 236 l 836 375 l 1169 375 l 1169 611 l 836 611 l 836 722 l 1231 722 l 1231 958 l 457 958 z m 428 386 l 550 686 l 550 386 z m 438 1010 l 910 1010 l 910 1183 l 438 1183 z "},"B":{"ha":929,"x_min":0,"x_max":0,"o":"m 508 -17 b 886 260 776 -17 886 76 b 724 503 886 381 835 464 b 842 700 806 538 842 589 b 467 975 842 883 733 975 b 83 940 349 975 249 967 l 83 18 b 508 -17 256 -10 358 -17 z m 369 217 l 369 367 b 468 378 388 375 449 378 b 592 292 557 378 592 353 b 468 206 592 229 557 206 b 369 217 444 206 386 208 z m 369 608 l 369 742 b 453 753 393 750 429 753 b 547 675 519 753 547 731 b 453 597 547 619 521 597 b 369 608 429 597 393 600 z "},"Ḅ":{"ha":929,"x_min":0,"x_max":0,"o":"m 508 -17 b 886 260 776 -17 886 76 b 724 503 886 381 835 464 b 842 700 806 538 842 589 b 467 975 842 883 733 975 b 83 940 349 975 249 967 l 83 18 b 508 -17 256 -10 358 -17 z m 325 -156 b 464 -265 325 -231 371 -265 b 600 -156 554 -265 600 -231 b 464 -43 600 -81 554 -43 b 325 -156 371 -43 325 -81 z m 369 217 l 369 367 b 468 378 388 375 449 378 b 592 292 557 378 592 353 b 468 206 592 229 557 206 b 369 217 444 206 386 208 z m 369 608 l 369 742 b 453 753 393 750 429 753 b 547 675 519 753 547 731 b 453 597 547 619 521 597 b 369 608 429 597 393 600 z "},"C":{"ha":835,"x_min":0,"x_max":0,"o":"m 518 -17 b 792 18 613 -17 722 -1 l 767 249 b 550 206 725 236 647 206 b 351 479 407 206 351 269 b 549 753 351 689 407 753 b 767 708 646 753 725 719 l 792 940 b 517 975 722 960 607 975 b 57 479 213 975 57 811 b 518 -17 57 147 213 -17 z "},"Ć":{"ha":835,"x_min":0,"x_max":0,"o":"m 518 -17 b 792 18 613 -17 722 -1 l 767 249 b 550 206 725 236 647 206 b 351 479 407 206 351 269 b 549 753 351 689 407 753 b 767 708 646 753 725 719 l 792 940 b 517 975 722 960 607 975 b 57 479 213 975 57 811 b 518 -17 57 147 213 -17 z m 336 1000 l 558 1000 l 676 1222 l 406 1222 z "},"Č":{"ha":835,"x_min":0,"x_max":0,"o":"m 518 -17 b 792 18 613 -17 722 -1 l 767 249 b 550 206 725 236 647 206 b 351 479 407 206 351 269 b 549 753 351 689 407 753 b 767 708 646 753 725 719 l 792 940 b 517 975 722 960 607 975 b 57 479 213 975 57 811 b 518 -17 57 147 213 -17 z m 171 1222 l 318 1000 l 638 1000 l 785 1222 l 528 1222 l 478 1088 l 428 1222 z "},"Ç":{"ha":832,"x_min":0,"x_max":0,"o":"m 332 -150 l 400 -308 b 625 -143 551 -308 625 -228 b 563 -15 625 -99 603 -51 b 790 18 643 -11 732 1 l 765 249 b 547 206 722 236 644 206 b 350 479 406 206 350 268 b 547 753 350 690 406 753 b 765 708 644 753 722 719 l 790 940 b 515 975 721 960 608 975 b 56 479 211 975 56 813 b 433 -12 56 178 183 15 b 438 -44 436 -24 438 -35 b 332 -150 438 -97 397 -121 z "},"Ĉ":{"ha":835,"x_min":0,"x_max":0,"o":"m 518 -17 b 792 18 613 -17 722 -1 l 767 249 b 550 206 725 236 647 206 b 351 479 407 206 351 269 b 549 753 351 689 407 753 b 767 708 646 753 725 719 l 792 940 b 517 975 722 960 607 975 b 57 479 213 975 57 811 b 518 -17 57 147 213 -17 z m 171 1000 l 428 1000 l 478 1135 l 528 1000 l 785 1000 l 638 1222 l 318 1222 z "},"Ċ":{"ha":835,"x_min":0,"x_max":0,"o":"m 518 -17 b 792 18 613 -17 722 -1 l 767 249 b 550 206 725 236 647 206 b 351 479 407 206 351 269 b 549 753 351 689 407 753 b 767 708 646 753 725 719 l 792 940 b 517 975 722 960 607 975 b 57 479 213 975 57 811 b 518 -17 57 147 213 -17 z m 342 1086 b 481 976 342 1011 388 976 b 617 1086 571 976 617 1011 b 481 1199 617 1161 571 1199 b 342 1086 388 1199 342 1161 z "},"D":{"ha":990,"x_min":0,"x_max":0,"o":"m 472 -17 b 935 479 782 -17 935 158 b 472 975 935 800 782 975 b 83 940 340 975 211 961 l 83 18 b 472 -17 211 -3 340 -17 z m 369 217 l 369 742 b 460 753 400 750 436 753 b 640 479 592 753 640 664 b 460 206 640 294 592 206 b 369 217 436 206 400 208 z "},"Ð":{"ha":1046,"x_min":0,"x_max":0,"o":"m 526 -17 b 990 479 838 -17 990 158 b 526 975 990 800 838 975 b 139 940 396 975 267 961 l 139 576 l 56 576 l 56 382 l 139 382 l 139 18 b 526 -17 265 -3 396 -17 z m 425 217 l 425 382 l 569 382 l 569 576 l 425 576 l 425 742 b 515 753 456 750 492 753 b 696 479 647 753 696 664 b 515 206 696 294 647 206 b 425 217 492 206 456 208 z "},"Ď":{"ha":990,"x_min":0,"x_max":0,"o":"m 472 -17 b 935 479 782 -17 935 158 b 472 975 935 800 782 975 b 83 940 340 975 211 961 l 83 18 b 472 -17 211 -3 340 -17 z m 189 1222 l 336 1000 l 656 1000 l 803 1222 l 546 1222 l 496 1088 l 446 1222 z m 369 217 l 369 742 b 460 753 400 750 436 753 b 640 479 592 753 640 664 b 460 206 640 294 592 206 b 369 217 436 206 400 208 z "},"Ḓ":{"ha":990,"x_min":0,"x_max":0,"o":"m 472 -17 b 935 479 782 -17 935 158 b 472 975 935 800 782 975 b 83 940 340 975 211 961 l 83 18 b 472 -17 211 -3 340 -17 z m 189 -250 l 446 -250 l 496 -115 l 546 -250 l 803 -250 l 656 -28 l 336 -28 z m 369 217 l 369 742 b 460 753 400 750 436 753 b 640 479 592 753 640 664 b 460 206 640 294 592 206 b 369 217 436 206 400 208 z "},"Đ":{"ha":1046,"x_min":0,"x_max":0,"o":"m 526 -17 b 990 479 838 -17 990 158 b 528 975 990 800 838 975 b 139 940 396 975 267 961 l 139 576 l 56 576 l 56 382 l 139 382 l 139 18 b 526 -17 265 -3 396 -17 z m 425 217 l 425 382 l 569 382 l 569 576 l 425 576 l 425 742 b 515 753 456 750 492 753 b 696 479 647 753 696 664 b 515 206 696 294 647 206 b 425 217 492 206 456 208 z "},"Ḍ":{"ha":990,"x_min":0,"x_max":0,"o":"m 472 -17 b 935 479 782 -17 935 158 b 472 975 935 800 782 975 b 83 940 340 975 211 961 l 83 18 b 472 -17 211 -3 340 -17 z m 356 -156 b 494 -265 356 -231 401 -265 b 631 -156 585 -265 631 -231 b 494 -43 631 -81 585 -43 b 356 -156 401 -43 356 -81 z m 369 217 l 369 742 b 460 753 400 750 436 753 b 640 479 592 753 640 664 b 460 206 640 294 592 206 b 369 217 436 206 400 208 z "},"Ḏ":{"ha":990,"x_min":0,"x_max":0,"o":"m 472 -17 b 935 479 782 -17 935 158 b 472 975 935 800 782 975 b 83 940 340 975 211 961 l 83 18 b 472 -17 211 -3 340 -17 z m 260 -250 l 732 -250 l 732 -56 l 260 -56 z m 369 217 l 369 742 b 460 753 400 750 436 753 b 640 479 592 753 640 664 b 460 206 640 294 592 206 b 369 217 436 206 400 208 z "},"Ɖ":{"ha":1046,"x_min":0,"x_max":0,"o":"m 526 -17 b 990 479 838 -17 990 158 b 528 975 990 800 838 975 b 139 940 396 975 267 961 l 139 576 l 56 576 l 56 382 l 139 382 l 139 18 b 526 -17 265 -3 396 -17 z m 425 217 l 425 382 l 569 382 l 569 576 l 425 576 l 425 742 b 515 753 456 750 492 753 b 696 479 647 753 696 664 b 515 206 696 294 647 206 b 425 217 492 206 456 208 z "},"E":{"ha":806,"x_min":0,"x_max":0,"o":"m 83 0 l 764 0 l 764 236 l 369 236 l 369 375 l 703 375 l 703 611 l 369 611 l 369 722 l 764 722 l 764 958 l 83 958 z "},"É":{"ha":806,"x_min":0,"x_max":0,"o":"m 83 0 l 764 0 l 764 236 l 369 236 l 369 375 l 703 375 l 703 611 l 369 611 l 369 722 l 764 722 l 764 958 l 83 958 z m 261 1000 l 483 1000 l 601 1222 l 331 1222 z "},"Ě":{"ha":806,"x_min":0,"x_max":0,"o":"m 83 0 l 764 0 l 764 236 l 369 236 l 369 375 l 703 375 l 703 611 l 369 611 l 369 722 l 764 722 l 764 958 l 83 958 z m 96 1222 l 243 1000 l 563 1000 l 710 1222 l 453 1222 l 403 1088 l 353 1222 z "},"Ȩ":{"ha":806,"x_min":0,"x_max":0,"o":"m 83 0 l 372 0 b 376 -31 375 -11 376 -22 b 271 -136 376 -83 335 -107 l 338 -294 b 563 -129 489 -294 563 -214 b 497 0 563 -83 540 -36 l 764 0 l 764 236 l 369 236 l 369 375 l 703 375 l 703 611 l 369 611 l 369 722 l 764 722 l 764 958 l 83 958 z "},"Ê":{"ha":806,"x_min":0,"x_max":0,"o":"m 83 0 l 764 0 l 764 236 l 369 236 l 369 375 l 703 375 l 703 611 l 369 611 l 369 722 l 764 722 l 764 958 l 83 958 z m 96 1000 l 353 1000 l 403 1135 l 453 1000 l 710 1000 l 563 1222 l 243 1222 z "},"Ế":{"ha":806,"x_min":0,"x_max":0,"o":"m 83 0 l 764 0 l 764 236 l 369 236 l 369 375 l 703 375 l 703 611 l 369 611 l 369 722 l 764 722 l 764 958 l 83 958 z m 96 1000 l 353 1000 l 403 1135 l 453 1000 l 710 1000 l 563 1222 l 500 1222 l 601 1371 l 331 1371 l 271 1222 l 243 1222 z "},"Ệ":{"ha":806,"x_min":0,"x_max":0,"o":"m 83 0 l 764 0 l 764 236 l 369 236 l 369 375 l 703 375 l 703 611 l 369 611 l 369 722 l 764 722 l 764 958 l 83 958 z m 96 1000 l 353 1000 l 403 1135 l 453 1000 l 710 1000 l 563 1222 l 243 1222 z m 276 -142 b 415 -251 276 -217 322 -251 b 551 -142 506 -251 551 -217 b 415 -29 551 -67 506 -29 b 276 -142 322 -29 276 -67 z "},"Ề":{"ha":806,"x_min":0,"x_max":0,"o":"m 83 0 l 764 0 l 764 236 l 369 236 l 369 375 l 703 375 l 703 611 l 369 611 l 369 722 l 764 722 l 764 958 l 83 958 z m 96 1000 l 353 1000 l 403 1135 l 453 1000 l 710 1000 l 563 1222 l 521 1222 l 463 1376 l 192 1376 l 293 1222 l 243 1222 z "},"Ể":{"ha":806,"x_min":0,"x_max":0,"o":"m 83 0 l 764 0 l 764 236 l 369 236 l 369 375 l 703 375 l 703 611 l 369 611 l 369 722 l 764 722 l 764 958 l 83 958 z m 96 1000 l 353 1000 l 403 1135 l 453 1000 l 710 1000 l 563 1222 l 438 1222 b 542 1379 507 1264 542 1324 b 329 1526 542 1457 471 1526 l 263 1368 b 343 1300 322 1340 343 1322 b 304 1222 343 1282 331 1263 l 243 1222 z "},"Ễ":{"ha":806,"x_min":0,"x_max":0,"o":"m 83 0 l 764 0 l 764 236 l 369 236 l 369 375 l 703 375 l 703 611 l 369 611 l 369 722 l 764 722 l 764 958 l 83 958 z m 88 1000 l 344 1000 l 394 1135 l 444 1000 l 701 1000 l 554 1222 b 628 1363 593 1247 624 1296 l 585 1431 b 507 1382 557 1397 535 1382 b 292 1446 449 1382 376 1446 b 161 1288 225 1446 178 1399 l 204 1222 b 281 1268 229 1251 253 1268 b 415 1222 319 1268 365 1240 l 235 1222 z "},"Ë":{"ha":806,"x_min":0,"x_max":0,"o":"m 83 0 l 764 0 l 764 236 l 369 236 l 369 375 l 703 375 l 703 611 l 369 611 l 369 722 l 764 722 l 764 958 l 83 958 z m 107 1093 b 246 983 107 1018 154 983 b 382 1093 336 983 382 1018 b 246 1206 382 1168 336 1206 b 107 1093 154 1206 107 1168 z m 424 1093 b 563 983 424 1018 469 983 b 699 1093 653 983 699 1018 b 563 1206 699 1168 653 1206 b 424 1093 469 1206 424 1168 z "},"Ė":{"ha":806,"x_min":0,"x_max":0,"o":"m 83 0 l 764 0 l 764 236 l 369 236 l 369 375 l 703 375 l 703 611 l 369 611 l 369 722 l 764 722 l 764 958 l 83 958 z m 267 1086 b 406 976 267 1011 313 976 b 542 1086 496 976 542 1011 b 406 1199 542 1161 496 1199 b 267 1086 313 1199 267 1161 z "},"Ẹ":{"ha":806,"x_min":0,"x_max":0,"o":"m 83 0 l 764 0 l 764 236 l 369 236 l 369 375 l 703 375 l 703 611 l 369 611 l 369 722 l 764 722 l 764 958 l 83 958 z m 276 -142 b 415 -251 276 -217 322 -251 b 551 -142 506 -251 551 -217 b 415 -29 551 -67 506 -29 b 276 -142 322 -29 276 -67 z "},"È":{"ha":806,"x_min":0,"x_max":0,"o":"m 83 0 l 764 0 l 764 236 l 369 236 l 369 375 l 703 375 l 703 611 l 369 611 l 369 722 l 764 722 l 764 958 l 83 958 z m 192 1222 l 308 1000 l 531 1000 l 463 1222 z "},"Ẻ":{"ha":806,"x_min":0,"x_max":0,"o":"m 83 0 l 764 0 l 764 236 l 369 236 l 369 375 l 703 375 l 703 611 l 369 611 l 369 722 l 764 722 l 764 958 l 83 958 z m 263 1161 b 343 1093 322 1133 343 1115 b 301 1011 343 1075 329 1054 l 346 976 b 542 1172 476 1013 542 1096 b 329 1319 542 1250 471 1319 z "},"Ē":{"ha":806,"x_min":0,"x_max":0,"o":"m 83 0 l 764 0 l 764 236 l 369 236 l 369 375 l 703 375 l 703 611 l 369 611 l 369 722 l 764 722 l 764 958 l 83 958 z m 171 1010 l 643 1010 l 643 1183 l 171 1183 z "},"Ę":{"ha":806,"x_min":0,"x_max":0,"o":"m 83 0 l 472 0 b 383 -147 413 -42 383 -96 b 596 -294 383 -225 454 -294 l 663 -136 b 582 -68 603 -108 582 -90 b 615 0 582 -51 593 -33 l 764 0 l 764 236 l 369 236 l 369 375 l 703 375 l 703 611 l 369 611 l 369 722 l 764 722 l 764 958 l 83 958 z "},"Ɛ":{"ha":811,"x_min":0,"x_max":0,"o":"m 436 -17 b 769 53 599 -17 700 28 l 744 285 b 461 206 706 268 600 206 b 336 296 369 206 336 233 b 481 378 336 357 390 378 l 550 378 l 550 597 l 481 597 b 371 675 411 597 371 619 b 476 753 371 731 406 753 b 690 708 563 753 654 719 l 717 940 b 443 975 633 961 540 975 b 78 714 190 975 78 881 b 203 503 78 607 117 532 b 42 275 93 481 42 399 b 436 -17 42 68 178 -17 z "},"Ǝ":{"ha":806,"x_min":0,"x_max":0,"o":"m 722 0 l 722 958 l 42 958 l 42 722 l 436 722 l 436 611 l 103 611 l 103 375 l 436 375 l 436 236 l 42 236 l 42 0 z "},"Ʃ":{"ha":833,"x_min":0,"x_max":0,"o":"m 57 0 l 751 0 l 751 192 l 399 192 l 618 479 l 399 767 l 751 767 l 751 958 l 57 958 l 57 789 l 314 479 l 57 169 z "},"Ẽ":{"ha":806,"x_min":0,"x_max":0,"o":"m 83 0 l 764 0 l 764 236 l 369 236 l 369 375 l 703 375 l 703 611 l 369 611 l 369 722 l 764 722 l 764 958 l 83 958 z m 146 1081 l 193 1015 b 278 1061 221 1044 246 1061 b 515 999 343 1061 422 999 b 660 1156 588 999 653 1060 l 613 1224 b 528 1175 582 1190 557 1175 b 290 1239 463 1175 383 1239 b 146 1081 217 1239 164 1192 z "},"Ʒ":{"ha":811,"x_min":0,"x_max":0,"o":"m 375 -17 b 769 303 633 -17 769 96 b 610 547 769 425 726 506 l 743 750 l 743 958 l 56 958 l 56 722 l 438 722 l 346 583 l 331 583 l 206 583 l 206 378 l 331 378 b 475 296 421 378 475 357 b 350 206 475 233 442 206 b 67 285 211 206 106 268 l 42 53 b 375 -17 111 28 213 -17 z "},"Ǯ":{"ha":811,"x_min":0,"x_max":0,"o":"m 375 -17 b 769 303 633 -17 769 96 b 610 547 769 425 726 506 l 743 750 l 743 958 l 56 958 l 56 722 l 438 722 l 346 583 l 331 583 l 206 583 l 206 378 l 331 378 b 475 296 421 378 475 357 b 350 206 475 233 442 206 b 67 285 211 206 106 268 l 42 53 b 375 -17 111 28 213 -17 z m 92 1222 l 239 1000 l 558 1000 l 706 1222 l 449 1222 l 399 1088 l 349 1222 z "},"F":{"ha":783,"x_min":0,"x_max":0,"o":"m 83 0 l 369 0 l 369 347 l 686 347 l 686 583 l 369 583 l 369 722 l 742 722 l 742 958 l 83 958 z "},"G":{"ha":917,"x_min":0,"x_max":0,"o":"m 515 -17 b 833 36 625 -17 736 3 l 833 564 l 489 550 l 489 314 l 547 317 l 547 211 b 506 206 536 208 525 206 b 350 464 394 206 350 289 b 558 753 350 674 415 753 b 779 708 651 753 736 719 l 804 940 b 533 975 733 960 629 975 b 56 479 215 975 56 810 b 515 -17 56 146 211 -17 z "},"Ğ":{"ha":917,"x_min":0,"x_max":0,"o":"m 515 -17 b 833 36 625 -17 736 3 l 833 564 l 489 550 l 489 314 l 547 317 l 547 211 b 506 206 536 208 525 206 b 350 464 394 206 350 289 b 558 753 350 674 415 753 b 779 708 651 753 736 719 l 804 940 b 533 975 733 960 629 975 b 56 479 215 975 56 810 b 515 -17 56 146 211 -17 z m 282 1192 b 515 986 282 1061 365 986 b 746 1192 665 986 746 1060 l 593 1193 b 515 1119 593 1143 568 1119 b 435 1193 461 1119 435 1143 z "},"Ǧ":{"ha":917,"x_min":0,"x_max":0,"o":"m 515 -17 b 833 36 625 -17 736 3 l 833 564 l 489 550 l 489 314 l 547 317 l 547 211 b 506 206 536 208 525 206 b 350 464 394 206 350 289 b 558 753 350 674 415 753 b 779 708 651 753 736 719 l 804 940 b 533 975 733 960 629 975 b 56 479 215 975 56 810 b 515 -17 56 146 211 -17 z m 207 1222 l 354 1000 l 674 1000 l 821 1222 l 564 1222 l 514 1088 l 464 1222 z "},"Ĝ":{"ha":917,"x_min":0,"x_max":0,"o":"m 515 -17 b 833 36 625 -17 736 3 l 833 564 l 489 550 l 489 314 l 547 317 l 547 211 b 506 206 536 208 525 206 b 350 464 394 206 350 289 b 558 753 350 674 415 753 b 779 708 651 753 736 719 l 804 940 b 533 975 733 960 629 975 b 56 479 215 975 56 810 b 515 -17 56 146 211 -17 z m 207 1000 l 464 1000 l 514 1135 l 564 1000 l 821 1000 l 674 1222 l 354 1222 z "},"Ģ":{"ha":917,"x_min":0,"x_max":0,"o":"m 515 -17 b 833 36 625 -17 736 3 l 833 564 l 489 550 l 489 314 l 547 317 l 547 211 b 506 206 536 208 525 206 b 350 464 394 206 350 289 b 558 753 350 674 415 753 b 779 708 651 753 736 719 l 804 940 b 533 975 733 960 629 975 b 56 479 215 975 56 810 b 515 -17 56 146 211 -17 z m 393 -143 b 492 -229 393 -190 422 -225 b 401 -275 482 -253 453 -267 l 410 -351 b 667 -167 579 -342 667 -271 b 525 -47 667 -89 618 -47 b 393 -143 440 -47 393 -82 z "},"Ġ":{"ha":917,"x_min":0,"x_max":0,"o":"m 515 -17 b 833 36 625 -17 736 3 l 833 564 l 489 550 l 489 314 l 547 317 l 547 211 b 506 206 536 208 525 206 b 350 464 394 206 350 289 b 558 753 350 674 415 753 b 779 708 651 753 736 719 l 804 940 b 533 975 733 960 629 975 b 56 479 215 975 56 810 b 515 -17 56 146 211 -17 z m 378 1086 b 517 976 378 1011 424 976 b 653 1086 607 976 653 1011 b 517 1199 653 1161 607 1199 b 378 1086 424 1199 378 1161 z "},"Ḡ":{"ha":917,"x_min":0,"x_max":0,"o":"m 515 -17 b 833 36 625 -17 736 3 l 833 564 l 489 550 l 489 314 l 547 317 l 547 211 b 506 206 536 208 525 206 b 350 464 394 206 350 289 b 558 753 350 674 415 753 b 779 708 651 753 736 719 l 804 940 b 533 975 733 960 629 975 b 56 479 215 975 56 810 b 515 -17 56 146 211 -17 z m 282 1010 l 754 1010 l 754 1183 l 282 1183 z "},"Ǥ":{"ha":917,"x_min":0,"x_max":0,"o":"m 515 -17 b 833 36 625 -17 736 3 l 833 297 l 924 297 l 924 476 l 833 476 l 833 564 l 489 550 l 489 297 l 547 297 l 547 211 b 506 206 536 208 525 206 b 350 464 394 206 350 289 b 558 753 350 674 415 753 b 779 708 651 753 736 719 l 804 940 b 533 975 733 960 629 975 b 56 479 215 975 56 810 b 515 -17 56 146 211 -17 z "},"H":{"ha":1003,"x_min":0,"x_max":0,"o":"m 83 0 l 369 0 l 369 375 l 633 375 l 633 0 l 919 0 l 919 958 l 633 958 l 633 611 l 369 611 l 369 958 l 83 958 z "},"Ħ":{"ha":1031,"x_min":0,"x_max":0,"o":"m 97 0 l 383 0 l 383 375 l 647 375 l 647 0 l 933 0 l 933 694 l 1017 694 l 1017 889 l 933 889 l 933 958 l 647 958 l 647 889 l 383 889 l 383 958 l 97 958 l 97 889 l 14 889 l 14 694 l 97 694 z m 383 611 l 383 694 l 647 694 l 647 611 z "},"Ḫ":{"ha":1003,"x_min":0,"x_max":0,"o":"m 83 0 l 369 0 l 369 375 l 633 375 l 633 0 l 919 0 l 919 958 l 633 958 l 633 611 l 369 611 l 369 958 l 83 958 z m 269 -54 b 503 -260 269 -185 353 -260 b 733 -54 653 -260 733 -186 l 581 -53 b 503 -126 581 -103 556 -126 b 422 -53 449 -126 422 -103 z "},"Ĥ":{"ha":1003,"x_min":0,"x_max":0,"o":"m 83 0 l 369 0 l 369 375 l 633 375 l 633 0 l 919 0 l 919 958 l 633 958 l 633 611 l 369 611 l 369 958 l 83 958 z m 194 1000 l 451 1000 l 501 1135 l 551 1000 l 808 1000 l 661 1222 l 342 1222 z "},"Ḥ":{"ha":1003,"x_min":0,"x_max":0,"o":"m 83 0 l 369 0 l 369 375 l 633 375 l 633 0 l 919 0 l 919 958 l 633 958 l 633 611 l 369 611 l 369 958 l 83 958 z m 361 -156 b 500 -265 361 -231 407 -265 b 636 -156 590 -265 636 -231 b 500 -43 636 -81 590 -43 b 361 -156 407 -43 361 -81 z "},"I":{"ha":453,"x_min":0,"x_max":0,"o":"m 83 0 l 369 0 l 369 958 l 83 958 z "},"Ĳ":{"ha":1139,"x_min":0,"x_max":0,"o":"m 83 0 l 369 0 l 369 958 l 83 958 z m 468 18 b 722 -17 542 3 621 -17 b 1056 319 953 -17 1056 88 l 1056 958 l 769 958 l 769 319 b 683 206 769 235 747 206 b 493 249 615 206 526 238 z "},"Í":{"ha":453,"x_min":0,"x_max":0,"o":"m 83 0 l 369 0 l 369 958 l 83 958 z m 85 1000 l 307 1000 l 425 1222 l 154 1222 z "},"Ǐ":{"ha":453,"x_min":0,"x_max":0,"o":"m 83 0 l 369 0 l 369 958 l 83 958 z m -81 1222 l 67 1000 l 386 1000 l 533 1222 l 276 1222 l 226 1088 l 176 1222 z "},"Î":{"ha":453,"x_min":0,"x_max":0,"o":"m 83 0 l 369 0 l 369 958 l 83 958 z m -81 1000 l 176 1000 l 226 1135 l 276 1000 l 533 1000 l 386 1222 l 67 1222 z "},"Ï":{"ha":453,"x_min":0,"x_max":0,"o":"m 83 0 l 369 0 l 369 958 l 83 958 z m -69 1093 b 69 983 -69 1018 -22 983 b 206 1093 160 983 206 1018 b 69 1206 206 1168 160 1206 b -69 1093 -22 1206 -69 1168 z m 247 1093 b 386 983 247 1018 293 983 b 522 1093 476 983 522 1018 b 386 1206 522 1168 476 1206 b 247 1093 293 1206 247 1168 z "},"Ḯ":{"ha":453,"x_min":0,"x_max":0,"o":"m 83 0 l 369 0 l 369 958 l 83 958 z m -69 1093 b 69 983 -69 1018 -22 983 b 206 1093 160 983 206 1018 b 69 1206 206 1168 160 1206 b -69 1093 -22 1206 -69 1168 z m 85 1217 l 307 1217 l 425 1439 l 154 1439 z m 247 1093 b 386 983 247 1018 293 983 b 522 1093 476 983 522 1018 b 386 1206 522 1168 476 1206 b 247 1093 293 1206 247 1168 z "},"İ":{"ha":453,"x_min":0,"x_max":0,"o":"m 83 0 l 369 0 l 369 958 l 83 958 z m 90 1086 b 229 976 90 1011 136 976 b 365 1086 319 976 365 1011 b 229 1199 365 1161 319 1199 b 90 1086 136 1199 90 1161 z "},"Ị":{"ha":453,"x_min":0,"x_max":0,"o":"m 83 0 l 369 0 l 369 958 l 83 958 z m 86 -156 b 225 -265 86 -231 132 -265 b 361 -156 315 -265 361 -231 b 225 -43 361 -81 315 -43 b 86 -156 132 -43 86 -81 z "},"Ì":{"ha":453,"x_min":0,"x_max":0,"o":"m 83 0 l 369 0 l 369 958 l 83 958 z m 15 1222 l 132 1000 l 354 1000 l 286 1222 z "},"Ỉ":{"ha":453,"x_min":0,"x_max":0,"o":"m 83 0 l 369 0 l 369 958 l 83 958 z m 86 1161 b 167 1093 146 1133 167 1115 b 125 1011 167 1075 153 1054 l 169 976 b 365 1172 300 1013 365 1096 b 153 1319 365 1250 294 1319 z "},"Ī":{"ha":453,"x_min":0,"x_max":0,"o":"m 83 0 l 369 0 l 369 958 l 83 958 z m -6 1010 l 467 1010 l 467 1183 l -6 1183 z "},"Į":{"ha":453,"x_min":0,"x_max":0,"o":"m 83 0 l 165 0 b 76 -147 106 -42 76 -96 b 289 -294 76 -225 147 -294 l 356 -136 b 275 -68 296 -108 275 -90 b 308 0 275 -51 286 -33 l 369 0 l 369 958 l 83 958 z "},"Ĩ":{"ha":453,"x_min":0,"x_max":0,"o":"m 83 0 l 369 0 l 369 958 l 83 958 z m -31 1081 l 17 1015 b 101 1061 44 1044 69 1061 b 339 999 167 1061 246 999 b 483 1156 411 999 476 1060 l 436 1224 b 351 1175 406 1190 381 1175 b 114 1239 286 1175 207 1239 b -31 1081 40 1239 -12 1192 z "},"J":{"ha":686,"x_min":0,"x_max":0,"o":"m 269 -17 b 603 319 500 -17 603 88 l 603 958 l 317 958 l 317 319 b 231 206 317 235 294 206 b 40 249 163 206 74 238 l 15 18 b 269 -17 89 3 168 -17 z "},"Ĵ":{"ha":686,"x_min":0,"x_max":0,"o":"m 269 -17 b 603 319 500 -17 603 88 l 603 958 l 317 958 l 317 319 b 231 206 317 235 294 206 b 40 249 163 206 74 238 l 15 18 b 269 -17 89 3 168 -17 z m 149 1000 l 406 1000 l 456 1135 l 506 1000 l 763 1000 l 615 1222 l 296 1222 z "},"K":{"ha":938,"x_min":0,"x_max":0,"o":"m 83 0 l 369 0 l 369 375 l 422 375 l 582 0 l 924 0 l 653 499 l 910 958 l 576 958 l 419 611 l 369 611 l 369 958 l 83 958 z "},"Ǩ":{"ha":938,"x_min":0,"x_max":0,"o":"m 83 0 l 369 0 l 369 375 l 422 375 l 582 0 l 924 0 l 653 499 l 910 958 l 576 958 l 419 611 l 369 611 l 369 958 l 83 958 z m 163 1222 l 310 1000 l 629 1000 l 776 1222 l 519 1222 l 469 1088 l 419 1222 z "},"Ķ":{"ha":938,"x_min":0,"x_max":0,"o":"m 83 0 l 369 0 l 369 375 l 422 375 l 582 0 l 924 0 l 653 499 l 910 958 l 576 958 l 419 611 l 369 611 l 369 958 l 83 958 z m 335 -115 b 433 -201 335 -162 364 -197 b 343 -247 424 -225 394 -239 l 351 -324 b 608 -139 521 -314 608 -243 b 467 -19 608 -61 560 -19 b 335 -115 382 -19 335 -54 z "},"Ḵ":{"ha":938,"x_min":0,"x_max":0,"o":"m 83 0 l 369 0 l 369 375 l 422 375 l 582 0 l 924 0 l 653 499 l 910 958 l 576 958 l 419 611 l 369 611 l 369 958 l 83 958 z m 233 -250 l 706 -250 l 706 -56 l 233 -56 z "},"L":{"ha":764,"x_min":0,"x_max":0,"o":"m 83 0 l 722 0 l 722 236 l 369 236 l 369 958 l 83 958 z "},"Ĺ":{"ha":764,"x_min":0,"x_max":0,"o":"m 83 0 l 722 0 l 722 236 l 369 236 l 369 958 l 83 958 z m 240 1000 l 463 1000 l 581 1222 l 310 1222 z "},"Ľ":{"ha":764,"x_min":0,"x_max":0,"o":"m 83 0 l 722 0 l 722 236 l 369 236 l 369 958 l 83 958 z m 488 821 b 606 694 488 751 524 700 b 499 628 594 661 560 640 l 508 517 b 815 786 710 531 815 635 b 646 960 815 900 757 960 b 488 821 544 960 488 910 z "},"Ḽ":{"ha":764,"x_min":0,"x_max":0,"o":"m 83 0 l 722 0 l 722 236 l 369 236 l 369 958 l 83 958 z m 75 -250 l 332 -250 l 382 -115 l 432 -250 l 689 -250 l 542 -28 l 222 -28 z "},"Ļ":{"ha":764,"x_min":0,"x_max":0,"o":"m 83 0 l 722 0 l 722 236 l 369 236 l 369 958 l 83 958 z m 247 -115 b 346 -201 247 -162 276 -197 b 256 -247 336 -225 307 -239 l 264 -324 b 521 -139 433 -314 521 -243 b 379 -19 521 -61 472 -19 b 247 -115 294 -19 247 -54 z "},"Ḷ":{"ha":764,"x_min":0,"x_max":0,"o":"m 83 0 l 722 0 l 722 236 l 369 236 l 369 958 l 83 958 z m 242 -156 b 381 -265 242 -231 288 -265 b 517 -156 471 -265 517 -231 b 381 -43 517 -81 471 -43 b 242 -156 288 -43 242 -81 z "},"Ḹ":{"ha":764,"x_min":0,"x_max":0,"o":"m 83 0 l 722 0 l 722 236 l 369 236 l 369 958 l 83 958 z m 150 1010 l 622 1010 l 622 1183 l 150 1183 z m 242 -156 b 381 -265 242 -231 288 -265 b 517 -156 471 -265 517 -231 b 381 -43 517 -81 471 -43 b 242 -156 288 -43 242 -81 z "},"Ḻ":{"ha":764,"x_min":0,"x_max":0,"o":"m 83 0 l 722 0 l 722 236 l 369 236 l 369 958 l 83 958 z m 146 -250 l 618 -250 l 618 -56 l 146 -56 z "},"Ł":{"ha":764,"x_min":0,"x_max":0,"o":"m 83 0 l 722 0 l 722 236 l 369 236 l 369 476 l 526 533 l 461 711 l 369 678 l 369 958 l 83 958 l 83 575 l -22 536 l 43 357 l 83 372 z "},"M":{"ha":1250,"x_min":0,"x_max":0,"o":"m 83 0 l 369 0 l 369 510 l 529 0 l 722 0 l 881 510 l 881 0 l 1167 0 l 1167 958 l 799 958 l 625 440 l 451 958 l 83 958 z "},"Ḿ":{"ha":1250,"x_min":0,"x_max":0,"o":"m 83 0 l 369 0 l 369 510 l 529 0 l 722 0 l 881 510 l 881 0 l 1167 0 l 1167 958 l 799 958 l 625 440 l 451 958 l 83 958 z m 483 1000 l 706 1000 l 824 1222 l 553 1222 z "},"Ṁ":{"ha":1250,"x_min":0,"x_max":0,"o":"m 83 0 l 369 0 l 369 510 l 529 0 l 722 0 l 881 510 l 881 0 l 1167 0 l 1167 958 l 799 958 l 625 440 l 451 958 l 83 958 z m 489 1086 b 628 976 489 1011 535 976 b 764 1086 718 976 764 1011 b 628 1199 764 1161 718 1199 b 489 1086 535 1199 489 1161 z "},"Ṃ":{"ha":1250,"x_min":0,"x_max":0,"o":"m 83 0 l 369 0 l 369 510 l 529 0 l 722 0 l 881 510 l 881 0 l 1167 0 l 1167 958 l 799 958 l 625 440 l 451 958 l 83 958 z m 485 -156 b 624 -265 485 -231 531 -265 b 760 -156 714 -265 760 -231 b 624 -43 760 -81 714 -43 b 485 -156 531 -43 485 -81 z "},"N":{"ha":1007,"x_min":0,"x_max":0,"o":"m 83 0 l 369 0 l 369 475 l 646 0 l 924 0 l 924 958 l 638 958 l 638 483 l 361 958 l 83 958 z "},"Ń":{"ha":1007,"x_min":0,"x_max":0,"o":"m 83 0 l 369 0 l 369 475 l 646 0 l 924 0 l 924 958 l 638 958 l 638 483 l 361 958 l 83 958 z m 363 986 l 585 986 l 703 1208 l 432 1208 z "},"Ň":{"ha":1007,"x_min":0,"x_max":0,"o":"m 83 0 l 369 0 l 369 475 l 646 0 l 924 0 l 924 958 l 638 958 l 638 483 l 361 958 l 83 958 z m 197 1208 l 344 986 l 664 986 l 811 1208 l 554 1208 l 504 1074 l 454 1208 z "},"Ṋ":{"ha":1007,"x_min":0,"x_max":0,"o":"m 83 0 l 369 0 l 369 475 l 646 0 l 924 0 l 924 958 l 638 958 l 638 483 l 361 958 l 83 958 z m 197 -250 l 454 -250 l 504 -115 l 554 -250 l 811 -250 l 664 -28 l 344 -28 z "},"Ņ":{"ha":1007,"x_min":0,"x_max":0,"o":"m 83 0 l 369 0 l 369 475 l 646 0 l 924 0 l 924 958 l 638 958 l 638 483 l 361 958 l 83 958 z m 369 -115 b 468 -201 369 -162 399 -197 b 378 -247 458 -225 429 -239 l 386 -324 b 643 -139 556 -314 643 -243 b 501 -19 643 -61 594 -19 b 369 -115 417 -19 369 -54 z "},"Ṅ":{"ha":1007,"x_min":0,"x_max":0,"o":"m 83 0 l 369 0 l 369 475 l 646 0 l 924 0 l 924 958 l 638 958 l 638 483 l 361 958 l 83 958 z m 368 1072 b 507 963 368 997 414 963 b 643 1072 597 963 643 997 b 507 1185 643 1147 597 1185 b 368 1072 414 1185 368 1147 z "},"Ṇ":{"ha":1007,"x_min":0,"x_max":0,"o":"m 83 0 l 369 0 l 369 475 l 646 0 l 924 0 l 924 958 l 638 958 l 638 483 l 361 958 l 83 958 z m 364 -156 b 503 -265 364 -231 410 -265 b 639 -156 593 -265 639 -231 b 503 -43 639 -81 593 -43 b 364 -156 410 -43 364 -81 z "},"Ṉ":{"ha":1007,"x_min":0,"x_max":0,"o":"m 83 0 l 369 0 l 369 475 l 646 0 l 924 0 l 924 958 l 638 958 l 638 483 l 361 958 l 83 958 z m 268 -250 l 740 -250 l 740 -56 l 268 -56 z "},"Ñ":{"ha":1007,"x_min":0,"x_max":0,"o":"m 83 0 l 369 0 l 369 475 l 646 0 l 924 0 l 924 958 l 638 958 l 638 483 l 361 958 l 83 958 z m 247 1067 l 294 1001 b 379 1047 322 1031 347 1047 b 617 985 444 1047 524 985 b 761 1142 689 985 754 1046 l 714 1210 b 629 1161 683 1176 658 1161 b 392 1225 564 1161 485 1225 b 247 1067 318 1225 265 1178 z "},"Ŋ":{"ha":1007,"x_min":0,"x_max":0,"o":"m 83 0 l 369 0 l 369 475 l 646 0 l 654 0 b 638 -76 654 -37 653 -60 b 571 -97 626 -90 606 -97 b 528 -94 558 -97 544 -96 l 510 -300 b 663 -317 558 -310 608 -317 b 924 0 853 -317 922 -232 l 924 6 l 924 958 l 638 958 l 638 483 l 361 958 l 83 958 z "},"O":{"ha":1031,"x_min":0,"x_max":0,"o":"m 517 -17 b 975 479 815 -17 975 146 b 517 975 975 813 815 975 b 57 479 218 975 57 813 b 517 -17 57 146 218 -17 z m 351 479 b 517 753 351 664 392 753 b 681 479 642 753 681 663 b 517 206 681 296 642 206 b 351 479 392 206 351 294 z "},"Ó":{"ha":1031,"x_min":0,"x_max":0,"o":"m 517 -17 b 975 479 815 -17 975 146 b 517 975 975 813 815 975 b 57 479 218 975 57 813 b 517 -17 57 146 218 -17 z m 351 479 b 517 753 351 664 392 753 b 681 479 642 753 681 663 b 517 206 681 296 642 206 b 351 479 392 206 351 294 z m 374 1000 l 596 1000 l 714 1222 l 443 1222 z "},"Ǒ":{"ha":1031,"x_min":0,"x_max":0,"o":"m 517 -17 b 975 479 815 -17 975 146 b 517 975 975 813 815 975 b 57 479 218 975 57 813 b 517 -17 57 146 218 -17 z m 208 1222 l 356 1000 l 675 1000 l 822 1222 l 565 1222 l 515 1088 l 465 1222 z m 351 479 b 517 753 351 664 392 753 b 681 479 642 753 681 663 b 517 206 681 296 642 206 b 351 479 392 206 351 294 z "},"Ô":{"ha":1031,"x_min":0,"x_max":0,"o":"m 517 -17 b 975 479 815 -17 975 146 b 517 975 975 813 815 975 b 57 479 218 975 57 813 b 517 -17 57 146 218 -17 z m 208 1000 l 465 1000 l 515 1135 l 565 1000 l 822 1000 l 675 1222 l 356 1222 z m 351 479 b 517 753 351 664 392 753 b 681 479 642 753 681 663 b 517 206 681 296 642 206 b 351 479 392 206 351 294 z "},"Ố":{"ha":1031,"x_min":0,"x_max":0,"o":"m 517 -17 b 975 479 815 -17 975 146 b 517 975 975 813 815 975 b 57 479 218 975 57 813 b 517 -17 57 146 218 -17 z m 208 1000 l 465 1000 l 515 1135 l 565 1000 l 822 1000 l 675 1222 l 613 1222 l 714 1371 l 443 1371 l 383 1222 l 356 1222 z m 351 479 b 517 753 351 664 392 753 b 681 479 642 753 681 663 b 517 206 681 296 642 206 b 351 479 392 206 351 294 z "},"Ộ":{"ha":1031,"x_min":0,"x_max":0,"o":"m 517 -17 b 975 479 815 -17 975 146 b 517 975 975 813 815 975 b 57 479 218 975 57 813 b 517 -17 57 146 218 -17 z m 208 1000 l 465 1000 l 515 1135 l 565 1000 l 822 1000 l 675 1222 l 356 1222 z m 351 479 b 517 753 351 664 392 753 b 681 479 642 753 681 663 b 517 206 681 296 642 206 b 351 479 392 206 351 294 z m 375 -156 b 514 -265 375 -231 421 -265 b 650 -156 604 -265 650 -231 b 514 -43 650 -81 604 -43 b 375 -156 421 -43 375 -81 z "},"Ồ":{"ha":1031,"x_min":0,"x_max":0,"o":"m 517 -17 b 975 479 815 -17 975 146 b 517 975 975 813 815 975 b 57 479 218 975 57 813 b 517 -17 57 146 218 -17 z m 208 1000 l 465 1000 l 515 1135 l 565 1000 l 822 1000 l 675 1222 l 633 1222 l 575 1376 l 304 1376 l 406 1222 l 356 1222 z m 351 479 b 517 753 351 664 392 753 b 681 479 642 753 681 663 b 517 206 681 296 642 206 b 351 479 392 206 351 294 z "},"Ổ":{"ha":1031,"x_min":0,"x_max":0,"o":"m 517 -17 b 975 479 815 -17 975 146 b 517 975 975 813 815 975 b 57 479 218 975 57 813 b 517 -17 57 146 218 -17 z m 208 1000 l 465 1000 l 515 1135 l 565 1000 l 822 1000 l 675 1222 l 550 1222 b 654 1379 619 1264 654 1324 b 442 1526 654 1457 583 1526 l 375 1368 b 456 1300 435 1340 456 1322 b 417 1222 456 1282 443 1263 l 356 1222 z m 351 479 b 517 753 351 664 392 753 b 681 479 642 753 681 663 b 517 206 681 296 642 206 b 351 479 392 206 351 294 z "},"Ỗ":{"ha":1031,"x_min":0,"x_max":0,"o":"m 517 -17 b 975 479 815 -17 975 146 b 517 975 975 813 815 975 b 57 479 218 975 57 813 b 517 -17 57 146 218 -17 z m 200 1000 l 457 1000 l 507 1135 l 557 1000 l 814 1000 l 667 1222 b 740 1363 706 1247 736 1296 l 697 1431 b 619 1382 669 1397 647 1382 b 404 1446 561 1382 489 1446 b 274 1288 338 1446 290 1399 l 317 1222 b 393 1268 342 1251 365 1268 b 528 1222 432 1268 478 1240 l 347 1222 z m 351 479 b 517 753 351 664 392 753 b 681 479 642 753 681 663 b 517 206 681 296 642 206 b 351 479 392 206 351 294 z "},"Ö":{"ha":1031,"x_min":0,"x_max":0,"o":"m 517 -17 b 975 479 815 -17 975 146 b 517 975 975 813 815 975 b 57 479 218 975 57 813 b 517 -17 57 146 218 -17 z m 219 1093 b 358 983 219 1018 267 983 b 494 1093 449 983 494 1018 b 358 1206 494 1168 449 1206 b 219 1093 267 1206 219 1168 z m 351 479 b 517 753 351 664 392 753 b 681 479 642 753 681 663 b 517 206 681 296 642 206 b 351 479 392 206 351 294 z m 536 1093 b 675 983 536 1018 582 983 b 811 1093 765 983 811 1018 b 675 1206 811 1168 765 1206 b 536 1093 582 1206 536 1168 z "},"Ȫ":{"ha":1031,"x_min":0,"x_max":0,"o":"m 517 -17 b 975 479 815 -17 975 146 b 517 975 975 813 815 975 b 57 479 218 975 57 813 b 517 -17 57 146 218 -17 z m 219 1093 b 358 983 219 1018 267 983 b 494 1093 449 983 494 1018 b 358 1206 494 1168 449 1206 b 219 1093 267 1206 219 1168 z m 283 1226 l 756 1226 l 756 1400 l 283 1400 z m 351 479 b 517 753 351 664 392 753 b 681 479 642 753 681 663 b 517 206 681 296 642 206 b 351 479 392 206 351 294 z m 536 1093 b 675 983 536 1018 582 983 b 811 1093 765 983 811 1018 b 675 1206 811 1168 765 1206 b 536 1093 582 1206 536 1168 z "},"Ọ":{"ha":1031,"x_min":0,"x_max":0,"o":"m 517 -17 b 975 479 815 -17 975 146 b 517 975 975 813 815 975 b 57 479 218 975 57 813 b 517 -17 57 146 218 -17 z m 351 479 b 517 753 351 664 392 753 b 681 479 642 753 681 663 b 517 206 681 296 642 206 b 351 479 392 206 351 294 z m 375 -156 b 514 -265 375 -231 421 -265 b 650 -156 604 -265 650 -231 b 514 -43 650 -81 604 -43 b 375 -156 421 -43 375 -81 z "},"Ò":{"ha":1031,"x_min":0,"x_max":0,"o":"m 517 -17 b 975 479 815 -17 975 146 b 517 975 975 813 815 975 b 57 479 218 975 57 813 b 517 -17 57 146 218 -17 z m 304 1222 l 421 1000 l 643 1000 l 575 1222 z m 351 479 b 517 753 351 664 392 753 b 681 479 642 753 681 663 b 517 206 681 296 642 206 b 351 479 392 206 351 294 z "},"Ỏ":{"ha":1031,"x_min":0,"x_max":0,"o":"m 517 -17 b 975 479 815 -17 975 146 b 517 975 975 813 815 975 b 57 479 218 975 57 813 b 517 -17 57 146 218 -17 z m 351 479 b 517 753 351 664 392 753 b 681 479 642 753 681 663 b 517 206 681 296 642 206 b 351 479 392 206 351 294 z m 375 1161 b 456 1093 435 1133 456 1115 b 414 1011 456 1075 442 1054 l 458 976 b 654 1172 589 1013 654 1096 b 442 1319 654 1250 583 1319 z "},"Ơ":{"ha":1031,"x_min":0,"x_max":0,"o":"m 517 -17 b 975 479 815 -17 975 146 b 929 740 975 583 960 669 b 1135 789 1021 718 1096 742 b 1067 1039 1185 849 1175 947 l 914 960 b 932 856 942 900 946 874 b 878 829 924 846 907 839 b 517 975 800 926 679 975 b 57 479 218 975 57 813 b 517 -17 57 146 218 -17 z m 351 479 b 517 753 351 664 392 753 b 681 479 642 753 681 663 b 517 206 681 296 642 206 b 351 479 392 206 351 294 z "},"Ớ":{"ha":1031,"x_min":0,"x_max":0,"o":"m 517 -17 b 975 479 815 -17 975 146 b 929 740 975 583 960 669 b 1135 789 1021 718 1096 742 b 1067 1039 1185 849 1175 947 l 914 960 b 932 856 942 900 946 874 b 878 829 924 846 907 839 b 517 975 800 926 679 975 b 57 479 218 975 57 813 b 517 -17 57 146 218 -17 z m 351 479 b 517 753 351 664 392 753 b 681 479 642 753 681 663 b 517 206 681 296 642 206 b 351 479 392 206 351 294 z m 374 1000 l 596 1000 l 714 1222 l 443 1222 z "},"Ợ":{"ha":1031,"x_min":0,"x_max":0,"o":"m 517 -17 b 975 479 815 -17 975 146 b 929 740 975 583 960 669 b 1135 789 1021 718 1096 742 b 1067 1039 1185 849 1175 947 l 914 960 b 932 856 942 900 946 874 b 878 829 924 846 907 839 b 517 975 800 926 679 975 b 57 479 218 975 57 813 b 517 -17 57 146 218 -17 z m 351 479 b 517 753 351 664 392 753 b 681 479 642 753 681 663 b 517 206 681 296 642 206 b 351 479 392 206 351 294 z m 375 -156 b 514 -265 375 -231 421 -265 b 650 -156 604 -265 650 -231 b 514 -43 650 -81 604 -43 b 375 -156 421 -43 375 -81 z "},"Ờ":{"ha":1031,"x_min":0,"x_max":0,"o":"m 517 -17 b 975 479 815 -17 975 146 b 929 740 975 583 960 669 b 1135 789 1021 718 1096 742 b 1067 1039 1185 849 1175 947 l 914 960 b 932 856 942 900 946 874 b 878 829 924 846 907 839 b 517 975 800 926 679 975 b 57 479 218 975 57 813 b 517 -17 57 146 218 -17 z m 304 1222 l 421 1000 l 643 1000 l 575 1222 z m 351 479 b 517 753 351 664 392 753 b 681 479 642 753 681 663 b 517 206 681 296 642 206 b 351 479 392 206 351 294 z "},"Ở":{"ha":1031,"x_min":0,"x_max":0,"o":"m 517 -17 b 975 479 815 -17 975 146 b 929 740 975 583 960 669 b 1135 789 1021 718 1096 742 b 1067 1039 1185 849 1175 947 l 914 960 b 932 856 942 900 946 874 b 878 829 924 846 907 839 b 517 975 800 926 679 975 b 57 479 218 975 57 813 b 517 -17 57 146 218 -17 z m 351 479 b 517 753 351 664 392 753 b 681 479 642 753 681 663 b 517 206 681 296 642 206 b 351 479 392 206 351 294 z m 375 1161 b 456 1093 435 1133 456 1115 b 414 1011 456 1075 442 1054 l 458 976 b 654 1172 589 1013 654 1096 b 442 1319 654 1250 583 1319 z "},"Ỡ":{"ha":1031,"x_min":0,"x_max":0,"o":"m 517 -17 b 975 479 815 -17 975 146 b 929 740 975 583 960 669 b 1135 789 1021 718 1096 742 b 1067 1039 1185 849 1175 947 l 914 960 b 932 856 942 900 946 874 b 878 829 924 846 907 839 b 517 975 800 926 679 975 b 57 479 218 975 57 813 b 517 -17 57 146 218 -17 z m 258 1081 l 306 1015 b 390 1061 333 1044 358 1061 b 628 999 456 1061 535 999 b 772 1156 700 999 765 1060 l 725 1224 b 640 1175 694 1190 669 1175 b 403 1239 575 1175 496 1239 b 258 1081 329 1239 276 1192 z m 351 479 b 517 753 351 664 392 753 b 681 479 642 753 681 663 b 517 206 681 296 642 206 b 351 479 392 206 351 294 z "},"Ő":{"ha":1031,"x_min":0,"x_max":0,"o":"m 517 -17 b 975 479 815 -17 975 146 b 517 975 975 813 815 975 b 57 479 218 975 57 813 b 517 -17 57 146 218 -17 z m 221 1014 l 443 1014 l 560 1236 l 289 1236 z m 351 479 b 517 753 351 664 392 753 b 681 479 642 753 681 663 b 517 206 681 296 642 206 b 351 479 392 206 351 294 z m 526 1014 l 749 1014 l 865 1236 l 594 1236 z "},"Ō":{"ha":1031,"x_min":0,"x_max":0,"o":"m 517 -17 b 975 479 815 -17 975 146 b 517 975 975 813 815 975 b 57 479 218 975 57 813 b 517 -17 57 146 218 -17 z m 283 1010 l 756 1010 l 756 1183 l 283 1183 z m 351 479 b 517 753 351 664 392 753 b 681 479 642 753 681 663 b 517 206 681 296 642 206 b 351 479 392 206 351 294 z "},"Ṓ":{"ha":1031,"x_min":0,"x_max":0,"o":"m 517 -17 b 975 479 815 -17 975 146 b 517 975 975 813 815 975 b 57 479 218 975 57 813 b 517 -17 57 146 218 -17 z m 283 1010 l 756 1010 l 756 1183 l 283 1183 z m 351 479 b 517 753 351 664 392 753 b 681 479 642 753 681 663 b 517 206 681 296 642 206 b 351 479 392 206 351 294 z m 374 1218 l 596 1218 l 714 1440 l 443 1440 z "},"Ṑ":{"ha":1031,"x_min":0,"x_max":0,"o":"m 517 -17 b 975 479 815 -17 975 146 b 517 975 975 813 815 975 b 57 479 218 975 57 813 b 517 -17 57 146 218 -17 z m 283 1010 l 756 1010 l 756 1183 l 283 1183 z m 304 1440 l 421 1218 l 643 1218 l 575 1440 z m 351 479 b 517 753 351 664 392 753 b 681 479 642 753 681 663 b 517 206 681 296 642 206 b 351 479 392 206 351 294 z "},"Ɔ":{"ha":835,"x_min":0,"x_max":0,"o":"m 317 -17 b 778 479 622 -17 778 147 b 318 975 778 811 622 975 b 43 940 228 975 113 960 l 68 708 b 286 753 110 719 189 753 b 483 479 428 753 483 689 b 285 206 483 269 428 206 b 68 249 188 206 110 236 l 43 18 b 317 -17 113 -1 222 -17 z "},"Ø":{"ha":1031,"x_min":0,"x_max":0,"o":"m 517 -17 b 975 479 815 -17 975 146 b 803 900 975 682 915 822 l 833 982 l 585 982 l 581 972 b 517 975 560 974 539 975 b 57 479 218 975 57 813 b 236 56 57 274 118 132 l 207 -22 l 454 -22 l 457 -14 b 517 -17 476 -15 496 -17 z m 351 479 b 499 753 351 654 388 743 l 357 376 b 351 479 353 407 351 440 z m 540 207 l 676 567 b 681 479 679 540 681 511 b 540 207 681 308 647 218 z "},"Ǿ":{"ha":1031,"x_min":0,"x_max":0,"o":"m 517 -17 b 975 479 815 -17 975 146 b 803 900 975 682 915 822 l 833 982 l 585 982 l 581 972 b 517 975 560 974 539 975 b 57 479 218 975 57 813 b 236 56 57 274 118 132 l 207 -22 l 454 -22 l 457 -14 b 517 -17 476 -15 496 -17 z m 351 479 b 499 753 351 654 388 743 l 357 376 b 351 479 353 407 351 440 z m 374 1000 l 596 1000 l 714 1222 l 443 1222 z m 540 207 l 676 567 b 681 479 679 540 681 511 b 540 207 681 308 647 218 z "},"Õ":{"ha":1031,"x_min":0,"x_max":0,"o":"m 517 -17 b 975 479 815 -17 975 146 b 517 975 975 813 815 975 b 57 479 218 975 57 813 b 517 -17 57 146 218 -17 z m 258 1081 l 306 1015 b 390 1061 333 1044 358 1061 b 628 999 456 1061 535 999 b 772 1156 700 999 765 1060 l 725 1224 b 640 1175 694 1190 669 1175 b 403 1239 575 1175 496 1239 b 258 1081 329 1239 276 1192 z m 351 479 b 517 753 351 664 392 753 b 681 479 642 753 681 663 b 517 206 681 296 642 206 b 351 479 392 206 351 294 z "},"Œ":{"ha":1414,"x_min":0,"x_max":0,"o":"m 517 -17 b 692 7 582 -17 640 -8 l 692 0 l 1372 0 l 1372 236 l 978 236 l 978 375 l 1311 375 l 1311 611 l 978 611 l 978 722 l 1372 722 l 1372 958 l 692 958 l 692 951 b 517 975 640 967 582 975 b 57 479 218 975 57 813 b 517 -17 57 146 218 -17 z m 351 479 b 517 753 351 664 392 753 b 681 479 642 753 681 663 b 517 206 681 296 642 206 b 351 479 392 206 351 294 z "},"P":{"ha":915,"x_min":0,"x_max":0,"o":"m 85 940 l 85 0 l 371 0 l 371 278 b 463 275 406 276 439 275 b 874 625 728 275 874 399 b 439 975 874 854 724 975 b 85 940 340 975 213 961 z m 371 508 l 371 742 b 460 753 401 750 438 753 b 579 625 543 753 579 715 b 460 497 579 536 543 497 b 371 508 439 497 401 500 z "},"Þ":{"ha":928,"x_min":0,"x_max":0,"o":"m 83 0 l 369 0 l 369 132 b 461 129 404 131 438 129 b 872 479 739 129 872 243 b 461 829 872 715 739 829 b 369 826 438 829 404 828 l 369 958 l 83 958 z m 369 363 l 369 596 b 458 607 400 604 436 607 b 578 479 542 607 578 569 b 458 351 578 389 542 351 b 369 363 436 351 400 354 z "},"Q":{"ha":1031,"x_min":0,"x_max":0,"o":"m 731 -308 l 844 -40 b 592 -12 761 -54 611 -68 b 975 479 842 14 975 175 b 515 975 975 813 814 975 b 56 479 217 975 56 813 b 443 -14 56 174 190 11 b 731 -308 338 -244 614 -296 z m 351 479 b 515 753 351 664 390 753 b 679 479 640 753 679 664 b 515 206 679 294 640 206 b 351 479 390 206 351 294 z "},"R":{"ha":929,"x_min":0,"x_max":0,"o":"m 83 940 l 83 0 l 369 0 l 369 322 b 433 319 393 321 413 319 l 582 0 l 915 0 l 701 361 b 872 639 815 400 872 485 b 438 975 872 868 722 975 b 83 940 340 975 211 961 z m 369 536 l 369 742 b 458 753 400 750 436 753 b 578 639 542 753 578 715 b 458 525 578 563 540 525 b 369 536 436 525 400 528 z "},"Ŕ":{"ha":929,"x_min":0,"x_max":0,"o":"m 83 940 l 83 0 l 369 0 l 369 322 b 433 319 393 321 413 319 l 582 0 l 915 0 l 701 361 b 872 639 815 400 872 485 b 438 975 872 868 722 975 b 83 940 340 975 211 961 z m 324 1000 l 546 1000 l 664 1222 l 393 1222 z m 369 536 l 369 742 b 458 753 400 750 436 753 b 578 639 542 753 578 715 b 458 525 578 563 540 525 b 369 536 436 525 400 528 z "},"Ř":{"ha":929,"x_min":0,"x_max":0,"o":"m 83 940 l 83 0 l 369 0 l 369 322 b 433 319 393 321 413 319 l 582 0 l 915 0 l 701 361 b 872 639 815 400 872 485 b 438 975 872 868 722 975 b 83 940 340 975 211 961 z m 158 1222 l 306 1000 l 625 1000 l 772 1222 l 515 1222 l 465 1088 l 415 1222 z m 369 536 l 369 742 b 458 753 400 750 436 753 b 578 639 542 753 578 715 b 458 525 578 563 540 525 b 369 536 436 525 400 528 z "},"Ŗ":{"ha":929,"x_min":0,"x_max":0,"o":"m 83 940 l 83 0 l 369 0 l 369 322 b 433 319 393 321 413 319 l 582 0 l 915 0 l 701 361 b 872 639 815 400 872 485 b 438 975 872 868 722 975 b 83 940 340 975 211 961 z m 331 -115 b 429 -201 331 -162 360 -197 b 339 -247 419 -225 390 -239 l 347 -324 b 604 -139 517 -314 604 -243 b 463 -19 604 -61 556 -19 b 331 -115 378 -19 331 -54 z m 369 536 l 369 742 b 458 753 400 750 436 753 b 578 639 542 753 578 715 b 458 525 578 563 540 525 b 369 536 436 525 400 528 z "},"Ṝ":{"ha":929,"x_min":0,"x_max":0,"o":"m 83 940 l 83 0 l 369 0 l 369 322 b 433 319 393 321 413 319 l 582 0 l 915 0 l 701 361 b 872 639 815 400 872 485 b 438 975 872 868 722 975 b 83 940 340 975 211 961 z m 233 1010 l 706 1010 l 706 1183 l 233 1183 z m 325 -156 b 464 -265 325 -231 371 -265 b 600 -156 554 -265 600 -231 b 464 -43 600 -81 554 -43 b 325 -156 371 -43 325 -81 z m 369 536 l 369 742 b 458 753 400 750 436 753 b 578 639 542 753 578 715 b 458 525 578 563 540 525 b 369 536 436 525 400 528 z "},"Ṟ":{"ha":929,"x_min":0,"x_max":0,"o":"m 83 940 l 83 0 l 369 0 l 369 322 b 433 319 393 321 413 319 l 582 0 l 915 0 l 701 361 b 872 639 815 400 872 485 b 438 975 872 868 722 975 b 83 940 340 975 211 961 z m 229 -250 l 701 -250 l 701 -56 l 229 -56 z m 369 536 l 369 742 b 458 753 400 750 436 753 b 578 639 542 753 578 715 b 458 525 578 563 540 525 b 369 536 436 525 400 528 z "},"S":{"ha":811,"x_min":0,"x_max":0,"o":"m 388 -17 b 768 300 632 -17 768 96 b 514 586 768 465 692 546 b 357 681 429 606 357 617 b 469 753 357 728 396 753 b 703 708 561 753 661 719 l 729 940 b 442 975 657 961 538 975 b 64 658 192 975 64 868 b 326 371 64 510 154 410 b 475 278 407 353 475 340 b 357 206 475 231 435 206 b 53 285 222 206 94 268 l 28 53 b 388 -17 99 31 215 -17 z "},"Ś":{"ha":811,"x_min":0,"x_max":0,"o":"m 388 -17 b 768 300 632 -17 768 96 b 514 586 768 465 692 546 b 357 681 429 606 357 617 b 469 753 357 728 396 753 b 703 708 561 753 661 719 l 729 940 b 442 975 657 961 538 975 b 64 658 192 975 64 868 b 326 371 64 510 154 410 b 475 278 407 353 475 340 b 357 206 475 231 435 206 b 53 285 222 206 94 268 l 28 53 b 388 -17 99 31 215 -17 z m 264 1000 l 486 1000 l 604 1222 l 333 1222 z "},"Ꞌ":{"ha":383,"x_min":0,"x_max":0,"o":"m 78 347 l 306 347 l 335 986 l 49 986 z "},"Š":{"ha":811,"x_min":0,"x_max":0,"o":"m 388 -17 b 768 300 632 -17 768 96 b 514 586 768 465 692 546 b 357 681 429 606 357 617 b 469 753 357 728 396 753 b 703 708 561 753 661 719 l 729 940 b 442 975 657 961 538 975 b 64 658 192 975 64 868 b 326 371 64 510 154 410 b 475 278 407 353 475 340 b 357 206 475 231 435 206 b 53 285 222 206 94 268 l 28 53 b 388 -17 99 31 215 -17 z m 99 1222 l 246 1000 l 565 1000 l 713 1222 l 456 1222 l 406 1088 l 356 1222 z "},"Ş":{"ha":811,"x_min":0,"x_max":0,"o":"m 243 -165 l 310 -324 b 535 -158 461 -324 535 -243 b 450 -14 535 -106 506 -51 b 768 300 656 4 768 114 b 514 586 768 465 692 546 b 357 681 429 606 357 617 b 469 753 357 728 396 753 b 703 708 561 753 661 719 l 729 940 b 442 975 657 961 538 975 b 64 658 192 975 64 868 b 326 371 64 510 154 410 b 475 278 407 353 475 340 b 357 206 475 231 435 206 b 53 285 222 206 94 268 l 28 53 b 340 -15 92 33 193 -8 b 349 -60 346 -32 349 -47 b 243 -165 349 -112 307 -136 z "},"Ŝ":{"ha":811,"x_min":0,"x_max":0,"o":"m 388 -17 b 768 300 632 -17 768 96 b 514 586 768 465 692 546 b 357 681 429 606 357 617 b 469 753 357 728 396 753 b 703 708 561 753 661 719 l 729 940 b 442 975 657 961 538 975 b 64 658 192 975 64 868 b 326 371 64 510 154 410 b 475 278 407 353 475 340 b 357 206 475 231 435 206 b 53 285 222 206 94 268 l 28 53 b 388 -17 99 31 215 -17 z m 99 1000 l 356 1000 l 406 1135 l 456 1000 l 713 1000 l 565 1222 l 246 1222 z "},"Ș":{"ha":811,"x_min":0,"x_max":0,"o":"m 388 -17 b 768 300 632 -17 768 96 b 514 586 768 465 692 546 b 357 681 429 606 357 617 b 469 753 357 728 396 753 b 703 708 561 753 661 719 l 729 940 b 442 975 657 961 538 975 b 64 658 192 975 64 868 b 326 371 64 510 154 410 b 475 278 407 353 475 340 b 357 206 475 231 435 206 b 53 285 222 206 94 268 l 28 53 b 388 -17 99 31 215 -17 z m 254 -131 b 353 -217 254 -178 283 -212 b 263 -262 343 -240 314 -254 l 271 -339 b 528 -154 440 -329 528 -258 b 386 -35 528 -76 479 -35 b 254 -131 301 -35 254 -69 z "},"Ṣ":{"ha":811,"x_min":0,"x_max":0,"o":"m 388 -17 b 768 300 632 -17 768 96 b 514 586 768 465 692 546 b 357 681 429 606 357 617 b 469 753 357 728 396 753 b 703 708 561 753 661 719 l 729 940 b 442 975 657 961 538 975 b 64 658 192 975 64 868 b 326 371 64 510 154 410 b 475 278 407 353 475 340 b 357 206 475 231 435 206 b 53 285 222 206 94 268 l 28 53 b 388 -17 99 31 215 -17 z m 249 -171 b 388 -281 249 -246 294 -281 b 524 -171 478 -281 524 -246 b 388 -58 524 -96 478 -58 b 249 -171 294 -58 249 -96 z "},"ẞ":{"ha":907,"x_min":0,"x_max":0,"o":"m 413 178 l 438 -44 b 879 293 792 -44 879 107 b 690 575 879 479 792 565 b 815 756 772 593 815 658 b 451 1003 815 917 688 1003 b 93 790 224 1003 93 925 b 113 694 93 761 100 729 l 1 694 l 1 472 l 85 472 l 85 0 l 354 0 l 356 685 b 451 785 356 757 382 785 b 544 724 521 785 544 763 b 413 654 544 665 496 654 l 413 472 b 585 325 538 472 585 415 b 413 178 585 235 538 178 z "},"Ə":{"ha":751,"x_min":0,"x_max":0,"o":"m 369 -17 b 696 349 574 -17 696 99 l 696 669 b 344 1007 696 903 588 1007 b 81 972 233 1007 147 986 l 106 742 b 314 785 139 753 239 785 b 410 671 385 785 410 756 b 231 643 342 669 282 661 b 56 331 121 603 56 511 b 369 -17 56 99 165 -17 z m 328 294 b 361 435 328 367 340 410 b 410 461 375 451 392 458 l 410 349 b 369 192 410 233 400 192 b 328 294 339 192 328 228 z "},"T":{"ha":869,"x_min":0,"x_max":0,"o":"m 292 0 l 578 0 l 578 722 l 828 722 l 828 958 l 42 958 l 42 722 l 292 722 z "},"Ŧ":{"ha":869,"x_min":0,"x_max":0,"o":"m 292 0 l 578 0 l 578 319 l 678 319 l 678 514 l 578 514 l 578 722 l 828 722 l 828 958 l 42 958 l 42 722 l 292 722 l 292 514 l 192 514 l 192 319 l 292 319 z "},"Ť":{"ha":869,"x_min":0,"x_max":0,"o":"m 292 0 l 578 0 l 578 722 l 828 722 l 828 958 l 42 958 l 42 722 l 292 722 z m 128 1222 l 275 1000 l 594 1000 l 742 1222 l 485 1222 l 435 1088 l 385 1222 z "},"Ţ":{"ha":869,"x_min":0,"x_max":0,"o":"m 292 0 l 386 0 b 394 -44 392 -17 394 -32 b 289 -150 394 -97 353 -121 l 356 -308 b 581 -143 507 -308 581 -228 b 497 0 581 -90 553 -37 l 578 0 l 578 722 l 828 722 l 828 958 l 42 958 l 42 722 l 292 722 z "},"Ṱ":{"ha":869,"x_min":0,"x_max":0,"o":"m 292 0 l 578 0 l 578 722 l 828 722 l 828 958 l 42 958 l 42 722 l 292 722 z m 128 -250 l 385 -250 l 435 -115 l 485 -250 l 742 -250 l 594 -28 l 275 -28 z "},"Ț":{"ha":869,"x_min":0,"x_max":0,"o":"m 292 0 l 578 0 l 578 722 l 828 722 l 828 958 l 42 958 l 42 722 l 292 722 z m 300 -115 b 399 -201 300 -162 329 -197 b 308 -247 389 -225 360 -239 l 317 -324 b 574 -139 486 -314 574 -243 b 432 -19 574 -61 525 -19 b 300 -115 347 -19 300 -54 z "},"Ṭ":{"ha":869,"x_min":0,"x_max":0,"o":"m 292 0 l 578 0 l 578 722 l 828 722 l 828 958 l 42 958 l 42 722 l 292 722 z m 294 -156 b 433 -265 294 -231 340 -265 b 569 -156 524 -265 569 -231 b 433 -43 569 -81 524 -43 b 294 -156 340 -43 294 -81 z "},"Ṯ":{"ha":869,"x_min":0,"x_max":0,"o":"m 292 0 l 578 0 l 578 722 l 828 722 l 828 958 l 42 958 l 42 722 l 292 722 z m 199 -250 l 671 -250 l 671 -56 l 199 -56 z "},"U":{"ha":1007,"x_min":0,"x_max":0,"o":"m 503 -17 b 922 431 806 -17 922 89 l 922 958 l 636 958 l 636 417 b 503 206 636 254 601 206 b 371 417 404 206 371 256 l 371 958 l 85 958 l 85 431 b 503 -17 85 89 200 -17 z "},"Ú":{"ha":1007,"x_min":0,"x_max":0,"o":"m 503 -17 b 922 431 806 -17 922 89 l 922 958 l 636 958 l 636 417 b 503 206 636 254 601 206 b 371 417 404 206 371 256 l 371 958 l 85 958 l 85 431 b 503 -17 85 89 200 -17 z m 361 1000 l 583 1000 l 701 1222 l 431 1222 z "},"Ŭ":{"ha":1007,"x_min":0,"x_max":0,"o":"m 503 -17 b 922 431 806 -17 922 89 l 922 958 l 636 958 l 636 417 b 503 206 636 254 601 206 b 371 417 404 206 371 256 l 371 958 l 85 958 l 85 431 b 503 -17 85 89 200 -17 z m 271 1192 b 504 986 271 1061 354 986 b 735 1192 654 986 735 1060 l 582 1193 b 504 1119 582 1143 557 1119 b 424 1193 450 1119 424 1143 z "},"Ǔ":{"ha":1007,"x_min":0,"x_max":0,"o":"m 503 -17 b 922 431 806 -17 922 89 l 922 958 l 636 958 l 636 417 b 503 206 636 254 601 206 b 371 417 404 206 371 256 l 371 958 l 85 958 l 85 431 b 503 -17 85 89 200 -17 z m 196 1222 l 343 1000 l 663 1000 l 810 1222 l 553 1222 l 503 1088 l 453 1222 z "},"Û":{"ha":1007,"x_min":0,"x_max":0,"o":"m 503 -17 b 922 431 806 -17 922 89 l 922 958 l 636 958 l 636 417 b 503 206 636 254 601 206 b 371 417 404 206 371 256 l 371 958 l 85 958 l 85 431 b 503 -17 85 89 200 -17 z m 196 1000 l 453 1000 l 503 1135 l 553 1000 l 810 1000 l 663 1222 l 343 1222 z "},"Ü":{"ha":1007,"x_min":0,"x_max":0,"o":"m 503 -17 b 922 431 806 -17 922 89 l 922 958 l 636 958 l 636 417 b 503 206 636 254 601 206 b 371 417 404 206 371 256 l 371 958 l 85 958 l 85 431 b 503 -17 85 89 200 -17 z m 207 1093 b 346 983 207 1018 254 983 b 482 1093 436 983 482 1018 b 346 1206 482 1168 436 1206 b 207 1093 254 1206 207 1168 z m 524 1093 b 663 983 524 1018 569 983 b 799 1093 753 983 799 1018 b 663 1206 799 1168 753 1206 b 524 1093 569 1206 524 1168 z "},"Ǘ":{"ha":1007,"x_min":0,"x_max":0,"o":"m 503 -17 b 922 431 806 -17 922 89 l 922 958 l 636 958 l 636 417 b 503 206 636 254 601 206 b 371 417 404 206 371 256 l 371 958 l 85 958 l 85 431 b 503 -17 85 89 200 -17 z m 207 1093 b 346 983 207 1018 254 983 b 482 1093 436 983 482 1018 b 346 1206 482 1168 436 1206 b 207 1093 254 1206 207 1168 z m 361 1217 l 583 1217 l 701 1439 l 431 1439 z m 524 1093 b 663 983 524 1018 569 983 b 799 1093 753 983 799 1018 b 663 1206 799 1168 753 1206 b 524 1093 569 1206 524 1168 z "},"Ǚ":{"ha":1007,"x_min":0,"x_max":0,"o":"m 503 -17 b 922 431 806 -17 922 89 l 922 958 l 636 958 l 636 417 b 503 206 636 254 601 206 b 371 417 404 206 371 256 l 371 958 l 85 958 l 85 431 b 503 -17 85 89 200 -17 z m 196 1439 l 343 1217 l 663 1217 l 810 1439 l 553 1439 l 503 1304 l 453 1439 z m 207 1093 b 346 983 207 1018 254 983 b 482 1093 436 983 482 1018 b 346 1206 482 1168 436 1206 b 207 1093 254 1206 207 1168 z m 524 1093 b 663 983 524 1018 569 983 b 799 1093 753 983 799 1018 b 663 1206 799 1168 753 1206 b 524 1093 569 1206 524 1168 z "},"Ǜ":{"ha":1007,"x_min":0,"x_max":0,"o":"m 503 -17 b 922 431 806 -17 922 89 l 922 958 l 636 958 l 636 417 b 503 206 636 254 601 206 b 371 417 404 206 371 256 l 371 958 l 85 958 l 85 431 b 503 -17 85 89 200 -17 z m 207 1093 b 346 983 207 1018 254 983 b 482 1093 436 983 482 1018 b 346 1206 482 1168 436 1206 b 207 1093 254 1206 207 1168 z m 292 1439 l 408 1217 l 631 1217 l 563 1439 z m 524 1093 b 663 983 524 1018 569 983 b 799 1093 753 983 799 1018 b 663 1206 799 1168 753 1206 b 524 1093 569 1206 524 1168 z "},"Ǖ":{"ha":1007,"x_min":0,"x_max":0,"o":"m 503 -17 b 922 431 806 -17 922 89 l 922 958 l 636 958 l 636 417 b 503 206 636 254 601 206 b 371 417 404 206 371 256 l 371 958 l 85 958 l 85 431 b 503 -17 85 89 200 -17 z m 207 1093 b 346 983 207 1018 254 983 b 482 1093 436 983 482 1018 b 346 1206 482 1168 436 1206 b 207 1093 254 1206 207 1168 z m 271 1226 l 743 1226 l 743 1400 l 271 1400 z m 524 1093 b 663 983 524 1018 569 983 b 799 1093 753 983 799 1018 b 663 1206 799 1168 753 1206 b 524 1093 569 1206 524 1168 z "},"Ụ":{"ha":1007,"x_min":0,"x_max":0,"o":"m 503 -17 b 922 431 806 -17 922 89 l 922 958 l 636 958 l 636 417 b 503 206 636 254 601 206 b 371 417 404 206 371 256 l 371 958 l 85 958 l 85 431 b 503 -17 85 89 200 -17 z m 363 -156 b 501 -265 363 -231 408 -265 b 638 -156 592 -265 638 -231 b 501 -43 638 -81 592 -43 b 363 -156 408 -43 363 -81 z "},"Ù":{"ha":1007,"x_min":0,"x_max":0,"o":"m 503 -17 b 922 431 806 -17 922 89 l 922 958 l 636 958 l 636 417 b 503 206 636 254 601 206 b 371 417 404 206 371 256 l 371 958 l 85 958 l 85 431 b 503 -17 85 89 200 -17 z m 292 1222 l 408 1000 l 631 1000 l 563 1222 z "},"Ủ":{"ha":1007,"x_min":0,"x_max":0,"o":"m 503 -17 b 922 431 806 -17 922 89 l 922 958 l 636 958 l 636 417 b 503 206 636 254 601 206 b 371 417 404 206 371 256 l 371 958 l 85 958 l 85 431 b 503 -17 85 89 200 -17 z m 363 1161 b 443 1093 422 1133 443 1115 b 401 1011 443 1075 429 1054 l 446 976 b 642 1172 576 1013 642 1096 b 429 1319 642 1250 571 1319 z "},"Ư":{"ha":1007,"x_min":0,"x_max":0,"o":"m 503 -17 b 922 431 806 -17 922 89 l 922 792 b 1181 822 1038 744 1135 767 b 1113 1072 1231 882 1221 981 l 960 993 b 978 889 988 933 992 907 b 922 863 969 879 953 872 l 922 958 l 636 958 l 636 417 b 503 206 636 254 601 206 b 371 417 404 206 371 256 l 371 958 l 85 958 l 85 431 b 503 -17 85 89 200 -17 z "},"Ứ":{"ha":1007,"x_min":0,"x_max":0,"o":"m 503 -17 b 922 431 806 -17 922 89 l 922 792 b 1181 822 1038 744 1135 767 b 1113 1072 1231 882 1221 981 l 960 993 b 978 889 988 933 992 907 b 922 863 969 879 953 872 l 922 958 l 636 958 l 636 417 b 503 206 636 254 601 206 b 371 417 404 206 371 256 l 371 958 l 85 958 l 85 431 b 503 -17 85 89 200 -17 z m 361 1000 l 583 1000 l 701 1222 l 431 1222 z "},"Ự":{"ha":1007,"x_min":0,"x_max":0,"o":"m 503 -17 b 922 431 806 -17 922 89 l 922 792 b 1181 822 1038 744 1135 767 b 1113 1072 1231 882 1221 981 l 960 993 b 978 889 988 933 992 907 b 922 863 969 879 953 872 l 922 958 l 636 958 l 636 417 b 503 206 636 254 601 206 b 371 417 404 206 371 256 l 371 958 l 85 958 l 85 431 b 503 -17 85 89 200 -17 z m 363 -156 b 501 -265 363 -231 408 -265 b 638 -156 592 -265 638 -231 b 501 -43 638 -81 592 -43 b 363 -156 408 -43 363 -81 z "},"Ừ":{"ha":1007,"x_min":0,"x_max":0,"o":"m 503 -17 b 922 431 806 -17 922 89 l 922 792 b 1181 822 1038 744 1135 767 b 1113 1072 1231 882 1221 981 l 960 993 b 978 889 988 933 992 907 b 922 863 969 879 953 872 l 922 958 l 636 958 l 636 417 b 503 206 636 254 601 206 b 371 417 404 206 371 256 l 371 958 l 85 958 l 85 431 b 503 -17 85 89 200 -17 z m 292 1222 l 408 1000 l 631 1000 l 563 1222 z "},"Ử":{"ha":1007,"x_min":0,"x_max":0,"o":"m 503 -17 b 922 431 806 -17 922 89 l 922 792 b 1181 822 1038 744 1135 767 b 1113 1072 1231 882 1221 981 l 960 993 b 978 889 988 933 992 907 b 922 863 969 879 953 872 l 922 958 l 636 958 l 636 417 b 503 206 636 254 601 206 b 371 417 404 206 371 256 l 371 958 l 85 958 l 85 431 b 503 -17 85 89 200 -17 z m 363 1161 b 443 1093 422 1133 443 1115 b 401 1011 443 1075 429 1054 l 446 976 b 642 1172 576 1013 642 1096 b 429 1319 642 1250 571 1319 z "},"Ữ":{"ha":1007,"x_min":0,"x_max":0,"o":"m 503 -17 b 922 431 806 -17 922 89 l 922 792 b 1181 822 1038 744 1135 767 b 1113 1072 1231 882 1221 981 l 960 993 b 978 889 988 933 992 907 b 922 863 969 879 953 872 l 922 958 l 636 958 l 636 417 b 503 206 636 254 601 206 b 371 417 404 206 371 256 l 371 958 l 85 958 l 85 431 b 503 -17 85 89 200 -17 z m 246 1081 l 293 1015 b 378 1061 321 1044 346 1061 b 615 999 443 1061 522 999 b 760 1156 688 999 753 1060 l 713 1224 b 628 1175 682 1190 657 1175 b 390 1239 563 1175 483 1239 b 246 1081 317 1239 264 1192 z "},"Ű":{"ha":1007,"x_min":0,"x_max":0,"o":"m 503 -17 b 922 431 806 -17 922 89 l 922 958 l 636 958 l 636 417 b 503 206 636 254 601 206 b 371 417 404 206 371 256 l 371 958 l 85 958 l 85 431 b 503 -17 85 89 200 -17 z m 208 1014 l 431 1014 l 547 1236 l 276 1236 z m 514 1014 l 736 1014 l 853 1236 l 582 1236 z "},"Ū":{"ha":1007,"x_min":0,"x_max":0,"o":"m 503 -17 b 922 431 806 -17 922 89 l 922 958 l 636 958 l 636 417 b 503 206 636 254 601 206 b 371 417 404 206 371 256 l 371 958 l 85 958 l 85 431 b 503 -17 85 89 200 -17 z m 271 1010 l 743 1010 l 743 1183 l 271 1183 z "},"Ų":{"ha":1007,"x_min":0,"x_max":0,"o":"m 581 -308 l 647 -150 b 567 -82 588 -122 567 -104 b 600 -12 567 -65 578 -47 b 922 431 831 11 922 128 l 922 958 l 636 958 l 636 417 b 503 206 636 254 601 206 b 371 417 404 206 371 256 l 371 958 l 85 958 l 85 431 b 454 -15 85 108 188 -4 b 368 -161 397 -57 368 -110 b 581 -308 368 -239 439 -308 z "},"Ů":{"ha":1007,"x_min":0,"x_max":0,"o":"m 503 -17 b 922 431 806 -17 922 89 l 922 958 l 681 958 b 704 1056 696 985 704 1017 b 504 1238 704 1172 633 1238 b 301 1056 375 1238 301 1171 b 326 958 301 1017 310 985 l 85 958 l 85 431 b 503 -17 85 89 200 -17 z m 371 417 l 371 913 b 504 879 404 890 449 879 b 636 911 558 879 603 890 l 636 417 b 503 206 636 254 601 206 b 371 417 404 206 371 256 z m 433 1057 b 504 1122 433 1100 458 1122 b 572 1057 549 1122 572 1100 b 504 993 572 1014 550 993 b 433 1057 457 993 433 1014 z "},"Ũ":{"ha":1007,"x_min":0,"x_max":0,"o":"m 503 -17 b 922 431 806 -17 922 89 l 922 958 l 636 958 l 636 417 b 503 206 636 254 601 206 b 371 417 404 206 371 256 l 371 958 l 85 958 l 85 431 b 503 -17 85 89 200 -17 z m 246 1081 l 293 1015 b 378 1061 321 1044 346 1061 b 615 999 443 1061 522 999 b 760 1156 688 999 753 1060 l 713 1224 b 628 1175 682 1190 657 1175 b 390 1239 563 1175 483 1239 b 246 1081 317 1239 264 1192 z "},"V":{"ha":992,"x_min":0,"x_max":0,"o":"m 319 0 l 672 0 l 978 958 l 658 958 l 496 308 l 333 958 l 14 958 z "},"Ʌ":{"ha":992,"x_min":0,"x_max":0,"o":"m 672 958 l 319 958 l 14 0 l 333 0 l 496 650 l 658 0 l 978 0 z "},"W":{"ha":1410,"x_min":0,"x_max":0,"o":"m 261 0 l 594 0 l 706 611 l 815 0 l 1149 0 l 1396 958 l 1063 958 l 963 336 l 867 958 l 547 958 l 446 338 l 347 958 l 14 958 z "},"Ẃ":{"ha":1410,"x_min":0,"x_max":0,"o":"m 261 0 l 594 0 l 706 611 l 815 0 l 1149 0 l 1396 958 l 1063 958 l 963 336 l 867 958 l 547 958 l 446 338 l 347 958 l 14 958 z m 564 1000 l 786 1000 l 904 1222 l 633 1222 z "},"Ŵ":{"ha":1410,"x_min":0,"x_max":0,"o":"m 261 0 l 594 0 l 706 611 l 815 0 l 1149 0 l 1396 958 l 1063 958 l 963 336 l 867 958 l 547 958 l 446 338 l 347 958 l 14 958 z m 399 1000 l 656 1000 l 706 1135 l 756 1000 l 1013 1000 l 865 1222 l 546 1222 z "},"Ẅ":{"ha":1410,"x_min":0,"x_max":0,"o":"m 261 0 l 594 0 l 706 611 l 815 0 l 1149 0 l 1396 958 l 1063 958 l 963 336 l 867 958 l 547 958 l 446 338 l 347 958 l 14 958 z m 410 1093 b 549 983 410 1018 457 983 b 685 1093 639 983 685 1018 b 549 1206 685 1168 639 1206 b 410 1093 457 1206 410 1168 z m 726 1093 b 865 983 726 1018 772 983 b 1001 1093 956 983 1001 1018 b 865 1206 1001 1168 956 1206 b 726 1093 772 1206 726 1168 z "},"Ẁ":{"ha":1410,"x_min":0,"x_max":0,"o":"m 261 0 l 594 0 l 706 611 l 815 0 l 1149 0 l 1396 958 l 1063 958 l 963 336 l 867 958 l 547 958 l 446 338 l 347 958 l 14 958 z m 494 1222 l 611 1000 l 833 1000 l 765 1222 z "},"X":{"ha":1013,"x_min":0,"x_max":0,"o":"m 15 0 l 371 0 l 507 331 l 643 0 l 999 0 l 728 499 l 985 958 l 638 958 l 507 661 l 376 958 l 29 958 l 286 499 z "},"Y":{"ha":989,"x_min":0,"x_max":0,"o":"m 351 0 l 638 0 l 638 313 l 975 958 l 642 958 l 494 585 l 347 958 l 14 958 l 351 313 z "},"Ý":{"ha":989,"x_min":0,"x_max":0,"o":"m 351 0 l 638 0 l 638 313 l 975 958 l 642 958 l 494 585 l 347 958 l 14 958 l 351 313 z m 353 1000 l 575 1000 l 693 1222 l 422 1222 z "},"Ŷ":{"ha":989,"x_min":0,"x_max":0,"o":"m 351 0 l 638 0 l 638 313 l 975 958 l 642 958 l 494 585 l 347 958 l 14 958 l 351 313 z m 188 1000 l 444 1000 l 494 1135 l 544 1000 l 801 1000 l 654 1222 l 335 1222 z "},"Ÿ":{"ha":989,"x_min":0,"x_max":0,"o":"m 351 0 l 638 0 l 638 313 l 975 958 l 642 958 l 494 585 l 347 958 l 14 958 l 351 313 z m 199 1093 b 338 983 199 1018 246 983 b 474 1093 428 983 474 1018 b 338 1206 474 1168 428 1206 b 199 1093 246 1206 199 1168 z m 515 1093 b 654 983 515 1018 561 983 b 790 1093 744 983 790 1018 b 654 1206 790 1168 744 1206 b 515 1093 561 1206 515 1168 z "},"Ẏ":{"ha":989,"x_min":0,"x_max":0,"o":"m 351 0 l 638 0 l 638 313 l 975 958 l 642 958 l 494 585 l 347 958 l 14 958 l 351 313 z m 358 1086 b 497 976 358 1011 404 976 b 633 1086 588 976 633 1011 b 497 1199 633 1161 588 1199 b 358 1086 404 1199 358 1161 z "},"Ỵ":{"ha":989,"x_min":0,"x_max":0,"o":"m 351 0 l 638 0 l 638 313 l 975 958 l 642 958 l 494 585 l 347 958 l 14 958 l 351 313 z m 354 -156 b 493 -265 354 -231 400 -265 b 629 -156 583 -265 629 -231 b 493 -43 629 -81 583 -43 b 354 -156 400 -43 354 -81 z "},"Ỳ":{"ha":989,"x_min":0,"x_max":0,"o":"m 351 0 l 638 0 l 638 313 l 975 958 l 642 958 l 494 585 l 347 958 l 14 958 l 351 313 z m 283 1222 l 400 1000 l 622 1000 l 554 1222 z "},"Ỷ":{"ha":989,"x_min":0,"x_max":0,"o":"m 351 0 l 638 0 l 638 313 l 975 958 l 642 958 l 494 585 l 347 958 l 14 958 l 351 313 z m 354 1161 b 435 1093 414 1133 435 1115 b 393 1011 435 1075 421 1054 l 438 976 b 633 1172 568 1013 633 1096 b 421 1319 633 1250 563 1319 z "},"Ȳ":{"ha":989,"x_min":0,"x_max":0,"o":"m 351 0 l 638 0 l 638 313 l 975 958 l 642 958 l 494 585 l 347 958 l 14 958 l 351 313 z m 263 1010 l 735 1010 l 735 1183 l 263 1183 z "},"Ỹ":{"ha":989,"x_min":0,"x_max":0,"o":"m 351 0 l 638 0 l 638 313 l 975 958 l 642 958 l 494 585 l 347 958 l 14 958 l 351 313 z m 238 1081 l 285 1015 b 369 1061 313 1044 338 1061 b 607 999 435 1061 514 999 b 751 1156 679 999 744 1060 l 704 1224 b 619 1175 674 1190 649 1175 b 382 1239 554 1175 475 1239 b 238 1081 308 1239 256 1192 z "},"Z":{"ha":797,"x_min":0,"x_max":0,"o":"m 42 0 l 750 0 l 750 236 l 403 236 l 743 750 l 743 958 l 56 958 l 56 722 l 382 722 l 42 208 z "},"Ź":{"ha":797,"x_min":0,"x_max":0,"o":"m 42 0 l 750 0 l 750 236 l 403 236 l 743 750 l 743 958 l 56 958 l 56 722 l 382 722 l 42 208 z m 257 1000 l 479 1000 l 597 1222 l 326 1222 z "},"Ž":{"ha":797,"x_min":0,"x_max":0,"o":"m 42 0 l 750 0 l 750 236 l 403 236 l 743 750 l 743 958 l 56 958 l 56 722 l 382 722 l 42 208 z m 92 1222 l 239 1000 l 558 1000 l 706 1222 l 449 1222 l 399 1088 l 349 1222 z "},"Ż":{"ha":797,"x_min":0,"x_max":0,"o":"m 42 0 l 750 0 l 750 236 l 403 236 l 743 750 l 743 958 l 56 958 l 56 722 l 382 722 l 42 208 z m 263 1086 b 401 976 263 1011 308 976 b 538 1086 492 976 538 1011 b 401 1199 538 1161 492 1199 b 263 1086 308 1199 263 1161 z "},"Ẓ":{"ha":797,"x_min":0,"x_max":0,"o":"m 42 0 l 750 0 l 750 236 l 403 236 l 743 750 l 743 958 l 56 958 l 56 722 l 382 722 l 42 208 z m 258 -156 b 397 -265 258 -231 304 -265 b 533 -156 488 -265 533 -231 b 397 -43 533 -81 488 -43 b 258 -156 304 -43 258 -81 z "},"Ẕ":{"ha":797,"x_min":0,"x_max":0,"o":"m 42 0 l 750 0 l 750 236 l 403 236 l 743 750 l 743 958 l 56 958 l 56 722 l 382 722 l 42 208 z m 163 -250 l 635 -250 l 635 -56 l 163 -56 z "},"a":{"ha":758,"x_min":0,"x_max":0,"o":"m 249 -17 b 431 64 336 -17 397 10 l 475 0 l 697 14 l 697 375 b 346 711 697 610 594 711 b 82 672 268 711 171 696 l 101 472 b 307 503 189 492 258 503 b 428 432 397 503 428 476 l 428 425 b 300 440 392 433 350 440 b 33 204 118 440 33 364 b 249 -17 33 58 104 -17 z m 306 229 b 378 288 306 274 331 288 b 428 285 397 288 414 286 l 428 268 b 363 171 428 197 407 171 b 306 229 324 171 306 190 z "},"á":{"ha":758,"x_min":0,"x_max":0,"o":"m 249 -17 b 431 64 336 -17 397 10 l 475 0 l 697 14 l 697 375 b 346 711 697 610 594 711 b 82 672 268 711 171 696 l 101 472 b 307 503 189 492 258 503 b 428 432 397 503 428 476 l 428 425 b 300 440 392 433 350 440 b 33 204 118 440 33 364 b 249 -17 33 58 104 -17 z m 238 736 l 460 736 l 578 958 l 307 958 z m 306 229 b 378 288 306 274 331 288 b 428 285 397 288 414 286 l 428 268 b 363 171 428 197 407 171 b 306 229 324 171 306 190 z "},"ă":{"ha":758,"x_min":0,"x_max":0,"o":"m 249 -17 b 431 64 336 -17 397 10 l 475 0 l 697 14 l 697 375 b 346 711 697 610 594 711 b 82 672 268 711 171 696 l 101 472 b 307 503 189 492 258 503 b 428 432 397 503 428 476 l 428 425 b 300 440 392 433 350 440 b 33 204 118 440 33 364 b 249 -17 33 58 104 -17 z m 147 928 b 381 722 147 797 231 722 b 611 928 531 722 611 796 l 458 929 b 381 856 458 879 433 856 b 300 929 326 856 300 879 z m 306 229 b 378 288 306 274 331 288 b 428 285 397 288 414 286 l 428 268 b 363 171 428 197 407 171 b 306 229 324 171 306 190 z "},"ắ":{"ha":758,"x_min":0,"x_max":0,"o":"m 249 -17 b 431 64 336 -17 397 10 l 475 0 l 697 14 l 697 375 b 346 711 697 610 594 711 b 82 672 268 711 171 696 l 101 472 b 307 503 189 492 258 503 b 428 432 397 503 428 476 l 428 425 b 300 440 392 433 350 440 b 33 204 118 440 33 364 b 249 -17 33 58 104 -17 z m 146 928 b 379 722 146 797 229 722 b 610 928 529 722 610 796 l 457 929 b 379 856 457 879 432 856 b 299 929 325 856 299 879 z m 258 943 l 444 943 l 543 1115 l 317 1115 z m 306 229 b 378 288 306 274 331 288 b 428 285 397 288 414 286 l 428 268 b 363 171 428 197 407 171 b 306 229 324 171 306 190 z "},"ặ":{"ha":758,"x_min":0,"x_max":0,"o":"m 249 -17 b 431 64 336 -17 397 10 l 475 0 l 697 14 l 697 375 b 346 711 697 610 594 711 b 82 672 268 711 171 696 l 101 472 b 307 503 189 492 258 503 b 428 432 397 503 428 476 l 428 425 b 300 440 392 433 350 440 b 33 204 118 440 33 364 b 249 -17 33 58 104 -17 z m 147 928 b 381 722 147 797 231 722 b 611 928 531 722 611 796 l 458 929 b 381 856 458 879 433 856 b 300 929 326 856 300 879 z m 239 -156 b 378 -265 239 -231 285 -265 b 514 -156 468 -265 514 -231 b 378 -43 514 -81 468 -43 b 239 -156 285 -43 239 -81 z m 306 229 b 378 288 306 274 331 288 b 428 285 397 288 414 286 l 428 268 b 363 171 428 197 407 171 b 306 229 324 171 306 190 z "},"ằ":{"ha":758,"x_min":0,"x_max":0,"o":"m 249 -17 b 431 64 336 -17 397 10 l 475 0 l 697 14 l 697 375 b 346 711 697 610 594 711 b 82 672 268 711 171 696 l 101 472 b 307 503 189 492 258 503 b 428 432 397 503 428 476 l 428 425 b 300 440 392 433 350 440 b 33 204 118 440 33 364 b 249 -17 33 58 104 -17 z m 146 926 b 379 721 146 796 229 721 b 610 926 529 721 610 794 l 457 928 b 379 854 457 878 432 854 b 299 928 325 854 299 878 z m 167 1125 l 283 943 l 506 943 l 438 1125 z m 306 229 b 378 288 306 274 331 288 b 428 285 397 288 414 286 l 428 268 b 363 171 428 197 407 171 b 306 229 324 171 306 190 z "},"ẳ":{"ha":758,"x_min":0,"x_max":0,"o":"m 249 -17 b 431 64 336 -17 397 10 l 475 0 l 697 14 l 697 375 b 346 711 697 610 594 711 b 82 672 268 711 171 696 l 101 472 b 307 503 189 492 258 503 b 428 432 397 503 428 476 l 428 425 b 300 440 392 433 350 440 b 33 204 118 440 33 364 b 249 -17 33 58 104 -17 z m 146 928 b 379 722 146 797 229 722 b 610 928 529 722 610 796 l 457 929 b 379 856 457 879 432 856 b 299 929 325 856 299 879 z m 238 1088 b 318 1028 297 1063 318 1047 b 276 957 318 1013 304 994 l 321 926 b 517 1097 451 958 517 1031 b 304 1225 517 1164 446 1225 z m 306 229 b 378 288 306 274 331 288 b 428 285 397 288 414 286 l 428 268 b 363 171 428 197 407 171 b 306 229 324 171 306 190 z "},"ẵ":{"ha":758,"x_min":0,"x_max":0,"o":"m 249 -17 b 431 64 336 -17 397 10 l 475 0 l 697 14 l 697 375 b 346 711 697 610 594 711 b 82 672 268 711 171 696 l 101 472 b 307 503 189 492 258 503 b 428 432 397 503 428 476 l 428 425 b 300 440 392 433 350 440 b 33 204 118 440 33 364 b 249 -17 33 58 104 -17 z m 121 1010 l 168 957 b 253 994 196 981 221 994 b 490 944 318 994 397 944 b 635 1071 563 944 628 993 l 588 1125 b 503 1086 557 1099 532 1086 b 265 1138 438 1086 358 1138 b 121 1010 192 1138 139 1099 z m 146 928 b 379 722 146 797 229 722 b 610 928 529 722 610 796 l 457 929 b 379 856 457 879 432 856 b 299 929 325 856 299 879 z m 306 229 b 378 288 306 274 331 288 b 428 285 397 288 414 286 l 428 268 b 363 171 428 197 407 171 b 306 229 324 171 306 190 z "},"ǎ":{"ha":758,"x_min":0,"x_max":0,"o":"m 249 -17 b 431 64 336 -17 397 10 l 475 0 l 697 14 l 697 375 b 346 711 697 610 594 711 b 82 672 268 711 171 696 l 101 472 b 307 503 189 492 258 503 b 428 432 397 503 428 476 l 428 425 b 300 440 392 433 350 440 b 33 204 118 440 33 364 b 249 -17 33 58 104 -17 z m 72 958 l 219 736 l 539 736 l 686 958 l 429 958 l 379 824 l 329 958 z m 306 229 b 378 288 306 274 331 288 b 428 285 397 288 414 286 l 428 268 b 363 171 428 197 407 171 b 306 229 324 171 306 190 z "},"â":{"ha":758,"x_min":0,"x_max":0,"o":"m 249 -17 b 431 64 336 -17 397 10 l 475 0 l 697 14 l 697 375 b 346 711 697 610 594 711 b 82 672 268 711 171 696 l 101 472 b 307 503 189 492 258 503 b 428 432 397 503 428 476 l 428 425 b 300 440 392 433 350 440 b 33 204 118 440 33 364 b 249 -17 33 58 104 -17 z m 72 736 l 329 736 l 379 871 l 429 736 l 686 736 l 539 958 l 219 958 z m 306 229 b 378 288 306 274 331 288 b 428 285 397 288 414 286 l 428 268 b 363 171 428 197 407 171 b 306 229 324 171 306 190 z "},"ấ":{"ha":758,"x_min":0,"x_max":0,"o":"m 249 -17 b 431 64 336 -17 397 10 l 475 0 l 697 14 l 697 375 b 346 711 697 610 594 711 b 82 672 268 711 171 696 l 101 472 b 307 503 189 492 258 503 b 428 432 397 503 428 476 l 428 425 b 300 440 392 433 350 440 b 33 204 118 440 33 364 b 249 -17 33 58 104 -17 z m 72 736 l 329 736 l 379 871 l 429 736 l 686 736 l 539 958 l 476 958 l 578 1107 l 307 1107 l 247 958 l 219 958 z m 306 229 b 378 288 306 274 331 288 b 428 285 397 288 414 286 l 428 268 b 363 171 428 197 407 171 b 306 229 324 171 306 190 z "},"ậ":{"ha":758,"x_min":0,"x_max":0,"o":"m 249 -17 b 431 64 336 -17 397 10 l 475 0 l 697 14 l 697 375 b 346 711 697 610 594 711 b 82 672 268 711 171 696 l 101 472 b 307 503 189 492 258 503 b 428 432 397 503 428 476 l 428 425 b 300 440 392 433 350 440 b 33 204 118 440 33 364 b 249 -17 33 58 104 -17 z m 72 736 l 329 736 l 379 871 l 429 736 l 686 736 l 539 958 l 219 958 z m 239 -156 b 378 -265 239 -231 285 -265 b 514 -156 468 -265 514 -231 b 378 -43 514 -81 468 -43 b 239 -156 285 -43 239 -81 z m 306 229 b 378 288 306 274 331 288 b 428 285 397 288 414 286 l 428 268 b 363 171 428 197 407 171 b 306 229 324 171 306 190 z "},"ầ":{"ha":758,"x_min":0,"x_max":0,"o":"m 249 -17 b 431 64 336 -17 397 10 l 475 0 l 697 14 l 697 375 b 346 711 697 610 594 711 b 82 672 268 711 171 696 l 101 472 b 307 503 189 492 258 503 b 428 432 397 503 428 476 l 428 425 b 300 440 392 433 350 440 b 33 204 118 440 33 364 b 249 -17 33 58 104 -17 z m 72 736 l 329 736 l 379 871 l 429 736 l 686 736 l 539 958 l 497 958 l 439 1113 l 168 1113 l 269 958 l 219 958 z m 306 229 b 378 288 306 274 331 288 b 428 285 397 288 414 286 l 428 268 b 363 171 428 197 407 171 b 306 229 324 171 306 190 z "},"ẩ":{"ha":758,"x_min":0,"x_max":0,"o":"m 249 -17 b 431 64 336 -17 397 10 l 475 0 l 697 14 l 697 375 b 346 711 697 610 594 711 b 82 672 268 711 171 696 l 101 472 b 307 503 189 492 258 503 b 428 432 397 503 428 476 l 428 425 b 300 440 392 433 350 440 b 33 204 118 440 33 364 b 249 -17 33 58 104 -17 z m 72 736 l 329 736 l 379 871 l 429 736 l 686 736 l 539 958 l 414 958 b 518 1115 483 1000 518 1060 b 306 1263 518 1193 447 1263 l 239 1104 b 319 1036 299 1076 319 1058 b 281 958 319 1018 307 999 l 219 958 z m 306 229 b 378 288 306 274 331 288 b 428 285 397 288 414 286 l 428 268 b 363 171 428 197 407 171 b 306 229 324 171 306 190 z "},"ẫ":{"ha":758,"x_min":0,"x_max":0,"o":"m 249 -17 b 431 64 336 -17 397 10 l 475 0 l 697 14 l 697 375 b 346 711 697 610 594 711 b 82 672 268 711 171 696 l 101 472 b 307 503 189 492 258 503 b 428 432 397 503 428 476 l 428 425 b 300 440 392 433 350 440 b 33 204 118 440 33 364 b 249 -17 33 58 104 -17 z m 64 736 l 321 736 l 371 871 l 421 736 l 678 736 l 531 958 b 604 1099 569 983 600 1032 l 561 1167 b 483 1118 533 1133 511 1118 b 268 1182 425 1118 353 1182 b 138 1024 201 1182 154 1135 l 181 958 b 257 1004 206 988 229 1004 b 392 958 296 1004 342 976 l 211 958 z m 306 229 b 378 288 306 274 331 288 b 428 285 397 288 414 286 l 428 268 b 363 171 428 197 407 171 b 306 229 324 171 306 190 z "},"ä":{"ha":758,"x_min":0,"x_max":0,"o":"m 249 -17 b 431 64 336 -17 397 10 l 475 0 l 697 14 l 697 375 b 346 711 697 610 594 711 b 82 672 268 711 171 696 l 101 472 b 307 503 189 492 258 503 b 428 432 397 503 428 476 l 428 425 b 300 440 392 433 350 440 b 33 204 118 440 33 364 b 249 -17 33 58 104 -17 z m 83 829 b 222 719 83 754 131 719 b 358 829 313 719 358 754 b 222 942 358 904 313 942 b 83 829 131 942 83 904 z m 306 229 b 378 288 306 274 331 288 b 428 285 397 288 414 286 l 428 268 b 363 171 428 197 407 171 b 306 229 324 171 306 190 z m 400 829 b 539 719 400 754 446 719 b 675 829 629 719 675 754 b 539 942 675 904 629 942 b 400 829 446 942 400 904 z "},"ǟ":{"ha":758,"x_min":0,"x_max":0,"o":"m 249 -17 b 431 64 336 -17 397 10 l 475 0 l 697 14 l 697 375 b 346 711 697 610 594 711 b 82 672 268 711 171 696 l 101 472 b 307 503 189 492 258 503 b 428 432 397 503 428 476 l 428 425 b 300 440 392 433 350 440 b 33 204 118 440 33 364 b 249 -17 33 58 104 -17 z m 83 829 b 222 719 83 754 131 719 b 358 829 313 719 358 754 b 222 942 358 904 313 942 b 83 829 131 942 83 904 z m 147 963 l 619 963 l 619 1136 l 147 1136 z m 306 229 b 378 288 306 274 331 288 b 428 285 397 288 414 286 l 428 268 b 363 171 428 197 407 171 b 306 229 324 171 306 190 z m 400 829 b 539 719 400 754 446 719 b 675 829 629 719 675 754 b 539 942 675 904 629 942 b 400 829 446 942 400 904 z "},"ạ":{"ha":758,"x_min":0,"x_max":0,"o":"m 249 -17 b 431 64 336 -17 397 10 l 475 0 l 697 14 l 697 375 b 346 711 697 610 594 711 b 82 672 268 711 171 696 l 101 472 b 307 503 189 492 258 503 b 428 432 397 503 428 476 l 428 425 b 300 440 392 433 350 440 b 33 204 118 440 33 364 b 249 -17 33 58 104 -17 z m 239 -156 b 378 -265 239 -231 285 -265 b 514 -156 468 -265 514 -231 b 378 -43 514 -81 468 -43 b 239 -156 285 -43 239 -81 z m 306 229 b 378 288 306 274 331 288 b 428 285 397 288 414 286 l 428 268 b 363 171 428 197 407 171 b 306 229 324 171 306 190 z "},"à":{"ha":758,"x_min":0,"x_max":0,"o":"m 249 -17 b 431 64 336 -17 397 10 l 475 0 l 697 14 l 697 375 b 346 711 697 610 594 711 b 82 672 268 711 171 696 l 101 472 b 307 503 189 492 258 503 b 428 432 397 503 428 476 l 428 425 b 300 440 392 433 350 440 b 33 204 118 440 33 364 b 249 -17 33 58 104 -17 z m 168 958 l 285 736 l 507 736 l 439 958 z m 306 229 b 378 288 306 274 331 288 b 428 285 397 288 414 286 l 428 268 b 363 171 428 197 407 171 b 306 229 324 171 306 190 z "},"ả":{"ha":758,"x_min":0,"x_max":0,"o":"m 249 -17 b 431 64 336 -17 397 10 l 475 0 l 697 14 l 697 375 b 346 711 697 610 594 711 b 82 672 268 711 171 696 l 101 472 b 307 503 189 492 258 503 b 428 432 397 503 428 476 l 428 425 b 300 440 392 433 350 440 b 33 204 118 440 33 364 b 249 -17 33 58 104 -17 z m 239 897 b 319 829 299 869 319 851 b 278 747 319 811 306 790 l 322 713 b 518 908 453 749 518 832 b 306 1056 518 986 447 1056 z m 306 229 b 378 288 306 274 331 288 b 428 285 397 288 414 286 l 428 268 b 363 171 428 197 407 171 b 306 229 324 171 306 190 z "},"ɑ":{"ha":814,"x_min":0,"x_max":0,"o":"m 322 -17 b 500 64 406 -17 467 10 l 544 0 l 753 14 l 753 658 b 432 711 656 692 540 711 b 47 326 176 711 47 582 b 322 -17 47 104 144 -17 z m 319 347 b 444 503 319 458 354 503 b 483 501 457 503 471 503 l 483 290 b 413 192 483 217 457 192 b 319 347 349 192 319 242 z "},"ā":{"ha":758,"x_min":0,"x_max":0,"o":"m 249 -17 b 431 64 336 -17 397 10 l 475 0 l 697 14 l 697 375 b 346 711 697 610 594 711 b 82 672 268 711 171 696 l 101 472 b 307 503 189 492 258 503 b 428 432 397 503 428 476 l 428 425 b 300 440 392 433 350 440 b 33 204 118 440 33 364 b 249 -17 33 58 104 -17 z m 147 746 l 619 746 l 619 919 l 147 919 z m 306 229 b 378 288 306 274 331 288 b 428 285 397 288 414 286 l 428 268 b 363 171 428 197 407 171 b 306 229 324 171 306 190 z "},"ą":{"ha":758,"x_min":0,"x_max":0,"o":"m 249 -17 b 431 64 336 -17 397 10 l 475 0 l 536 4 b 442 -147 474 -37 442 -94 b 654 -294 442 -225 513 -294 l 721 -136 b 640 -68 661 -108 640 -90 b 682 13 640 -50 654 -29 l 697 14 l 697 375 b 346 711 697 610 594 711 b 82 672 268 711 171 696 l 101 472 b 307 503 189 492 258 503 b 428 432 397 503 428 476 l 428 425 b 300 440 392 433 350 440 b 33 204 118 440 33 364 b 249 -17 33 58 104 -17 z m 306 229 b 378 288 306 274 331 288 b 428 285 397 288 414 286 l 428 268 b 363 171 428 197 407 171 b 306 229 324 171 306 190 z "},"å":{"ha":758,"x_min":0,"x_max":0,"o":"m 249 -17 b 431 64 336 -17 397 10 l 475 0 l 697 14 l 697 375 b 546 678 697 532 651 631 b 581 792 568 706 581 744 b 381 974 581 908 510 974 b 178 792 251 974 178 907 b 200 697 178 754 186 724 b 82 672 161 692 121 682 l 101 472 b 307 503 189 492 258 503 b 428 432 397 503 428 476 l 428 425 b 300 440 392 433 350 440 b 33 204 118 440 33 364 b 249 -17 33 58 104 -17 z m 306 229 b 378 288 306 274 331 288 b 428 285 397 288 414 286 l 428 268 b 363 171 428 197 407 171 b 306 229 324 171 306 190 z m 310 793 b 381 858 310 836 335 858 b 449 793 425 858 449 836 b 381 729 449 750 426 729 b 310 793 333 729 310 750 z "},"ǻ":{"ha":758,"x_min":0,"x_max":0,"o":"m 249 -17 b 431 64 336 -17 397 10 l 475 0 l 697 14 l 697 375 b 546 678 697 532 651 631 b 581 792 568 706 581 744 b 381 974 581 908 510 974 b 178 792 251 974 178 907 b 200 697 178 754 186 724 b 82 672 161 692 121 682 l 101 472 b 307 503 189 492 258 503 b 428 432 397 503 428 476 l 428 425 b 300 440 392 433 350 440 b 33 204 118 440 33 364 b 249 -17 33 58 104 -17 z m 238 1015 l 460 1015 l 578 1238 l 307 1238 z m 306 229 b 378 288 306 274 331 288 b 428 285 397 288 414 286 l 428 268 b 363 171 428 197 407 171 b 306 229 324 171 306 190 z m 310 793 b 381 858 310 836 335 858 b 449 793 425 858 449 836 b 381 729 449 750 426 729 b 310 793 333 729 310 750 z "},"ã":{"ha":758,"x_min":0,"x_max":0,"o":"m 249 -17 b 431 64 336 -17 397 10 l 475 0 l 697 14 l 697 375 b 346 711 697 610 594 711 b 82 672 268 711 171 696 l 101 472 b 307 503 189 492 258 503 b 428 432 397 503 428 476 l 428 425 b 300 440 392 433 350 440 b 33 204 118 440 33 364 b 249 -17 33 58 104 -17 z m 122 817 l 169 751 b 254 797 197 781 222 797 b 492 735 319 797 399 735 b 636 892 564 735 629 796 l 589 960 b 504 911 558 926 533 911 b 267 975 439 911 360 975 b 122 817 193 975 140 928 z m 306 229 b 378 288 306 274 331 288 b 428 285 397 288 414 286 l 428 268 b 363 171 428 197 407 171 b 306 229 324 171 306 190 z "},"æ":{"ha":1164,"x_min":0,"x_max":0,"o":"m 249 -17 b 499 104 403 -17 464 50 b 813 -17 560 24 664 -17 b 1100 22 908 -17 1026 0 l 1081 224 b 865 192 1022 211 951 192 b 717 261 781 192 736 208 l 1108 261 b 1119 379 1114 281 1119 336 b 783 711 1119 599 1006 711 b 572 663 697 711 626 694 b 346 711 517 694 442 711 b 82 672 268 711 171 696 l 101 472 b 307 503 189 492 258 503 b 428 432 397 503 428 476 l 428 425 b 300 440 392 433 350 440 b 33 204 118 440 33 364 b 249 -17 33 58 104 -17 z m 306 229 b 378 288 306 274 331 288 b 428 285 397 288 414 286 l 428 268 b 363 171 428 197 407 171 b 306 229 324 171 306 190 z m 711 433 b 781 503 721 483 744 503 b 850 433 824 503 840 483 z "},"ǽ":{"ha":1164,"x_min":0,"x_max":0,"o":"m 249 -17 b 499 104 403 -17 464 50 b 813 -17 560 24 664 -17 b 1100 22 908 -17 1026 0 l 1081 224 b 865 192 1022 211 951 192 b 717 261 781 192 736 208 l 1108 261 b 1119 379 1114 281 1119 336 b 783 711 1119 599 1006 711 b 572 663 697 711 626 694 b 346 711 517 694 442 711 b 82 672 268 711 171 696 l 101 472 b 307 503 189 492 258 503 b 428 432 397 503 428 476 l 428 425 b 300 440 392 433 350 440 b 33 204 118 440 33 364 b 249 -17 33 58 104 -17 z m 306 229 b 378 288 306 274 331 288 b 428 285 397 288 414 286 l 428 268 b 363 171 428 197 407 171 b 306 229 324 171 306 190 z m 436 736 l 658 736 l 776 958 l 506 958 z m 711 433 b 781 503 721 483 744 503 b 850 433 824 503 840 483 z "},"ǣ":{"ha":1164,"x_min":0,"x_max":0,"o":"m 249 -17 b 499 104 403 -17 464 50 b 813 -17 560 24 664 -17 b 1100 22 908 -17 1026 0 l 1081 224 b 865 192 1022 211 951 192 b 717 261 781 192 736 208 l 1108 261 b 1119 379 1114 281 1119 336 b 783 711 1119 599 1006 711 b 572 663 697 711 626 694 b 346 711 517 694 442 711 b 82 672 268 711 171 696 l 101 472 b 307 503 189 492 258 503 b 428 432 397 503 428 476 l 428 425 b 300 440 392 433 350 440 b 33 204 118 440 33 364 b 249 -17 33 58 104 -17 z m 306 229 b 378 288 306 274 331 288 b 428 285 397 288 414 286 l 428 268 b 363 171 428 197 407 171 b 306 229 324 171 306 190 z m 346 746 l 818 746 l 818 919 l 346 919 z m 711 433 b 781 503 721 483 744 503 b 850 433 824 503 840 483 z "},"b":{"ha":817,"x_min":0,"x_max":0,"o":"m 385 -17 b 769 347 638 -17 769 97 b 443 711 769 596 646 711 b 333 701 406 711 368 707 l 333 986 l 64 986 l 64 36 b 385 -17 161 3 275 -17 z m 333 193 l 333 500 b 372 503 347 501 360 503 b 500 347 464 503 500 460 b 372 192 500 235 464 192 b 333 193 358 192 346 192 z "},"ḅ":{"ha":817,"x_min":0,"x_max":0,"o":"m 385 -17 b 769 347 638 -17 769 97 b 443 711 769 596 646 711 b 333 701 406 711 368 707 l 333 986 l 64 986 l 64 36 b 385 -17 161 3 275 -17 z m 268 -156 b 407 -265 268 -231 314 -265 b 543 -156 497 -265 543 -231 b 407 -43 543 -81 497 -43 b 268 -156 314 -43 268 -81 z m 333 193 l 333 500 b 372 503 347 501 360 503 b 500 347 464 503 500 460 b 372 192 500 235 464 192 b 333 193 358 192 346 192 z "},"c":{"ha":638,"x_min":0,"x_max":0,"o":"m 401 -17 b 604 8 467 -17 553 -6 l 585 210 b 447 192 554 201 501 192 b 319 347 356 192 319 235 b 447 503 319 460 356 503 b 585 486 500 503 554 494 l 604 686 b 401 711 553 701 464 711 b 47 347 171 711 47 596 b 401 -17 47 97 171 -17 z "},"ć":{"ha":638,"x_min":0,"x_max":0,"o":"m 401 -17 b 604 8 467 -17 553 -6 l 585 210 b 447 192 554 201 501 192 b 319 347 356 192 319 235 b 447 503 319 460 356 503 b 585 486 500 503 554 494 l 604 686 b 401 711 553 701 464 711 b 47 347 171 711 47 596 b 401 -17 47 97 171 -17 z m 231 736 l 453 736 l 571 958 l 300 958 z "},"č":{"ha":638,"x_min":0,"x_max":0,"o":"m 401 -17 b 604 8 467 -17 553 -6 l 585 210 b 447 192 554 201 501 192 b 319 347 356 192 319 235 b 447 503 319 460 356 503 b 585 486 500 503 554 494 l 604 686 b 401 711 553 701 464 711 b 47 347 171 711 47 596 b 401 -17 47 97 171 -17 z m 65 958 l 213 736 l 532 736 l 679 958 l 422 958 l 372 824 l 322 958 z "},"ç":{"ha":638,"x_min":0,"x_max":0,"o":"m 222 -150 l 289 -308 b 514 -143 440 -308 514 -228 b 450 -15 514 -97 492 -51 b 604 8 506 -11 565 -3 l 585 210 b 447 192 554 201 501 192 b 319 347 356 192 319 235 b 447 503 319 460 356 503 b 585 486 500 503 554 494 l 604 686 b 401 711 553 701 464 711 b 47 347 171 711 47 596 b 324 -11 47 128 143 13 b 328 -44 326 -24 328 -35 b 222 -150 328 -97 286 -121 z "},"ĉ":{"ha":638,"x_min":0,"x_max":0,"o":"m 401 -17 b 604 8 467 -17 553 -6 l 585 210 b 447 192 554 201 501 192 b 319 347 356 192 319 235 b 447 503 319 460 356 503 b 585 486 500 503 554 494 l 604 686 b 401 711 553 701 464 711 b 47 347 171 711 47 596 b 401 -17 47 97 171 -17 z m 65 736 l 322 736 l 372 871 l 422 736 l 679 736 l 532 958 l 213 958 z "},"ċ":{"ha":638,"x_min":0,"x_max":0,"o":"m 401 -17 b 604 8 467 -17 553 -6 l 585 210 b 447 192 554 201 501 192 b 319 347 356 192 319 235 b 447 503 319 460 356 503 b 585 486 500 503 554 494 l 604 686 b 401 711 553 701 464 711 b 47 347 171 711 47 596 b 401 -17 47 97 171 -17 z m 236 822 b 375 713 236 747 282 713 b 511 822 465 713 511 747 b 375 935 511 897 465 935 b 236 822 282 935 236 897 z "},"d":{"ha":817,"x_min":0,"x_max":0,"o":"m 432 -17 b 753 36 540 -17 656 3 l 753 986 l 483 986 l 483 701 b 374 711 449 707 411 711 b 47 347 171 711 47 596 b 432 -17 47 97 179 -17 z m 317 347 b 444 503 317 460 353 503 b 483 500 456 503 469 501 l 483 193 b 444 192 471 192 457 192 b 317 347 353 192 317 235 z "},"ð":{"ha":751,"x_min":0,"x_max":0,"o":"m 369 -17 b 696 349 574 -17 696 99 l 696 669 b 344 1007 696 903 588 1007 l 342 1007 l 342 1069 l 213 1069 l 213 997 b 81 972 161 990 118 981 l 106 742 b 213 772 125 749 167 761 l 213 710 l 342 710 l 342 783 b 410 671 392 775 410 743 b 231 643 342 669 282 661 b 56 331 121 603 56 511 b 369 -17 56 99 165 -17 z m 328 294 b 361 435 328 367 340 410 b 410 461 375 451 392 458 l 410 349 b 369 192 410 233 400 192 b 328 294 339 192 328 228 z "},"ď":{"ha":817,"x_min":0,"x_max":0,"o":"m 432 -17 b 753 36 540 -17 656 3 l 753 986 l 483 986 l 483 701 b 374 711 449 707 411 711 b 47 347 171 711 47 596 b 432 -17 47 97 179 -17 z m 317 347 b 444 503 317 460 353 503 b 483 500 456 503 469 501 l 483 193 b 444 192 471 192 457 192 b 317 347 353 192 317 235 z m 817 904 b 935 778 817 835 853 783 b 828 711 924 744 889 724 l 838 600 b 1144 869 1039 614 1144 718 b 975 1043 1144 983 1086 1043 b 817 904 874 1043 817 993 z "},"ḓ":{"ha":817,"x_min":0,"x_max":0,"o":"m 432 -17 b 753 36 540 -17 656 3 l 753 986 l 483 986 l 483 701 b 374 711 449 707 411 711 b 47 347 171 711 47 596 b 432 -17 47 97 179 -17 z m 139 -267 l 396 -267 l 446 -132 l 496 -267 l 753 -267 l 606 -44 l 286 -44 z m 317 347 b 444 503 317 460 353 503 b 483 500 456 503 469 501 l 483 193 b 444 192 471 192 457 192 b 317 347 353 192 317 235 z "},"đ":{"ha":850,"x_min":0,"x_max":0,"o":"m 432 -17 b 753 36 540 -17 656 3 l 753 751 l 836 751 l 836 946 l 753 946 l 753 986 l 483 986 l 483 946 l 374 946 l 374 751 l 483 751 l 483 701 b 374 711 449 707 411 711 b 47 347 171 711 47 596 b 432 -17 47 97 179 -17 z m 317 347 b 444 503 317 460 353 503 b 483 500 456 503 469 501 l 483 193 b 444 192 471 192 457 192 b 317 347 353 192 317 235 z "},"ḍ":{"ha":817,"x_min":0,"x_max":0,"o":"m 432 -17 b 753 36 540 -17 656 3 l 753 986 l 483 986 l 483 701 b 374 711 449 707 411 711 b 47 347 171 711 47 596 b 432 -17 47 97 179 -17 z m 306 -172 b 444 -282 306 -247 351 -282 b 581 -172 535 -282 581 -247 b 444 -60 581 -97 535 -60 b 306 -172 351 -60 306 -97 z m 317 347 b 444 503 317 460 353 503 b 483 500 456 503 469 501 l 483 193 b 444 192 471 192 457 192 b 317 347 353 192 317 235 z "},"ḏ":{"ha":817,"x_min":0,"x_max":0,"o":"m 432 -17 b 753 36 540 -17 656 3 l 753 986 l 483 986 l 483 701 b 374 711 449 707 411 711 b 47 347 171 711 47 596 b 432 -17 47 97 179 -17 z m 210 -267 l 682 -267 l 682 -72 l 210 -72 z m 317 347 b 444 503 317 460 353 503 b 483 500 456 503 469 501 l 483 193 b 444 192 471 192 457 192 b 317 347 353 192 317 235 z "},"e":{"ha":779,"x_min":0,"x_max":0,"o":"m 428 -17 b 715 22 524 -17 642 0 l 696 224 b 481 192 638 211 567 192 b 332 261 396 192 351 208 l 724 261 b 735 379 729 281 735 336 b 399 711 735 599 621 711 b 47 350 164 711 47 590 b 428 -17 47 103 171 -17 z m 326 433 b 396 503 336 483 360 503 b 465 433 439 503 456 483 z "},"é":{"ha":779,"x_min":0,"x_max":0,"o":"m 428 -17 b 715 22 524 -17 642 0 l 696 224 b 481 192 638 211 567 192 b 332 261 396 192 351 208 l 724 261 b 735 379 729 281 735 336 b 399 711 735 599 621 711 b 47 350 164 711 47 590 b 428 -17 47 103 171 -17 z m 249 736 l 471 736 l 589 958 l 318 958 z m 326 433 b 396 503 336 483 360 503 b 465 433 439 503 456 483 z "},"ě":{"ha":779,"x_min":0,"x_max":0,"o":"m 428 -17 b 715 22 524 -17 642 0 l 696 224 b 481 192 638 211 567 192 b 332 261 396 192 351 208 l 724 261 b 735 379 729 281 735 336 b 399 711 735 599 621 711 b 47 350 164 711 47 590 b 428 -17 47 103 171 -17 z m 83 958 l 231 736 l 550 736 l 697 958 l 440 958 l 390 824 l 340 958 z m 326 433 b 396 503 336 483 360 503 b 465 433 439 503 456 483 z "},"ȩ":{"ha":779,"x_min":0,"x_max":0,"o":"m 465 433 l 326 433 b 396 503 336 483 360 503 b 465 433 439 503 456 483 z m 47 350 b 360 -14 47 126 149 7 b 364 -44 363 -25 364 -36 b 258 -150 364 -97 322 -121 l 325 -308 b 550 -143 476 -308 550 -228 b 486 -15 550 -97 528 -51 b 715 22 568 -10 656 4 l 696 224 b 481 192 638 211 567 192 b 332 261 396 192 351 208 l 724 261 b 735 379 729 281 735 336 b 399 711 735 599 621 711 b 47 350 164 711 47 590 z "},"ê":{"ha":779,"x_min":0,"x_max":0,"o":"m 428 -17 b 715 22 524 -17 642 0 l 696 224 b 481 192 638 211 567 192 b 332 261 396 192 351 208 l 724 261 b 735 379 729 281 735 336 b 399 711 735 599 621 711 b 47 350 164 711 47 590 b 428 -17 47 103 171 -17 z m 83 736 l 340 736 l 390 871 l 440 736 l 697 736 l 550 958 l 231 958 z m 326 433 b 396 503 336 483 360 503 b 465 433 439 503 456 483 z "},"ế":{"ha":779,"x_min":0,"x_max":0,"o":"m 428 -17 b 715 22 524 -17 642 0 l 696 224 b 481 192 638 211 567 192 b 332 261 396 192 351 208 l 724 261 b 735 379 729 281 735 336 b 399 711 735 599 621 711 b 47 350 164 711 47 590 b 428 -17 47 103 171 -17 z m 83 736 l 340 736 l 390 871 l 440 736 l 697 736 l 550 958 l 488 958 l 589 1107 l 318 1107 l 258 958 l 231 958 z m 326 433 b 396 503 336 483 360 503 b 465 433 439 503 456 483 z "},"ệ":{"ha":779,"x_min":0,"x_max":0,"o":"m 428 -17 b 715 22 524 -17 642 0 l 696 224 b 481 192 638 211 567 192 b 332 261 396 192 351 208 l 724 261 b 735 379 729 281 735 336 b 399 711 735 599 621 711 b 47 350 164 711 47 590 b 428 -17 47 103 171 -17 z m 83 736 l 340 736 l 390 871 l 440 736 l 697 736 l 550 958 l 231 958 z m 264 -156 b 403 -265 264 -231 310 -265 b 539 -156 493 -265 539 -231 b 403 -43 539 -81 493 -43 b 264 -156 310 -43 264 -81 z m 326 433 b 396 503 336 483 360 503 b 465 433 439 503 456 483 z "},"ề":{"ha":779,"x_min":0,"x_max":0,"o":"m 428 -17 b 715 22 524 -17 642 0 l 696 224 b 481 192 638 211 567 192 b 332 261 396 192 351 208 l 724 261 b 735 379 729 281 735 336 b 399 711 735 599 621 711 b 47 350 164 711 47 590 b 428 -17 47 103 171 -17 z m 83 736 l 340 736 l 390 871 l 440 736 l 697 736 l 550 958 l 508 958 l 450 1113 l 179 1113 l 281 958 l 231 958 z m 326 433 b 396 503 336 483 360 503 b 465 433 439 503 456 483 z "},"ể":{"ha":779,"x_min":0,"x_max":0,"o":"m 428 -17 b 715 22 524 -17 642 0 l 696 224 b 481 192 638 211 567 192 b 332 261 396 192 351 208 l 724 261 b 735 379 729 281 735 336 b 399 711 735 599 621 711 b 47 350 164 711 47 590 b 428 -17 47 103 171 -17 z m 83 736 l 340 736 l 390 871 l 440 736 l 697 736 l 550 958 l 425 958 b 529 1115 494 1000 529 1060 b 317 1263 529 1193 458 1263 l 250 1104 b 331 1036 310 1076 331 1058 b 292 958 331 1018 318 999 l 231 958 z m 326 433 b 396 503 336 483 360 503 b 465 433 439 503 456 483 z "},"ễ":{"ha":779,"x_min":0,"x_max":0,"o":"m 428 -17 b 715 22 524 -17 642 0 l 696 224 b 481 192 638 211 567 192 b 332 261 396 192 351 208 l 724 261 b 735 379 729 281 735 336 b 399 711 735 599 621 711 b 47 350 164 711 47 590 b 428 -17 47 103 171 -17 z m 75 736 l 332 736 l 382 871 l 432 736 l 689 736 l 542 958 b 615 1099 581 983 611 1032 l 572 1167 b 494 1118 544 1133 522 1118 b 279 1182 436 1118 364 1182 b 149 1024 213 1182 165 1135 l 192 958 b 268 1004 217 988 240 1004 b 403 958 307 1004 353 976 l 222 958 z m 326 433 b 396 503 336 483 360 503 b 465 433 439 503 456 483 z "},"ë":{"ha":779,"x_min":0,"x_max":0,"o":"m 428 -17 b 715 22 524 -17 642 0 l 696 224 b 481 192 638 211 567 192 b 332 261 396 192 351 208 l 724 261 b 735 379 729 281 735 336 b 399 711 735 599 621 711 b 47 350 164 711 47 590 b 428 -17 47 103 171 -17 z m 94 829 b 233 719 94 754 142 719 b 369 829 324 719 369 754 b 233 942 369 904 324 942 b 94 829 142 942 94 904 z m 326 433 b 396 503 336 483 360 503 b 465 433 439 503 456 483 z m 411 829 b 550 719 411 754 457 719 b 686 829 640 719 686 754 b 550 942 686 904 640 942 b 411 829 457 942 411 904 z "},"ė":{"ha":779,"x_min":0,"x_max":0,"o":"m 428 -17 b 715 22 524 -17 642 0 l 696 224 b 481 192 638 211 567 192 b 332 261 396 192 351 208 l 724 261 b 735 379 729 281 735 336 b 399 711 735 599 621 711 b 47 350 164 711 47 590 b 428 -17 47 103 171 -17 z m 254 822 b 393 713 254 747 300 713 b 529 822 483 713 529 747 b 393 935 529 897 483 935 b 254 822 300 935 254 897 z m 326 433 b 396 503 336 483 360 503 b 465 433 439 503 456 483 z "},"ẹ":{"ha":779,"x_min":0,"x_max":0,"o":"m 428 -17 b 715 22 524 -17 642 0 l 696 224 b 481 192 638 211 567 192 b 332 261 396 192 351 208 l 724 261 b 735 379 729 281 735 336 b 399 711 735 599 621 711 b 47 350 164 711 47 590 b 428 -17 47 103 171 -17 z m 264 -156 b 403 -265 264 -231 310 -265 b 539 -156 493 -265 539 -231 b 403 -43 539 -81 493 -43 b 264 -156 310 -43 264 -81 z m 326 433 b 396 503 336 483 360 503 b 465 433 439 503 456 483 z "},"è":{"ha":779,"x_min":0,"x_max":0,"o":"m 428 -17 b 715 22 524 -17 642 0 l 696 224 b 481 192 638 211 567 192 b 332 261 396 192 351 208 l 724 261 b 735 379 729 281 735 336 b 399 711 735 599 621 711 b 47 350 164 711 47 590 b 428 -17 47 103 171 -17 z m 179 958 l 296 736 l 518 736 l 450 958 z m 326 433 b 396 503 336 483 360 503 b 465 433 439 503 456 483 z "},"ẻ":{"ha":779,"x_min":0,"x_max":0,"o":"m 428 -17 b 715 22 524 -17 642 0 l 696 224 b 481 192 638 211 567 192 b 332 261 396 192 351 208 l 724 261 b 735 379 729 281 735 336 b 399 711 735 599 621 711 b 47 350 164 711 47 590 b 428 -17 47 103 171 -17 z m 250 897 b 331 829 310 869 331 851 b 289 747 331 811 317 790 l 333 713 b 529 908 464 749 529 832 b 317 1056 529 986 458 1056 z m 326 433 b 396 503 336 483 360 503 b 465 433 439 503 456 483 z "},"ē":{"ha":779,"x_min":0,"x_max":0,"o":"m 428 -17 b 715 22 524 -17 642 0 l 696 224 b 481 192 638 211 567 192 b 332 261 396 192 351 208 l 724 261 b 735 379 729 281 735 336 b 399 711 735 599 621 711 b 47 350 164 711 47 590 b 428 -17 47 103 171 -17 z m 158 746 l 631 746 l 631 919 l 158 919 z m 326 433 b 396 503 336 483 360 503 b 465 433 439 503 456 483 z "},"ę":{"ha":779,"x_min":0,"x_max":0,"o":"m 428 -17 b 474 -15 443 -17 457 -17 b 415 -137 435 -53 415 -96 b 628 -285 415 -215 486 -285 l 694 -126 b 614 -58 635 -99 614 -81 b 643 6 614 -43 624 -26 b 715 22 669 10 694 15 l 696 224 b 481 192 638 211 567 192 b 332 261 396 192 351 208 l 724 261 b 735 379 729 281 735 336 b 399 711 735 599 621 711 b 47 350 164 711 47 590 b 428 -17 47 103 171 -17 z m 326 433 b 396 503 336 483 360 503 b 465 433 439 503 456 483 z "},"ɛ":{"ha":811,"x_min":0,"x_max":0,"o":"m 436 -12 b 769 39 599 -12 700 21 l 744 208 b 461 150 706 196 600 150 b 336 217 369 150 336 171 b 481 276 336 261 390 276 l 550 276 l 550 436 l 481 436 b 371 493 411 436 371 453 b 476 550 371 533 406 550 b 690 518 563 550 654 526 l 717 688 b 443 713 633 703 540 713 b 78 522 190 713 78 643 b 203 368 78 443 117 389 b 42 201 93 351 42 292 b 436 -12 42 50 178 -12 z "},"ʃ":{"ha":397,"x_min":0,"x_max":0,"o":"m 65 -308 b 326 14 256 -308 322 -222 l 340 728 b 425 822 342 796 349 822 b 467 821 436 822 451 821 l 486 1025 b 332 1042 438 1035 388 1042 b 71 719 142 1042 75 956 l 57 7 b -26 -89 56 -62 49 -89 b -69 -86 -39 -89 -53 -87 l -89 -292 b 65 -308 -40 -301 10 -308 z "},"ẽ":{"ha":779,"x_min":0,"x_max":0,"o":"m 428 -17 b 715 22 524 -17 642 0 l 696 224 b 481 192 638 211 567 192 b 332 261 396 192 351 208 l 724 261 b 735 379 729 281 735 336 b 399 711 735 599 621 711 b 47 350 164 711 47 590 b 428 -17 47 103 171 -17 z m 133 817 l 181 751 b 265 797 208 781 233 797 b 503 735 331 797 410 735 b 647 892 575 735 640 796 l 600 960 b 515 911 569 926 544 911 b 278 975 450 911 371 975 b 133 817 204 975 151 928 z m 326 433 b 396 503 336 483 360 503 b 465 433 439 503 456 483 z "},"ǝ":{"ha":779,"x_min":0,"x_max":0,"o":"m 351 711 b 64 672 256 711 138 694 l 83 471 b 299 503 142 483 213 503 b 447 433 383 503 428 486 l 56 433 b 44 315 50 414 44 358 b 381 -17 44 96 158 -17 b 732 344 615 -17 732 104 b 351 711 732 592 608 711 z m 314 261 l 453 261 b 383 192 443 211 419 192 b 314 261 340 192 324 211 z "},"ə":{"ha":779,"x_min":0,"x_max":0,"o":"m 351 711 b 64 672 256 711 138 694 l 83 471 b 299 503 142 483 213 503 b 447 433 383 503 428 486 l 56 433 b 44 315 50 414 44 358 b 381 -17 44 96 158 -17 b 732 344 615 -17 732 104 b 351 711 732 592 608 711 z m 314 261 l 453 261 b 383 192 443 211 419 192 b 314 261 340 192 324 211 z "},"ʒ":{"ha":642,"x_min":0,"x_max":0,"o":"m 286 -281 b 642 39 518 -281 642 -168 b 497 283 642 161 603 242 l 618 486 l 618 694 l -1 694 l -1 458 l 343 458 l 260 319 l 246 319 l 133 319 l 133 114 l 246 114 b 376 32 328 114 376 93 b 264 -58 376 -31 346 -58 b 8 21 139 -58 43 4 l -14 -211 b 286 -281 49 -236 140 -281 z "},"ǯ":{"ha":642,"x_min":0,"x_max":0,"o":"m 286 -281 b 642 39 518 -281 642 -168 b 497 283 642 161 603 242 l 618 486 l 618 694 l -1 694 l -1 458 l 343 458 l 260 319 l 246 319 l 133 319 l 133 114 l 246 114 b 376 32 328 114 376 93 b 264 -58 376 -31 346 -58 b 8 21 139 -58 43 4 l -14 -211 b 286 -281 49 -236 140 -281 z m 14 958 l 161 736 l 481 736 l 628 958 l 371 958 l 321 824 l 271 958 z "},"f":{"ha":500,"x_min":0,"x_max":0,"o":"m 99 0 l 368 0 l 368 472 l 479 472 l 479 694 l 347 694 b 333 733 339 707 333 719 b 417 785 333 771 360 785 b 481 781 435 785 456 783 l 499 986 b 338 1003 444 997 389 1003 b 71 806 157 1003 71 931 b 99 694 71 764 85 728 l 1 694 l 1 472 l 99 472 z "},"g":{"ha":825,"x_min":0,"x_max":0,"o":"m 443 -169 l 435 -322 b 811 -82 707 -322 811 -256 b 619 124 811 51 744 124 b 344 85 494 124 392 85 b 314 111 322 85 314 92 b 413 150 314 132 358 150 b 772 431 651 150 772 244 b 658 657 772 533 733 610 b 779 711 656 690 701 711 l 728 933 b 521 703 599 933 503 828 b 413 711 486 708 450 711 b 56 431 175 711 56 617 b 172 203 56 324 94 249 b 22 19 71 178 22 118 b 190 -147 22 -83 86 -147 b 499 -94 307 -147 421 -94 b 546 -124 528 -94 546 -106 b 443 -169 546 -150 503 -169 z m 329 431 b 413 503 329 482 354 503 b 497 431 472 503 497 481 b 413 358 497 381 472 358 b 329 431 354 358 329 379 z "},"ğ":{"ha":825,"x_min":0,"x_max":0,"o":"m 443 -169 l 435 -322 b 811 -82 707 -322 811 -256 b 619 124 811 51 744 124 b 344 85 494 124 392 85 b 314 111 322 85 314 92 b 413 150 314 132 358 150 b 772 431 651 150 772 244 b 658 657 772 533 733 610 b 779 711 656 690 701 711 l 728 933 b 521 703 599 933 503 828 b 413 711 486 708 450 711 b 56 431 175 711 56 617 b 172 203 56 324 94 249 b 22 19 71 178 22 118 b 190 -147 22 -83 86 -147 b 499 -94 307 -147 421 -94 b 546 -124 528 -94 546 -106 b 443 -169 546 -150 503 -169 z m 122 931 b 336 725 122 800 199 725 b 547 931 474 725 547 799 l 407 932 b 336 858 407 882 385 858 b 263 932 286 858 263 882 z m 329 431 b 413 503 329 482 354 503 b 497 431 472 503 497 481 b 413 358 497 381 472 358 b 329 431 354 358 329 379 z "},"ǧ":{"ha":825,"x_min":0,"x_max":0,"o":"m 443 -169 l 435 -322 b 811 -82 707 -322 811 -256 b 619 124 811 51 744 124 b 344 85 494 124 392 85 b 314 111 322 85 314 92 b 413 150 314 132 358 150 b 772 431 651 150 772 244 b 658 657 772 533 733 610 b 779 711 656 690 701 711 l 728 933 b 521 703 599 933 503 828 b 413 711 486 708 450 711 b 56 431 175 711 56 617 b 172 203 56 324 94 249 b 22 19 71 178 22 118 b 190 -147 22 -83 86 -147 b 499 -94 307 -147 421 -94 b 546 -124 528 -94 546 -106 b 443 -169 546 -150 503 -169 z m 82 961 l 203 739 l 467 739 l 588 961 l 376 961 l 335 826 l 293 961 z m 329 431 b 413 503 329 482 354 503 b 497 431 472 503 497 481 b 413 358 497 381 472 358 b 329 431 354 358 329 379 z "},"ĝ":{"ha":825,"x_min":0,"x_max":0,"o":"m 443 -169 l 435 -322 b 811 -82 707 -322 811 -256 b 619 124 811 51 744 124 b 344 85 494 124 392 85 b 314 111 322 85 314 92 b 413 150 314 132 358 150 b 772 431 651 150 772 244 b 658 657 772 533 733 610 b 779 711 656 690 701 711 l 728 933 b 526 788 629 933 550 872 l 446 961 l 224 961 l 122 739 l 300 739 l 335 874 l 369 739 l 518 739 b 521 703 518 728 519 715 b 413 711 486 708 450 711 b 56 431 175 711 56 617 b 172 203 56 324 94 249 b 22 19 71 178 22 118 b 190 -147 22 -83 86 -147 b 499 -94 307 -147 421 -94 b 546 -124 528 -94 546 -106 b 443 -169 546 -150 503 -169 z m 329 431 b 413 503 329 482 354 503 b 497 431 472 503 497 481 b 413 358 497 381 472 358 b 329 431 354 358 329 379 z "},"ģ":{"ha":825,"x_min":0,"x_max":0,"o":"m 443 -169 l 435 -322 b 811 -82 707 -322 811 -256 b 619 124 811 51 744 124 b 344 85 494 124 392 85 b 314 111 322 85 314 92 b 413 150 314 132 358 150 b 772 431 651 150 772 244 b 658 657 772 533 733 610 b 779 711 656 690 701 711 l 728 933 b 521 703 599 933 503 828 b 413 711 486 708 450 711 b 56 431 175 711 56 617 b 172 203 56 324 94 249 b 22 19 71 178 22 118 b 190 -147 22 -83 86 -147 b 499 -94 307 -147 421 -94 b 546 -124 528 -94 546 -106 b 443 -169 546 -150 503 -169 z m 183 886 b 340 747 183 796 238 747 b 486 858 433 747 486 788 b 378 960 486 914 453 954 b 476 1013 388 986 419 1003 l 467 1101 b 183 886 281 1090 183 1007 z m 329 431 b 413 503 329 482 354 503 b 497 431 472 503 497 481 b 413 358 497 381 472 358 b 329 431 354 358 329 379 z "},"ġ":{"ha":825,"x_min":0,"x_max":0,"o":"m 443 -169 l 435 -322 b 811 -82 707 -322 811 -256 b 619 124 811 51 744 124 b 344 85 494 124 392 85 b 314 111 322 85 314 92 b 413 150 314 132 358 150 b 772 431 651 150 772 244 b 658 657 772 533 733 610 b 779 711 656 690 701 711 l 728 933 b 521 703 599 933 503 828 b 413 711 486 708 450 711 b 56 431 175 711 56 617 b 172 203 56 324 94 249 b 22 19 71 178 22 118 b 190 -147 22 -83 86 -147 b 499 -94 307 -147 421 -94 b 546 -124 528 -94 546 -106 b 443 -169 546 -150 503 -169 z m 199 825 b 338 715 199 750 244 715 b 474 825 428 715 474 750 b 338 938 474 900 428 938 b 199 825 244 938 199 900 z m 329 431 b 413 503 329 482 354 503 b 497 431 472 503 497 481 b 413 358 497 381 472 358 b 329 431 354 358 329 379 z "},"ḡ":{"ha":825,"x_min":0,"x_max":0,"o":"m 443 -169 l 435 -322 b 811 -82 707 -322 811 -256 b 619 124 811 51 744 124 b 344 85 494 124 392 85 b 314 111 322 85 314 92 b 413 150 314 132 358 150 b 772 431 651 150 772 244 b 658 657 772 533 733 610 b 779 711 656 690 701 711 l 728 933 b 521 703 599 933 503 828 b 413 711 486 708 450 711 b 56 431 175 711 56 617 b 172 203 56 324 94 249 b 22 19 71 178 22 118 b 190 -147 22 -83 86 -147 b 499 -94 307 -147 421 -94 b 546 -124 528 -94 546 -106 b 443 -169 546 -150 503 -169 z m 160 749 l 515 749 l 515 922 l 160 922 z m 329 431 b 413 503 329 482 354 503 b 497 431 472 503 497 481 b 413 358 497 381 472 358 b 329 431 354 358 329 379 z "},"ǥ":{"ha":814,"x_min":0,"x_max":0,"o":"m 378 -308 b 753 56 629 -308 753 -189 l 753 258 l 836 258 l 836 440 l 753 440 l 753 658 b 432 711 656 692 540 711 b 47 347 179 711 47 597 b 374 -17 47 99 171 -17 b 482 -7 410 -17 447 -12 b 343 -100 471 -75 431 -100 b 104 -57 272 -100 194 -85 l 85 -269 b 378 -308 176 -297 279 -308 z m 319 347 b 444 503 319 460 356 503 b 483 501 457 503 471 503 l 483 440 l 397 440 l 397 258 l 483 258 l 483 194 b 444 192 469 193 456 192 b 319 347 356 192 319 235 z "},"h":{"ha":817,"x_min":0,"x_max":0,"o":"m 64 0 l 332 0 l 332 467 b 401 478 356 474 381 478 b 486 375 465 478 486 453 l 486 0 l 756 0 l 756 483 b 535 711 756 625 674 711 b 332 657 463 711 392 688 l 332 986 l 64 986 z "},"ħ":{"ha":851,"x_min":0,"x_max":0,"o":"m 99 0 l 367 0 l 367 467 b 436 478 390 474 415 478 b 521 375 500 478 521 453 l 521 0 l 790 0 l 790 483 b 569 711 790 625 708 711 b 367 657 497 711 426 688 l 367 751 l 569 751 l 569 932 l 367 932 l 367 986 l 99 986 l 99 932 l 14 932 l 14 751 l 99 751 z "},"ḫ":{"ha":817,"x_min":0,"x_max":0,"o":"m 64 0 l 332 0 l 332 467 b 401 478 356 474 381 478 b 486 375 465 478 486 453 l 486 0 l 756 0 l 756 483 b 535 711 756 625 674 711 b 332 657 463 711 392 688 l 332 986 l 64 986 z m 176 -54 b 410 -260 176 -185 260 -260 b 640 -54 560 -260 640 -186 l 488 -53 b 410 -126 488 -103 463 -126 b 329 -53 356 -126 329 -103 z "},"ĥ":{"ha":817,"x_min":0,"x_max":0,"o":"m 64 0 l 332 0 l 332 467 b 401 478 356 474 381 478 b 486 375 465 478 486 453 l 486 0 l 756 0 l 756 483 b 535 711 756 625 674 711 b 332 657 463 711 392 688 l 332 986 l 64 986 z m 101 1021 l 358 1021 l 408 1156 l 458 1021 l 715 1021 l 568 1243 l 249 1243 z "},"ḥ":{"ha":817,"x_min":0,"x_max":0,"o":"m 64 0 l 332 0 l 332 467 b 401 478 356 474 381 478 b 486 375 465 478 486 453 l 486 0 l 756 0 l 756 483 b 535 711 756 625 674 711 b 332 657 463 711 392 688 l 332 986 l 64 986 z m 268 -156 b 407 -265 268 -231 314 -265 b 543 -156 497 -265 543 -231 b 407 -43 543 -81 497 -43 b 268 -156 314 -43 268 -81 z "},"ẖ":{"ha":817,"x_min":0,"x_max":0,"o":"m 64 0 l 332 0 l 332 467 b 401 478 356 474 381 478 b 486 375 465 478 486 453 l 486 0 l 756 0 l 756 483 b 535 711 756 625 674 711 b 332 657 463 711 392 688 l 332 986 l 64 986 z m 172 -250 l 644 -250 l 644 -56 l 172 -56 z "},"i":{"ha":390,"x_min":0,"x_max":0,"o":"m 60 0 l 329 0 l 329 694 l 60 694 z m 32 872 b 196 742 32 783 86 742 b 358 872 306 742 358 783 b 196 1007 358 963 306 1007 b 32 872 86 1007 32 963 z "},"ı":{"ha":371,"x_min":0,"x_max":0,"o":"m 51 0 l 319 0 l 319 694 l 51 694 z "},"í":{"ha":371,"x_min":0,"x_max":0,"o":"m 51 0 l 319 0 l 319 694 l 51 694 z m 44 736 l 267 736 l 385 958 l 114 958 z "},"ǐ":{"ha":371,"x_min":0,"x_max":0,"o":"m 51 0 l 319 0 l 319 694 l 51 694 z m -67 958 l 54 736 l 317 736 l 439 958 l 226 958 l 186 824 l 144 958 z "},"î":{"ha":371,"x_min":0,"x_max":0,"o":"m 51 0 l 319 0 l 319 694 l 51 694 z m -47 736 l 149 736 l 186 871 l 224 736 l 419 736 l 307 958 l 65 958 z "},"ï":{"ha":371,"x_min":0,"x_max":0,"o":"m 51 0 l 319 0 l 319 694 l 51 694 z m -50 829 b 61 719 -50 754 -12 719 b 169 829 133 719 169 754 b 61 942 169 904 133 942 b -50 829 -12 942 -50 904 z m 203 829 b 314 719 203 754 240 719 b 424 829 386 719 424 754 b 314 942 424 904 386 942 b 203 829 240 942 203 904 z "},"ḯ":{"ha":371,"x_min":0,"x_max":0,"o":"m 51 0 l 319 0 l 319 694 l 51 694 z m -54 829 b 58 719 -54 754 -17 719 b 169 829 132 719 169 754 b 58 942 169 904 132 942 b -54 829 -17 942 -54 904 z m 44 953 l 267 953 l 385 1175 l 114 1175 z m 204 829 b 317 719 204 754 242 719 b 428 829 390 719 428 754 b 317 942 428 904 390 942 b 204 829 242 942 204 904 z "},"ị":{"ha":390,"x_min":0,"x_max":0,"o":"m 60 0 l 329 0 l 329 694 l 60 694 z m 24 -160 b 193 -293 24 -251 81 -293 b 360 -160 304 -293 360 -251 b 193 -22 360 -68 304 -22 b 24 -160 81 -22 24 -68 z m 32 872 b 196 742 32 783 86 742 b 358 872 306 742 358 783 b 196 1007 358 963 306 1007 b 32 872 86 1007 32 963 z "},"ì":{"ha":371,"x_min":0,"x_max":0,"o":"m 51 0 l 319 0 l 319 694 l 51 694 z m -25 958 l 92 736 l 314 736 l 246 958 z "},"ỉ":{"ha":371,"x_min":0,"x_max":0,"o":"m 51 0 l 319 0 l 319 694 l 51 694 z m 46 897 b 126 829 106 869 126 851 b 85 747 126 811 113 790 l 129 713 b 325 908 260 749 325 832 b 113 1056 325 986 254 1056 z "},"ĳ":{"ha":763,"x_min":0,"x_max":0,"o":"m 60 0 l 329 0 l 329 694 l 60 694 z m 32 872 b 196 742 32 783 86 742 b 358 872 306 742 358 783 b 196 1007 358 963 306 1007 b 32 872 86 1007 32 963 z m 293 -292 b 446 -308 342 -301 392 -308 b 707 14 638 -308 707 -222 l 707 694 l 438 694 l 438 14 b 421 -68 438 -21 438 -49 b 354 -89 410 -82 389 -89 b 311 -86 342 -89 328 -87 z m 417 872 b 574 742 417 783 468 742 b 731 872 679 742 731 783 b 574 1007 731 961 678 1007 b 417 872 469 1007 417 961 z "},"ī":{"ha":371,"x_min":0,"x_max":0,"o":"m 51 0 l 319 0 l 319 694 l 51 694 z m 10 746 l 369 746 l 369 919 l 10 919 z "},"į":{"ha":371,"x_min":0,"x_max":0,"o":"m 51 0 l 124 0 b 35 -147 64 -42 35 -96 b 247 -294 35 -225 106 -294 l 314 -136 b 233 -68 254 -108 233 -90 b 267 0 233 -51 244 -33 l 319 0 l 319 694 l 51 694 z m 50 822 b 189 713 50 747 96 713 b 325 822 279 713 325 747 b 189 935 325 897 279 935 b 50 822 96 935 50 897 z "},"ĩ":{"ha":371,"x_min":0,"x_max":0,"o":"m 51 0 l 319 0 l 319 694 l 51 694 z m -33 817 l 7 751 b 79 797 32 781 53 797 b 282 735 136 797 203 735 b 406 892 343 735 399 796 l 365 960 b 293 911 339 926 318 911 b 90 975 236 911 169 975 b -33 817 28 975 -17 928 z "},"j":{"ha":372,"x_min":0,"x_max":0,"o":"m 56 -308 b 317 14 247 -308 317 -222 l 317 694 l 47 694 l 47 14 b 31 -68 47 -21 47 -49 b -36 -89 19 -82 -1 -89 b -79 -86 -49 -89 -62 -87 l -97 -292 b 56 -308 -49 -301 1 -308 z m 26 872 b 183 742 26 783 78 742 b 340 872 289 742 340 783 b 183 1007 340 961 288 1007 b 26 872 79 1007 26 961 z "},"ȷ":{"ha":372,"x_min":0,"x_max":0,"o":"m 56 -308 b 317 14 247 -308 317 -222 l 317 694 l 47 694 l 47 14 b 31 -68 47 -28 46 -50 b -36 -89 19 -82 -1 -89 b -79 -86 -49 -89 -62 -87 l -97 -292 b 56 -308 -49 -301 1 -308 z "},"ĵ":{"ha":372,"x_min":0,"x_max":0,"o":"m 56 -308 b 317 14 247 -308 317 -222 l 317 694 l 47 694 l 47 14 b 31 -68 47 -28 46 -50 b -36 -89 19 -82 -1 -89 b -79 -86 -49 -89 -62 -87 l -97 -292 b 56 -308 -49 -301 1 -308 z m -42 736 l 144 736 l 181 871 l 217 736 l 403 736 l 296 958 l 65 958 z "},"k":{"ha":826,"x_min":0,"x_max":0,"o":"m 64 0 l 333 0 l 333 264 l 389 264 l 515 0 l 821 0 l 611 369 l 804 694 l 515 694 l 403 486 l 333 486 l 333 986 l 64 986 z "},"ǩ":{"ha":826,"x_min":0,"x_max":0,"o":"m 64 0 l 333 0 l 333 264 l 389 264 l 515 0 l 821 0 l 611 369 l 804 694 l 515 694 l 403 486 l 333 486 l 333 986 l 64 986 z m 107 1250 l 254 1028 l 574 1028 l 721 1250 l 464 1250 l 414 1115 l 364 1250 z "},"ķ":{"ha":826,"x_min":0,"x_max":0,"o":"m 64 0 l 333 0 l 333 264 l 389 264 l 515 0 l 821 0 l 611 369 l 804 694 l 515 694 l 403 486 l 333 486 l 333 986 l 64 986 z m 279 -115 b 378 -201 279 -162 308 -197 b 288 -247 368 -225 339 -239 l 296 -324 b 553 -139 465 -314 553 -243 b 411 -19 553 -61 504 -19 b 279 -115 326 -19 279 -54 z "},"ḵ":{"ha":826,"x_min":0,"x_max":0,"o":"m 64 0 l 333 0 l 333 264 l 389 264 l 515 0 l 821 0 l 611 369 l 804 694 l 515 694 l 403 486 l 333 486 l 333 986 l 64 986 z m 178 -250 l 650 -250 l 650 -56 l 178 -56 z "},"l":{"ha":396,"x_min":0,"x_max":0,"o":"m 64 0 l 332 0 l 332 986 l 64 986 z "},"ĺ":{"ha":396,"x_min":0,"x_max":0,"o":"m 64 0 l 332 0 l 332 986 l 64 986 z m 57 1083 l 279 1083 l 397 1306 l 126 1306 z "},"ľ":{"ha":396,"x_min":0,"x_max":0,"o":"m 64 0 l 332 0 l 332 986 l 64 986 z m 396 904 b 514 778 396 835 432 783 b 407 711 503 744 468 724 l 417 600 b 724 869 618 614 724 718 b 554 1043 724 983 665 1043 b 396 904 453 1043 396 993 z "},"ḽ":{"ha":396,"x_min":0,"x_max":0,"o":"m 64 0 l 332 0 l 332 986 l 64 986 z m -108 -250 l 149 -250 l 199 -115 l 249 -250 l 506 -250 l 358 -28 l 39 -28 z "},"ļ":{"ha":396,"x_min":0,"x_max":0,"o":"m 64 0 l 332 0 l 332 986 l 64 986 z m 64 -115 b 163 -201 64 -162 93 -197 b 72 -247 153 -225 124 -239 l 81 -324 b 338 -139 250 -314 338 -243 b 196 -19 338 -61 289 -19 b 64 -115 111 -19 64 -54 z "},"ḷ":{"ha":396,"x_min":0,"x_max":0,"o":"m 64 0 l 332 0 l 332 986 l 64 986 z m 58 -156 b 197 -265 58 -231 104 -265 b 333 -156 288 -265 333 -231 b 197 -43 333 -81 288 -43 b 58 -156 104 -43 58 -81 z "},"ḹ":{"ha":396,"x_min":0,"x_max":0,"o":"m 64 0 l 332 0 l 332 986 l 64 986 z m -33 1093 l 439 1093 l 439 1267 l -33 1267 z m 58 -156 b 197 -265 58 -231 104 -265 b 333 -156 288 -265 333 -231 b 197 -43 333 -81 288 -43 b 58 -156 104 -43 58 -81 z "},"ḻ":{"ha":396,"x_min":0,"x_max":0,"o":"m 64 0 l 332 0 l 332 986 l 64 986 z m -37 -250 l 435 -250 l 435 -56 l -37 -56 z "},"ł":{"ha":396,"x_min":0,"x_max":0,"o":"m 64 0 l 332 0 l 332 499 l 486 554 l 421 733 l 332 701 l 332 986 l 64 986 l 64 603 l -62 557 l 3 379 l 64 401 z "},"m":{"ha":1239,"x_min":0,"x_max":0,"o":"m 64 0 l 333 0 l 333 467 b 401 478 357 474 381 478 b 486 375 465 478 486 453 l 486 0 l 756 0 l 756 375 b 753 468 756 411 754 446 b 824 478 776 475 803 478 b 908 375 889 478 908 453 l 908 0 l 1178 0 l 1178 483 b 957 711 1178 625 1096 711 b 713 633 867 711 778 674 b 535 711 674 683 614 711 b 317 649 456 711 379 683 l 286 694 l 64 694 z "},"ḿ":{"ha":1239,"x_min":0,"x_max":0,"o":"m 64 0 l 333 0 l 333 467 b 401 478 357 474 381 478 b 486 375 465 478 486 453 l 486 0 l 756 0 l 756 375 b 753 468 756 411 754 446 b 824 478 776 475 803 478 b 908 375 889 478 908 453 l 908 0 l 1178 0 l 1178 483 b 957 711 1178 625 1096 711 b 713 633 867 711 778 674 b 535 711 674 683 614 711 b 317 649 456 711 379 683 l 286 694 l 64 694 z m 478 736 l 700 736 l 818 958 l 547 958 z "},"ṁ":{"ha":1239,"x_min":0,"x_max":0,"o":"m 64 0 l 333 0 l 333 467 b 401 478 357 474 381 478 b 486 375 465 478 486 453 l 486 0 l 756 0 l 756 375 b 753 468 756 411 754 446 b 824 478 776 475 803 478 b 908 375 889 478 908 453 l 908 0 l 1178 0 l 1178 483 b 957 711 1178 625 1096 711 b 713 633 867 711 778 674 b 535 711 674 683 614 711 b 317 649 456 711 379 683 l 286 694 l 64 694 z m 483 822 b 622 713 483 747 529 713 b 758 822 713 713 758 747 b 622 935 758 897 713 935 b 483 822 529 935 483 897 z "},"ṃ":{"ha":1239,"x_min":0,"x_max":0,"o":"m 64 0 l 333 0 l 333 467 b 401 478 357 474 381 478 b 486 375 465 478 486 453 l 486 0 l 756 0 l 756 375 b 753 468 756 411 754 446 b 824 478 776 475 803 478 b 908 375 889 478 908 453 l 908 0 l 1178 0 l 1178 483 b 957 711 1178 625 1096 711 b 713 633 867 711 778 674 b 535 711 674 683 614 711 b 317 649 456 711 379 683 l 286 694 l 64 694 z m 479 -156 b 618 -265 479 -231 525 -265 b 754 -156 708 -265 754 -231 b 618 -43 754 -81 708 -43 b 479 -156 525 -43 479 -81 z "},"n":{"ha":817,"x_min":0,"x_max":0,"o":"m 64 0 l 333 0 l 333 467 b 401 478 356 474 381 478 b 486 375 465 478 486 453 l 486 0 l 756 0 l 756 483 b 535 711 756 625 674 711 b 317 649 456 711 379 683 l 286 694 l 64 694 z "},"ń":{"ha":817,"x_min":0,"x_max":0,"o":"m 64 0 l 333 0 l 333 467 b 401 478 356 474 381 478 b 486 375 465 478 486 453 l 486 0 l 756 0 l 756 483 b 535 711 756 625 674 711 b 317 649 456 711 379 683 l 286 694 l 64 694 z m 267 750 l 489 750 l 607 972 l 336 972 z "},"ň":{"ha":817,"x_min":0,"x_max":0,"o":"m 64 0 l 333 0 l 333 467 b 401 478 356 474 381 478 b 486 375 465 478 486 453 l 486 0 l 756 0 l 756 483 b 535 711 756 625 674 711 b 317 649 456 711 379 683 l 286 694 l 64 694 z m 101 972 l 249 750 l 568 750 l 715 972 l 458 972 l 408 838 l 358 972 z "},"ṋ":{"ha":817,"x_min":0,"x_max":0,"o":"m 64 0 l 333 0 l 333 467 b 401 478 356 474 381 478 b 486 375 465 478 486 453 l 486 0 l 756 0 l 756 483 b 535 711 756 625 674 711 b 317 649 456 711 379 683 l 286 694 l 64 694 z m 101 -250 l 358 -250 l 408 -115 l 458 -250 l 715 -250 l 568 -28 l 249 -28 z "},"ņ":{"ha":817,"x_min":0,"x_max":0,"o":"m 64 0 l 333 0 l 333 467 b 401 478 356 474 381 478 b 486 375 465 478 486 453 l 486 0 l 756 0 l 756 483 b 535 711 756 625 674 711 b 317 649 456 711 379 683 l 286 694 l 64 694 z m 274 -115 b 372 -201 274 -162 303 -197 b 282 -247 363 -225 333 -239 l 290 -324 b 547 -139 460 -314 547 -243 b 406 -19 547 -61 499 -19 b 274 -115 321 -19 274 -54 z "},"ṅ":{"ha":817,"x_min":0,"x_max":0,"o":"m 64 0 l 333 0 l 333 467 b 401 478 356 474 381 478 b 486 375 465 478 486 453 l 486 0 l 756 0 l 756 483 b 535 711 756 625 674 711 b 317 649 456 711 379 683 l 286 694 l 64 694 z m 272 836 b 411 726 272 761 318 726 b 547 836 501 726 547 761 b 411 949 547 911 501 949 b 272 836 318 949 272 911 z "},"ṇ":{"ha":817,"x_min":0,"x_max":0,"o":"m 64 0 l 333 0 l 333 467 b 401 478 356 474 381 478 b 486 375 465 478 486 453 l 486 0 l 756 0 l 756 483 b 535 711 756 625 674 711 b 317 649 456 711 379 683 l 286 694 l 64 694 z m 268 -156 b 407 -265 268 -231 314 -265 b 543 -156 497 -265 543 -231 b 407 -43 543 -81 497 -43 b 268 -156 314 -43 268 -81 z "},"ṉ":{"ha":817,"x_min":0,"x_max":0,"o":"m 64 0 l 333 0 l 333 467 b 401 478 356 474 381 478 b 486 375 465 478 486 453 l 486 0 l 756 0 l 756 483 b 535 711 756 625 674 711 b 317 649 456 711 379 683 l 286 694 l 64 694 z m 172 -250 l 644 -250 l 644 -56 l 172 -56 z "},"ñ":{"ha":817,"x_min":0,"x_max":0,"o":"m 64 0 l 333 0 l 333 467 b 401 478 356 474 381 478 b 486 375 465 478 486 453 l 486 0 l 756 0 l 756 483 b 535 711 756 625 674 711 b 317 649 456 711 379 683 l 286 694 l 64 694 z m 151 831 l 199 765 b 283 811 226 794 251 811 b 521 749 349 811 428 749 b 665 906 593 749 658 810 l 618 974 b 533 925 588 940 563 925 b 296 989 468 925 389 989 b 151 831 222 989 169 942 z "},"ŋ":{"ha":817,"x_min":0,"x_max":0,"o":"m 486 375 l 486 -278 l 756 -278 l 756 483 b 535 711 756 625 674 711 b 317 649 456 711 379 683 l 286 694 l 64 694 l 64 0 l 333 0 l 333 467 b 401 478 356 474 381 478 b 486 375 465 478 486 453 z "},"o":{"ha":806,"x_min":0,"x_max":0,"o":"m 403 -17 b 758 347 633 -17 758 97 b 403 711 758 597 633 711 b 47 347 172 711 47 597 b 403 -17 47 97 172 -17 z m 319 347 b 403 503 319 461 340 503 b 485 347 464 503 485 461 b 403 192 485 233 464 192 b 319 347 340 192 319 233 z "},"ó":{"ha":806,"x_min":0,"x_max":0,"o":"m 403 -17 b 758 347 633 -17 758 97 b 403 711 758 597 633 711 b 47 347 172 711 47 597 b 403 -17 47 97 172 -17 z m 261 753 l 483 753 l 601 975 l 331 975 z m 319 347 b 403 503 319 461 340 503 b 485 347 464 503 485 461 b 403 192 485 233 464 192 b 319 347 340 192 319 233 z "},"ǒ":{"ha":806,"x_min":0,"x_max":0,"o":"m 403 -17 b 758 347 633 -17 758 97 b 403 711 758 597 633 711 b 47 347 172 711 47 597 b 403 -17 47 97 172 -17 z m 96 975 l 243 753 l 563 753 l 710 975 l 453 975 l 403 840 l 353 975 z m 319 347 b 403 503 319 461 340 503 b 485 347 464 503 485 461 b 403 192 485 233 464 192 b 319 347 340 192 319 233 z "},"ô":{"ha":806,"x_min":0,"x_max":0,"o":"m 403 -17 b 758 347 633 -17 758 97 b 403 711 758 597 633 711 b 47 347 172 711 47 597 b 403 -17 47 97 172 -17 z m 96 753 l 353 753 l 403 888 l 453 753 l 710 753 l 563 975 l 243 975 z m 319 347 b 403 503 319 461 340 503 b 485 347 464 503 485 461 b 403 192 485 233 464 192 b 319 347 340 192 319 233 z "},"ố":{"ha":806,"x_min":0,"x_max":0,"o":"m 403 -17 b 758 347 633 -17 758 97 b 403 711 758 597 633 711 b 47 347 172 711 47 597 b 403 -17 47 97 172 -17 z m 96 753 l 353 753 l 403 888 l 453 753 l 710 753 l 563 975 l 500 975 l 601 1124 l 331 1124 l 271 975 l 243 975 z m 319 347 b 403 503 319 461 340 503 b 485 347 464 503 485 461 b 403 192 485 233 464 192 b 319 347 340 192 319 233 z "},"ộ":{"ha":806,"x_min":0,"x_max":0,"o":"m 403 -17 b 758 347 633 -17 758 97 b 403 711 758 597 633 711 b 47 347 172 711 47 597 b 403 -17 47 97 172 -17 z m 96 753 l 353 753 l 403 888 l 453 753 l 710 753 l 563 975 l 243 975 z m 263 -156 b 401 -265 263 -231 308 -265 b 538 -156 492 -265 538 -231 b 401 -43 538 -81 492 -43 b 263 -156 308 -43 263 -81 z m 319 347 b 403 503 319 461 340 503 b 485 347 464 503 485 461 b 403 192 485 233 464 192 b 319 347 340 192 319 233 z "},"ồ":{"ha":806,"x_min":0,"x_max":0,"o":"m 403 -17 b 758 347 633 -17 758 97 b 403 711 758 597 633 711 b 47 347 172 711 47 597 b 403 -17 47 97 172 -17 z m 96 753 l 353 753 l 403 888 l 453 753 l 710 753 l 563 975 l 521 975 l 463 1129 l 192 1129 l 293 975 l 243 975 z m 319 347 b 403 503 319 461 340 503 b 485 347 464 503 485 461 b 403 192 485 233 464 192 b 319 347 340 192 319 233 z "},"ổ":{"ha":806,"x_min":0,"x_max":0,"o":"m 403 -17 b 758 347 633 -17 758 97 b 403 711 758 597 633 711 b 47 347 172 711 47 597 b 403 -17 47 97 172 -17 z m 96 753 l 353 753 l 403 888 l 453 753 l 710 753 l 563 975 l 438 975 b 542 1132 507 1017 542 1076 b 329 1279 542 1210 471 1279 l 263 1121 b 343 1053 322 1093 343 1075 b 304 975 343 1035 331 1015 l 243 975 z m 319 347 b 403 503 319 461 340 503 b 485 347 464 503 485 461 b 403 192 485 233 464 192 b 319 347 340 192 319 233 z "},"ỗ":{"ha":806,"x_min":0,"x_max":0,"o":"m 403 -17 b 758 347 633 -17 758 97 b 403 711 758 597 633 711 b 47 347 172 711 47 597 b 403 -17 47 97 172 -17 z m 88 753 l 344 753 l 394 888 l 444 753 l 701 753 l 554 975 b 628 1115 593 1000 624 1049 l 585 1183 b 507 1135 557 1150 535 1135 b 292 1199 449 1135 376 1199 b 161 1040 225 1199 178 1151 l 204 975 b 281 1021 229 1004 253 1021 b 415 975 319 1021 365 993 l 235 975 z m 319 347 b 403 503 319 461 340 503 b 485 347 464 503 485 461 b 403 192 485 233 464 192 b 319 347 340 192 319 233 z "},"ö":{"ha":806,"x_min":0,"x_max":0,"o":"m 403 -17 b 758 347 633 -17 758 97 b 403 711 758 597 633 711 b 47 347 172 711 47 597 b 403 -17 47 97 172 -17 z m 107 846 b 246 736 107 771 154 736 b 382 846 336 736 382 771 b 246 958 382 921 336 958 b 107 846 154 958 107 921 z m 319 347 b 403 503 319 461 340 503 b 485 347 464 503 485 461 b 403 192 485 233 464 192 b 319 347 340 192 319 233 z m 424 846 b 563 736 424 771 469 736 b 699 846 653 736 699 771 b 563 958 699 921 653 958 b 424 846 469 958 424 921 z "},"ȫ":{"ha":806,"x_min":0,"x_max":0,"o":"m 403 -17 b 758 347 633 -17 758 97 b 403 711 758 597 633 711 b 47 347 172 711 47 597 b 403 -17 47 97 172 -17 z m 107 846 b 246 736 107 771 154 736 b 382 846 336 736 382 771 b 246 958 382 921 336 958 b 107 846 154 958 107 921 z m 171 979 l 643 979 l 643 1153 l 171 1153 z m 319 347 b 403 503 319 461 340 503 b 485 347 464 503 485 461 b 403 192 485 233 464 192 b 319 347 340 192 319 233 z m 424 846 b 563 736 424 771 469 736 b 699 846 653 736 699 771 b 563 958 699 921 653 958 b 424 846 469 958 424 921 z "},"ọ":{"ha":806,"x_min":0,"x_max":0,"o":"m 403 -17 b 758 347 633 -17 758 97 b 403 711 758 597 633 711 b 47 347 172 711 47 597 b 403 -17 47 97 172 -17 z m 263 -156 b 401 -265 263 -231 308 -265 b 538 -156 492 -265 538 -231 b 401 -43 538 -81 492 -43 b 263 -156 308 -43 263 -81 z m 319 347 b 403 503 319 461 340 503 b 485 347 464 503 485 461 b 403 192 485 233 464 192 b 319 347 340 192 319 233 z "},"ò":{"ha":806,"x_min":0,"x_max":0,"o":"m 403 -17 b 758 347 633 -17 758 97 b 403 711 758 597 633 711 b 47 347 172 711 47 597 b 403 -17 47 97 172 -17 z m 192 975 l 308 753 l 531 753 l 463 975 z m 319 347 b 403 503 319 461 340 503 b 485 347 464 503 485 461 b 403 192 485 233 464 192 b 319 347 340 192 319 233 z "},"ỏ":{"ha":806,"x_min":0,"x_max":0,"o":"m 403 -17 b 758 347 633 -17 758 97 b 403 711 758 597 633 711 b 47 347 172 711 47 597 b 403 -17 47 97 172 -17 z m 263 914 b 343 846 322 886 343 868 b 301 764 343 828 329 807 l 346 729 b 542 925 476 765 542 849 b 329 1072 542 1003 471 1072 z m 319 347 b 403 503 319 461 340 503 b 485 347 464 503 485 461 b 403 192 485 233 464 192 b 319 347 340 192 319 233 z "},"ơ":{"ha":806,"x_min":0,"x_max":0,"o":"m 403 -17 b 758 347 633 -17 758 97 b 724 540 758 425 746 489 b 890 596 797 532 857 556 b 822 846 940 656 931 754 l 669 767 b 688 663 697 707 701 681 b 647 642 681 654 668 649 b 403 711 588 689 506 711 b 47 347 172 711 47 597 b 403 -17 47 97 172 -17 z m 319 347 b 403 503 319 461 340 503 b 485 347 464 503 485 461 b 403 192 485 233 464 192 b 319 347 340 192 319 233 z "},"ớ":{"ha":806,"x_min":0,"x_max":0,"o":"m 403 -17 b 758 347 633 -17 758 97 b 724 540 758 425 746 489 b 890 596 797 532 857 556 b 822 846 940 656 931 754 l 669 767 b 688 663 697 707 701 681 b 647 642 681 654 668 649 b 403 711 588 689 506 711 b 47 347 172 711 47 597 b 403 -17 47 97 172 -17 z m 261 753 l 483 753 l 601 975 l 331 975 z m 319 347 b 403 503 319 461 340 503 b 485 347 464 503 485 461 b 403 192 485 233 464 192 b 319 347 340 192 319 233 z "},"ợ":{"ha":806,"x_min":0,"x_max":0,"o":"m 403 -17 b 758 347 633 -17 758 97 b 724 540 758 425 746 489 b 890 596 797 532 857 556 b 822 846 940 656 931 754 l 669 767 b 688 663 697 707 701 681 b 647 642 681 654 668 649 b 403 711 588 689 506 711 b 47 347 172 711 47 597 b 403 -17 47 97 172 -17 z m 263 -156 b 401 -265 263 -231 308 -265 b 538 -156 492 -265 538 -231 b 401 -43 538 -81 492 -43 b 263 -156 308 -43 263 -81 z m 319 347 b 403 503 319 461 340 503 b 485 347 464 503 485 461 b 403 192 485 233 464 192 b 319 347 340 192 319 233 z "},"ờ":{"ha":806,"x_min":0,"x_max":0,"o":"m 403 -17 b 758 347 633 -17 758 97 b 724 540 758 425 746 489 b 890 596 797 532 857 556 b 822 846 940 656 931 754 l 669 767 b 688 663 697 707 701 681 b 647 642 681 654 668 649 b 403 711 588 689 506 711 b 47 347 172 711 47 597 b 403 -17 47 97 172 -17 z m 192 975 l 308 753 l 531 753 l 463 975 z m 319 347 b 403 503 319 461 340 503 b 485 347 464 503 485 461 b 403 192 485 233 464 192 b 319 347 340 192 319 233 z "},"ở":{"ha":806,"x_min":0,"x_max":0,"o":"m 403 -17 b 758 347 633 -17 758 97 b 724 540 758 425 746 489 b 890 596 797 532 857 556 b 822 846 940 656 931 754 l 669 767 b 688 663 697 707 701 681 b 647 642 681 654 668 649 b 403 711 588 689 506 711 b 47 347 172 711 47 597 b 403 -17 47 97 172 -17 z m 263 914 b 343 846 322 886 343 868 b 301 764 343 828 329 807 l 346 729 b 542 925 476 765 542 849 b 329 1072 542 1003 471 1072 z m 319 347 b 403 503 319 461 340 503 b 485 347 464 503 485 461 b 403 192 485 233 464 192 b 319 347 340 192 319 233 z "},"ỡ":{"ha":806,"x_min":0,"x_max":0,"o":"m 403 -17 b 758 347 633 -17 758 97 b 724 540 758 425 746 489 b 890 596 797 532 857 556 b 822 846 940 656 931 754 l 669 767 b 688 663 697 707 701 681 b 647 642 681 654 668 649 b 403 711 588 689 506 711 b 47 347 172 711 47 597 b 403 -17 47 97 172 -17 z m 146 833 l 193 768 b 278 814 221 797 246 814 b 515 751 343 814 422 751 b 660 908 588 751 653 813 l 613 976 b 528 928 582 943 557 928 b 290 992 463 928 383 992 b 146 833 217 992 164 944 z m 319 347 b 403 503 319 461 340 503 b 485 347 464 503 485 461 b 403 192 485 233 464 192 b 319 347 340 192 319 233 z "},"ő":{"ha":806,"x_min":0,"x_max":0,"o":"m 403 -17 b 758 347 633 -17 758 97 b 403 711 758 597 633 711 b 47 347 172 711 47 597 b 403 -17 47 97 172 -17 z m 108 767 l 331 767 l 447 989 l 176 989 z m 319 347 b 403 503 319 461 340 503 b 485 347 464 503 485 461 b 403 192 485 233 464 192 b 319 347 340 192 319 233 z m 414 767 l 636 767 l 753 989 l 482 989 z "},"ō":{"ha":806,"x_min":0,"x_max":0,"o":"m 403 -17 b 758 347 633 -17 758 97 b 403 711 758 597 633 711 b 47 347 172 711 47 597 b 403 -17 47 97 172 -17 z m 171 763 l 643 763 l 643 936 l 171 936 z m 319 347 b 403 503 319 461 340 503 b 485 347 464 503 485 461 b 403 192 485 233 464 192 b 319 347 340 192 319 233 z "},"ṓ":{"ha":806,"x_min":0,"x_max":0,"o":"m 403 -17 b 758 347 633 -17 758 97 b 403 711 758 597 633 711 b 47 347 172 711 47 597 b 403 -17 47 97 172 -17 z m 171 763 l 643 763 l 643 936 l 171 936 z m 261 971 l 483 971 l 601 1193 l 331 1193 z m 319 347 b 403 503 319 461 340 503 b 485 347 464 503 485 461 b 403 192 485 233 464 192 b 319 347 340 192 319 233 z "},"ṑ":{"ha":806,"x_min":0,"x_max":0,"o":"m 403 -17 b 758 347 633 -17 758 97 b 403 711 758 597 633 711 b 47 347 172 711 47 597 b 403 -17 47 97 172 -17 z m 171 763 l 643 763 l 643 936 l 171 936 z m 192 1193 l 308 971 l 531 971 l 463 1193 z m 319 347 b 403 503 319 461 340 503 b 485 347 464 503 485 461 b 403 192 485 233 464 192 b 319 347 340 192 319 233 z "},"ɔ":{"ha":638,"x_min":0,"x_max":0,"o":"m 236 -17 b 590 347 467 -17 590 97 b 236 711 590 596 467 711 b 33 686 174 711 85 701 l 53 486 b 190 503 83 494 138 503 b 318 347 282 503 318 460 b 190 192 318 235 282 192 b 53 210 136 192 83 201 l 33 8 b 236 -17 85 -6 171 -17 z "},"ø":{"ha":806,"x_min":0,"x_max":0,"o":"m 403 -17 b 758 347 633 -17 758 97 b 581 681 758 522 697 631 l 599 739 l 444 739 l 436 710 l 403 711 b 47 347 172 711 47 597 b 225 14 47 172 108 63 l 208 -43 l 364 -43 l 372 -15 z m 319 347 b 372 499 319 440 333 485 l 319 326 z m 436 197 l 485 360 l 485 347 b 436 197 485 257 472 213 z "},"ǿ":{"ha":806,"x_min":0,"x_max":0,"o":"m 403 -17 b 758 347 633 -17 758 97 b 581 681 758 522 697 631 l 599 739 l 444 739 l 436 710 l 403 711 b 47 347 172 711 47 597 b 225 14 47 172 108 63 l 208 -43 l 364 -43 l 372 -15 z m 261 753 l 483 753 l 601 975 l 331 975 z m 319 347 b 372 499 319 440 333 485 l 319 326 z m 436 197 l 485 360 l 485 347 b 436 197 485 257 472 213 z "},"õ":{"ha":806,"x_min":0,"x_max":0,"o":"m 403 -17 b 758 347 633 -17 758 97 b 403 711 758 597 633 711 b 47 347 172 711 47 597 b 403 -17 47 97 172 -17 z m 146 833 l 193 768 b 278 814 221 797 246 814 b 515 751 343 814 422 751 b 660 908 588 751 653 813 l 613 976 b 528 928 582 943 557 928 b 290 992 463 928 383 992 b 146 833 217 992 164 944 z m 319 347 b 403 503 319 461 340 503 b 485 347 464 503 485 461 b 403 192 485 233 464 192 b 319 347 340 192 319 233 z "},"œ":{"ha":1219,"x_min":0,"x_max":0,"o":"m 403 -17 b 626 39 494 -17 569 1 b 868 -17 688 1 767 -17 b 1156 22 964 -17 1082 0 l 1136 224 b 921 192 1078 211 1007 192 b 772 261 836 192 792 208 l 1164 261 b 1175 379 1169 281 1175 336 b 839 711 1175 599 1061 711 b 622 658 750 711 678 693 b 403 711 565 694 492 711 b 47 347 172 711 47 597 b 403 -17 47 97 172 -17 z m 319 347 b 403 503 319 461 340 503 b 485 347 464 503 485 461 b 403 192 485 233 464 192 b 319 347 340 192 319 233 z m 767 433 b 836 503 776 483 800 503 b 906 433 879 503 896 483 z "},"p":{"ha":819,"x_min":0,"x_max":0,"o":"m 65 658 l 65 -292 l 335 -292 l 335 -7 b 444 -17 369 -12 403 -17 b 771 347 647 -17 771 99 b 386 711 771 597 639 711 b 65 658 276 711 163 692 z m 335 194 l 335 501 b 374 503 347 503 361 503 b 501 347 465 503 501 460 b 374 192 501 235 465 192 b 335 194 361 192 346 193 z "},"þ":{"ha":810,"x_min":0,"x_max":0,"o":"m 56 -292 l 325 -292 l 326 -7 b 436 -17 361 -12 399 -17 b 763 347 639 -17 763 99 b 436 711 763 596 639 711 b 326 701 399 711 361 707 l 326 986 l 57 986 z m 326 193 l 326 500 b 365 503 340 501 353 503 b 493 347 457 503 493 460 b 365 192 493 235 457 192 b 326 193 351 192 339 192 z "},"q":{"ha":817,"x_min":0,"x_max":0,"o":"m 483 -7 l 483 -292 l 753 -292 l 753 658 b 432 711 656 692 540 711 b 47 347 179 711 47 597 b 374 -17 47 99 171 -17 b 483 -7 411 -17 449 -12 z m 319 347 b 444 503 319 443 343 503 b 483 501 457 503 471 503 l 483 194 b 444 192 469 193 456 192 b 319 347 343 192 319 251 z "},"r":{"ha":617,"x_min":0,"x_max":0,"o":"m 64 0 l 333 0 l 333 332 b 456 464 333 432 375 464 b 574 447 490 464 531 460 l 597 694 b 504 711 565 706 532 711 b 333 626 440 711 388 681 l 286 694 l 64 694 z "},"ŕ":{"ha":617,"x_min":0,"x_max":0,"o":"m 64 0 l 333 0 l 333 332 b 456 464 333 432 375 464 b 574 447 490 464 531 460 l 597 694 b 504 711 565 706 532 711 b 333 626 440 711 388 681 l 286 694 l 64 694 z m 167 736 l 389 736 l 507 958 l 236 958 z "},"ř":{"ha":617,"x_min":0,"x_max":0,"o":"m 64 0 l 333 0 l 333 332 b 456 464 333 432 375 464 b 574 447 490 464 531 460 l 597 694 b 504 711 565 706 532 711 b 333 626 440 711 388 681 l 286 694 l 64 694 z m 1 958 l 149 736 l 468 736 l 615 958 l 358 958 l 308 824 l 258 958 z "},"ŗ":{"ha":617,"x_min":0,"x_max":0,"o":"m 64 0 l 333 0 l 333 332 b 456 464 333 432 375 464 b 574 447 490 464 531 460 l 597 694 b 504 711 565 706 532 711 b 333 626 440 711 388 681 l 286 694 l 64 694 z m 174 -115 b 272 -201 174 -162 203 -197 b 182 -247 263 -225 233 -239 l 190 -324 b 447 -139 360 -314 447 -243 b 306 -19 447 -61 399 -19 b 174 -115 221 -19 174 -54 z "},"ṝ":{"ha":617,"x_min":0,"x_max":0,"o":"m 64 0 l 333 0 l 333 332 b 456 464 333 432 375 464 b 574 447 490 464 531 460 l 597 694 b 504 711 565 706 532 711 b 333 626 440 711 388 681 l 286 694 l 64 694 z m 76 746 l 549 746 l 549 919 l 76 919 z m 168 -156 b 307 -265 168 -231 214 -265 b 443 -156 397 -265 443 -231 b 307 -43 443 -81 397 -43 b 168 -156 214 -43 168 -81 z "},"ṟ":{"ha":617,"x_min":0,"x_max":0,"o":"m 64 0 l 333 0 l 333 332 b 456 464 333 432 375 464 b 574 447 490 464 531 460 l 597 694 b 504 711 565 706 532 711 b 333 626 440 711 388 681 l 286 694 l 64 694 z m 72 -250 l 544 -250 l 544 -56 l 72 -56 z "},"s":{"ha":683,"x_min":0,"x_max":0,"o":"m 336 -17 b 656 228 544 -17 656 64 b 450 447 656 378 557 429 b 313 481 386 458 313 458 b 382 503 313 494 331 503 b 599 471 439 503 506 492 l 618 672 b 336 711 529 696 424 711 b 40 469 156 711 40 629 b 225 250 40 331 125 272 b 383 214 297 235 383 236 b 301 192 383 200 365 192 b 53 231 218 192 146 206 l 35 29 b 336 -17 122 3 233 -17 z "},"ś":{"ha":683,"x_min":0,"x_max":0,"o":"m 336 -17 b 656 228 544 -17 656 64 b 450 447 656 378 557 429 b 313 481 386 458 313 458 b 382 503 313 494 331 503 b 599 471 439 503 506 492 l 618 672 b 336 711 529 696 424 711 b 40 469 156 711 40 629 b 225 250 40 331 125 272 b 383 214 297 235 383 236 b 301 192 383 200 365 192 b 53 231 218 192 146 206 l 35 29 b 336 -17 122 3 233 -17 z m 200 736 l 422 736 l 540 958 l 269 958 z "},"ꞌ":{"ha":383,"x_min":0,"x_max":0,"o":"m 78 347 l 306 347 l 335 986 l 49 986 z "},"š":{"ha":683,"x_min":0,"x_max":0,"o":"m 336 -17 b 656 228 544 -17 656 64 b 450 447 656 378 557 429 b 313 481 386 458 313 458 b 382 503 313 494 331 503 b 599 471 439 503 506 492 l 618 672 b 336 711 529 696 424 711 b 40 469 156 711 40 629 b 225 250 40 331 125 272 b 383 214 297 235 383 236 b 301 192 383 200 365 192 b 53 231 218 192 146 206 l 35 29 b 336 -17 122 3 233 -17 z m 35 958 l 182 736 l 501 736 l 649 958 l 392 958 l 342 824 l 292 958 z "},"ş":{"ha":683,"x_min":0,"x_max":0,"o":"m 196 -150 l 263 -308 b 488 -143 414 -308 488 -228 b 419 -11 488 -96 465 -49 b 656 228 574 8 656 88 b 450 447 656 378 557 429 b 313 481 386 458 313 458 b 382 503 313 494 331 503 b 599 471 439 503 506 492 l 618 672 b 336 711 529 696 424 711 b 40 469 156 711 40 629 b 225 250 40 331 125 272 b 383 214 297 235 383 236 b 301 192 383 200 365 192 b 53 231 218 192 146 206 l 35 29 b 297 -15 111 6 206 -11 b 301 -44 300 -26 301 -36 b 196 -150 301 -97 260 -121 z "},"ŝ":{"ha":683,"x_min":0,"x_max":0,"o":"m 336 -17 b 656 228 544 -17 656 64 b 450 447 656 378 557 429 b 313 481 386 458 313 458 b 382 503 313 494 331 503 b 599 471 439 503 506 492 l 618 672 b 336 711 529 696 424 711 b 40 469 156 711 40 629 b 225 250 40 331 125 272 b 383 214 297 235 383 236 b 301 192 383 200 365 192 b 53 231 218 192 146 206 l 35 29 b 336 -17 122 3 233 -17 z m 35 736 l 292 736 l 342 871 l 392 736 l 649 736 l 501 958 l 182 958 z "},"ș":{"ha":683,"x_min":0,"x_max":0,"o":"m 336 -17 b 656 228 544 -17 656 64 b 450 447 656 378 557 429 b 313 481 386 458 313 458 b 382 503 313 494 331 503 b 599 471 439 503 506 492 l 618 672 b 336 711 529 696 424 711 b 40 469 156 711 40 629 b 225 250 40 331 125 272 b 383 214 297 235 383 236 b 301 192 383 200 365 192 b 53 231 218 192 146 206 l 35 29 b 336 -17 122 3 233 -17 z m 207 -115 b 306 -201 207 -162 236 -197 b 215 -247 296 -225 267 -239 l 224 -324 b 481 -139 393 -314 481 -243 b 339 -19 481 -61 432 -19 b 207 -115 254 -19 207 -54 z "},"ṣ":{"ha":683,"x_min":0,"x_max":0,"o":"m 336 -17 b 656 228 544 -17 656 64 b 450 447 656 378 557 429 b 313 481 386 458 313 458 b 382 503 313 494 331 503 b 599 471 439 503 506 492 l 618 672 b 336 711 529 696 424 711 b 40 469 156 711 40 629 b 225 250 40 331 125 272 b 383 214 297 235 383 236 b 301 192 383 200 365 192 b 53 231 218 192 146 206 l 35 29 b 336 -17 122 3 233 -17 z m 201 -156 b 340 -265 201 -231 247 -265 b 476 -156 431 -265 476 -231 b 340 -43 476 -81 431 -43 b 201 -156 247 -43 201 -81 z "},"ß":{"ha":907,"x_min":0,"x_max":0,"o":"m 413 178 l 438 -44 b 879 293 792 -44 879 107 b 690 575 879 479 792 565 b 815 756 772 593 815 658 b 451 1003 815 917 688 1003 b 93 790 224 1003 93 925 b 113 694 93 761 100 729 l 1 694 l 1 472 l 85 472 l 85 0 l 354 0 l 356 685 b 451 785 356 757 382 785 b 544 724 521 785 544 763 b 413 654 544 665 496 654 l 413 472 b 585 325 538 472 585 415 b 413 178 585 235 538 178 z "},"ſ":{"ha":486,"x_min":0,"x_max":0,"o":"m 85 0 l 354 0 l 354 694 b 319 746 346 707 319 719 b 403 785 319 771 346 785 b 467 781 421 785 442 783 l 485 986 b 324 1003 431 997 375 1003 b 57 806 143 1003 57 931 b 85 694 57 764 71 728 l 1 694 l 1 472 l 85 472 z "},"t":{"ha":536,"x_min":0,"x_max":0,"o":"m 339 -17 b 506 0 407 -17 457 -10 l 488 204 b 443 203 471 204 457 203 b 347 306 371 203 347 226 l 347 472 l 479 472 l 479 694 l 347 694 l 347 872 l 167 872 b 1 667 129 722 63 676 l 1 472 l 78 472 l 78 306 b 339 -17 78 69 147 -17 z "},"ŧ":{"ha":536,"x_min":0,"x_max":0,"o":"m 339 -17 b 506 0 407 -17 457 -10 l 488 204 b 443 203 471 204 457 203 b 347 306 371 203 347 226 l 347 319 l 443 319 l 443 431 l 347 431 l 347 472 l 479 472 l 479 694 l 347 694 l 347 872 l 167 872 b 1 667 129 722 63 676 l 1 472 l 78 472 l 78 431 l 1 431 l 1 319 l 78 319 l 78 306 b 339 -17 78 69 147 -17 z "},"ť":{"ha":536,"x_min":0,"x_max":0,"o":"m 339 -17 b 506 0 407 -17 457 -10 l 488 204 b 443 203 471 204 457 203 b 347 306 371 203 347 226 l 347 472 l 479 472 l 479 694 l 347 694 l 347 872 l 167 872 b 1 667 129 722 63 676 l 1 472 l 78 472 l 78 306 b 339 -17 78 69 147 -17 z m 536 904 b 654 778 536 835 572 783 b 547 711 643 744 608 724 l 557 600 b 864 869 758 614 864 718 b 694 1043 864 983 806 1043 b 536 904 593 1043 536 993 z "},"ţ":{"ha":536,"x_min":0,"x_max":0,"o":"m 122 -150 l 189 -308 b 414 -143 340 -308 414 -228 b 353 -17 414 -99 393 -53 b 506 0 414 -15 460 -10 l 488 204 b 443 203 471 204 457 203 b 347 306 371 203 347 226 l 347 472 l 479 472 l 479 694 l 347 694 l 347 872 l 167 872 b 1 667 129 722 63 676 l 1 472 l 78 472 l 78 306 b 219 0 78 128 118 35 b 228 -44 225 -17 228 -32 b 122 -150 228 -97 186 -121 z "},"ṱ":{"ha":536,"x_min":0,"x_max":0,"o":"m 339 -17 b 506 0 407 -17 457 -10 l 488 204 b 443 203 471 204 457 203 b 347 306 371 203 347 226 l 347 472 l 479 472 l 479 694 l 347 694 l 347 872 l 167 872 b 1 667 129 722 63 676 l 1 472 l 78 472 l 78 306 b 339 -17 78 69 147 -17 z m -4 -250 l 224 -250 l 268 -115 l 311 -250 l 539 -250 l 408 -28 l 126 -28 z "},"ț":{"ha":536,"x_min":0,"x_max":0,"o":"m 339 -17 b 506 0 407 -17 457 -10 l 488 204 b 443 203 471 204 457 203 b 347 306 371 203 347 226 l 347 472 l 479 472 l 479 694 l 347 694 l 347 872 l 167 872 b 1 667 129 722 63 676 l 1 472 l 78 472 l 78 306 b 339 -17 78 69 147 -17 z m 133 -115 b 232 -201 133 -162 163 -197 b 142 -247 222 -225 193 -239 l 150 -324 b 407 -139 319 -314 407 -243 b 265 -19 407 -61 358 -19 b 133 -115 181 -19 133 -54 z "},"ẗ":{"ha":536,"x_min":0,"x_max":0,"o":"m 339 -17 b 506 0 407 -17 457 -10 l 488 204 b 443 203 471 204 457 203 b 347 306 371 203 347 226 l 347 472 l 479 472 l 479 694 l 347 694 l 347 872 l 181 872 b 247 972 225 888 247 919 b 111 1085 247 1047 201 1085 b -28 972 19 1085 -28 1047 b 111 863 -28 897 19 863 b 165 868 132 863 150 864 b 1 667 128 721 63 676 l 1 472 l 78 472 l 78 306 b 339 -17 78 69 147 -17 z m 289 972 b 428 863 289 897 335 863 b 564 972 518 863 564 897 b 428 1085 564 1047 518 1085 b 289 972 335 1085 289 1047 z "},"ṭ":{"ha":536,"x_min":0,"x_max":0,"o":"m 339 -17 b 506 0 407 -17 457 -10 l 488 204 b 443 203 471 204 457 203 b 347 306 371 203 347 226 l 347 472 l 479 472 l 479 694 l 347 694 l 347 872 l 167 872 b 1 667 129 722 63 676 l 1 472 l 78 472 l 78 306 b 339 -17 78 69 147 -17 z m 128 -156 b 267 -265 128 -231 174 -265 b 403 -156 357 -265 403 -231 b 267 -43 403 -81 357 -43 b 128 -156 174 -43 128 -81 z "},"ṯ":{"ha":536,"x_min":0,"x_max":0,"o":"m 339 -17 b 506 0 407 -17 457 -10 l 488 204 b 443 203 471 204 457 203 b 347 306 371 203 347 226 l 347 472 l 479 472 l 479 694 l 347 694 l 347 872 l 167 872 b 1 667 129 722 63 676 l 1 472 l 78 472 l 78 306 b 339 -17 78 69 147 -17 z m 32 -250 l 504 -250 l 504 -56 l 32 -56 z "},"u":{"ha":803,"x_min":0,"x_max":0,"o":"m 275 -17 b 485 46 350 -17 425 11 l 517 0 l 739 14 l 739 694 l 469 694 l 469 228 b 407 217 449 221 426 217 b 331 319 349 217 331 242 l 331 694 l 61 694 l 61 211 b 275 -17 61 69 140 -17 z "},"ú":{"ha":803,"x_min":0,"x_max":0,"o":"m 275 -17 b 485 46 350 -17 425 11 l 517 0 l 739 14 l 739 694 l 469 694 l 469 228 b 407 217 449 221 426 217 b 331 319 349 217 331 242 l 331 694 l 61 694 l 61 211 b 275 -17 61 69 140 -17 z m 260 736 l 482 736 l 600 958 l 329 958 z "},"ŭ":{"ha":803,"x_min":0,"x_max":0,"o":"m 275 -17 b 485 46 350 -17 425 11 l 517 0 l 739 14 l 739 694 l 469 694 l 469 228 b 407 217 449 221 426 217 b 331 319 349 217 331 242 l 331 694 l 61 694 l 61 211 b 275 -17 61 69 140 -17 z m 169 928 b 403 722 169 797 253 722 b 633 928 553 722 633 796 l 481 929 b 403 856 481 879 456 856 b 322 929 349 856 322 879 z "},"ǔ":{"ha":803,"x_min":0,"x_max":0,"o":"m 275 -17 b 485 46 350 -17 425 11 l 517 0 l 739 14 l 739 694 l 469 694 l 469 228 b 407 217 449 221 426 217 b 331 319 349 217 331 242 l 331 694 l 61 694 l 61 211 b 275 -17 61 69 140 -17 z m 94 958 l 242 736 l 561 736 l 708 958 l 451 958 l 401 824 l 351 958 z "},"û":{"ha":803,"x_min":0,"x_max":0,"o":"m 275 -17 b 485 46 350 -17 425 11 l 517 0 l 739 14 l 739 694 l 469 694 l 469 228 b 407 217 449 221 426 217 b 331 319 349 217 331 242 l 331 694 l 61 694 l 61 211 b 275 -17 61 69 140 -17 z m 94 736 l 351 736 l 401 871 l 451 736 l 708 736 l 561 958 l 242 958 z "},"ü":{"ha":803,"x_min":0,"x_max":0,"o":"m 275 -17 b 485 46 350 -17 425 11 l 517 0 l 739 14 l 739 694 l 469 694 l 469 228 b 407 217 449 221 426 217 b 331 319 349 217 331 242 l 331 694 l 61 694 l 61 211 b 275 -17 61 69 140 -17 z m 106 829 b 244 719 106 754 153 719 b 381 829 335 719 381 754 b 244 942 381 904 335 942 b 106 829 153 942 106 904 z m 422 829 b 561 719 422 754 468 719 b 697 829 651 719 697 754 b 561 942 697 904 651 942 b 422 829 468 942 422 904 z "},"ǘ":{"ha":803,"x_min":0,"x_max":0,"o":"m 275 -17 b 485 46 350 -17 425 11 l 517 0 l 739 14 l 739 694 l 469 694 l 469 228 b 407 217 449 221 426 217 b 331 319 349 217 331 242 l 331 694 l 61 694 l 61 211 b 275 -17 61 69 140 -17 z m 106 829 b 244 719 106 754 153 719 b 381 829 335 719 381 754 b 244 942 381 904 335 942 b 106 829 153 942 106 904 z m 260 953 l 482 953 l 600 1175 l 329 1175 z m 422 829 b 561 719 422 754 468 719 b 697 829 651 719 697 754 b 561 942 697 904 651 942 b 422 829 468 942 422 904 z "},"ǚ":{"ha":803,"x_min":0,"x_max":0,"o":"m 275 -17 b 485 46 350 -17 425 11 l 517 0 l 739 14 l 739 694 l 469 694 l 469 228 b 407 217 449 221 426 217 b 331 319 349 217 331 242 l 331 694 l 61 694 l 61 211 b 275 -17 61 69 140 -17 z m 94 1175 l 242 953 l 561 953 l 708 1175 l 451 1175 l 401 1040 l 351 1175 z m 106 829 b 244 719 106 754 153 719 b 381 829 335 719 381 754 b 244 942 381 904 335 942 b 106 829 153 942 106 904 z m 422 829 b 561 719 422 754 468 719 b 697 829 651 719 697 754 b 561 942 697 904 651 942 b 422 829 468 942 422 904 z "},"ǜ":{"ha":803,"x_min":0,"x_max":0,"o":"m 275 -17 b 485 46 350 -17 425 11 l 517 0 l 739 14 l 739 694 l 469 694 l 469 228 b 407 217 449 221 426 217 b 331 319 349 217 331 242 l 331 694 l 61 694 l 61 211 b 275 -17 61 69 140 -17 z m 106 829 b 244 719 106 754 153 719 b 381 829 335 719 381 754 b 244 942 381 904 335 942 b 106 829 153 942 106 904 z m 190 1175 l 307 953 l 529 953 l 461 1175 z m 422 829 b 561 719 422 754 468 719 b 697 829 651 719 697 754 b 561 942 697 904 651 942 b 422 829 468 942 422 904 z "},"ǖ":{"ha":803,"x_min":0,"x_max":0,"o":"m 275 -17 b 485 46 350 -17 425 11 l 517 0 l 739 14 l 739 694 l 469 694 l 469 228 b 407 217 449 221 426 217 b 331 319 349 217 331 242 l 331 694 l 61 694 l 61 211 b 275 -17 61 69 140 -17 z m 106 829 b 244 719 106 754 153 719 b 381 829 335 719 381 754 b 244 942 381 904 335 942 b 106 829 153 942 106 904 z m 169 963 l 642 963 l 642 1136 l 169 1136 z m 422 829 b 561 719 422 754 468 719 b 697 829 651 719 697 754 b 561 942 697 904 651 942 b 422 829 468 942 422 904 z "},"ụ":{"ha":803,"x_min":0,"x_max":0,"o":"m 275 -17 b 485 46 350 -17 425 11 l 517 0 l 739 14 l 739 694 l 469 694 l 469 228 b 407 217 449 221 426 217 b 331 319 349 217 331 242 l 331 694 l 61 694 l 61 211 b 275 -17 61 69 140 -17 z m 261 -156 b 400 -265 261 -231 307 -265 b 536 -156 490 -265 536 -231 b 400 -43 536 -81 490 -43 b 261 -156 307 -43 261 -81 z "},"ù":{"ha":803,"x_min":0,"x_max":0,"o":"m 275 -17 b 485 46 350 -17 425 11 l 517 0 l 739 14 l 739 694 l 469 694 l 469 228 b 407 217 449 221 426 217 b 331 319 349 217 331 242 l 331 694 l 61 694 l 61 211 b 275 -17 61 69 140 -17 z m 190 958 l 307 736 l 529 736 l 461 958 z "},"ủ":{"ha":803,"x_min":0,"x_max":0,"o":"m 275 -17 b 485 46 350 -17 425 11 l 517 0 l 739 14 l 739 694 l 469 694 l 469 228 b 407 217 449 221 426 217 b 331 319 349 217 331 242 l 331 694 l 61 694 l 61 211 b 275 -17 61 69 140 -17 z m 261 897 b 342 829 321 869 342 851 b 300 747 342 811 328 790 l 344 713 b 540 908 475 749 540 832 b 328 1056 540 986 469 1056 z "},"ư":{"ha":803,"x_min":0,"x_max":0,"o":"m 275 -17 b 485 46 350 -17 425 11 l 517 0 l 739 14 l 739 551 b 958 596 836 524 917 547 b 890 846 1008 656 999 754 l 738 767 b 756 663 765 707 769 681 b 739 651 751 658 746 654 l 739 694 l 469 694 l 469 228 b 407 217 449 221 426 217 b 331 319 349 217 331 242 l 331 694 l 61 694 l 61 211 b 275 -17 61 69 140 -17 z "},"ứ":{"ha":803,"x_min":0,"x_max":0,"o":"m 275 -17 b 485 46 350 -17 425 11 l 517 0 l 739 14 l 739 551 b 958 596 836 524 917 547 b 890 846 1008 656 999 754 l 738 767 b 756 663 765 707 769 681 b 739 651 751 658 746 654 l 739 694 l 469 694 l 469 228 b 407 217 449 221 426 217 b 331 319 349 217 331 242 l 331 694 l 61 694 l 61 211 b 275 -17 61 69 140 -17 z m 260 736 l 482 736 l 600 958 l 329 958 z "},"ự":{"ha":803,"x_min":0,"x_max":0,"o":"m 275 -17 b 485 46 350 -17 425 11 l 517 0 l 739 14 l 739 551 b 958 596 836 524 917 547 b 890 846 1008 656 999 754 l 738 767 b 756 663 765 707 769 681 b 739 651 751 658 746 654 l 739 694 l 469 694 l 469 228 b 407 217 449 221 426 217 b 331 319 349 217 331 242 l 331 694 l 61 694 l 61 211 b 275 -17 61 69 140 -17 z m 261 -156 b 400 -265 261 -231 307 -265 b 536 -156 490 -265 536 -231 b 400 -43 536 -81 490 -43 b 261 -156 307 -43 261 -81 z "},"ừ":{"ha":803,"x_min":0,"x_max":0,"o":"m 275 -17 b 485 46 350 -17 425 11 l 517 0 l 739 14 l 739 551 b 958 596 836 524 917 547 b 890 846 1008 656 999 754 l 738 767 b 756 663 765 707 769 681 b 739 651 751 658 746 654 l 739 694 l 469 694 l 469 228 b 407 217 449 221 426 217 b 331 319 349 217 331 242 l 331 694 l 61 694 l 61 211 b 275 -17 61 69 140 -17 z m 190 958 l 307 736 l 529 736 l 461 958 z "},"ử":{"ha":803,"x_min":0,"x_max":0,"o":"m 275 -17 b 485 46 350 -17 425 11 l 517 0 l 739 14 l 739 551 b 958 596 836 524 917 547 b 890 846 1008 656 999 754 l 738 767 b 756 663 765 707 769 681 b 739 651 751 658 746 654 l 739 694 l 469 694 l 469 228 b 407 217 449 221 426 217 b 331 319 349 217 331 242 l 331 694 l 61 694 l 61 211 b 275 -17 61 69 140 -17 z m 261 897 b 342 829 321 869 342 851 b 300 747 342 811 328 790 l 344 713 b 540 908 475 749 540 832 b 328 1056 540 986 469 1056 z "},"ữ":{"ha":803,"x_min":0,"x_max":0,"o":"m 275 -17 b 485 46 350 -17 425 11 l 517 0 l 739 14 l 739 551 b 958 596 836 524 917 547 b 890 846 1008 656 999 754 l 738 767 b 756 663 765 707 769 681 b 739 651 751 658 746 654 l 739 694 l 469 694 l 469 228 b 407 217 449 221 426 217 b 331 319 349 217 331 242 l 331 694 l 61 694 l 61 211 b 275 -17 61 69 140 -17 z m 144 817 l 192 751 b 276 797 219 781 244 797 b 514 735 342 797 421 735 b 658 892 586 735 651 796 l 611 960 b 526 911 581 926 556 911 b 289 975 461 911 382 975 b 144 817 215 975 163 928 z "},"ű":{"ha":803,"x_min":0,"x_max":0,"o":"m 275 -17 b 485 46 350 -17 425 11 l 517 0 l 739 14 l 739 694 l 469 694 l 469 228 b 407 217 449 221 426 217 b 331 319 349 217 331 242 l 331 694 l 61 694 l 61 211 b 275 -17 61 69 140 -17 z m 107 750 l 329 750 l 446 972 l 175 972 z m 413 750 l 635 750 l 751 972 l 481 972 z "},"ū":{"ha":803,"x_min":0,"x_max":0,"o":"m 275 -17 b 485 46 350 -17 425 11 l 517 0 l 739 14 l 739 694 l 469 694 l 469 228 b 407 217 449 221 426 217 b 331 319 349 217 331 242 l 331 694 l 61 694 l 61 211 b 275 -17 61 69 140 -17 z m 169 746 l 642 746 l 642 919 l 169 919 z "},"ų":{"ha":803,"x_min":0,"x_max":0,"o":"m 275 -17 b 485 46 350 -17 425 11 l 517 0 l 576 4 b 482 -147 514 -37 482 -94 b 694 -294 482 -225 553 -294 l 761 -136 b 681 -68 701 -108 681 -90 b 721 13 681 -50 694 -29 l 739 14 l 739 694 l 469 694 l 469 228 b 407 217 449 221 426 217 b 331 319 349 217 331 242 l 331 694 l 61 694 l 61 211 b 275 -17 61 69 140 -17 z "},"ů":{"ha":803,"x_min":0,"x_max":0,"o":"m 275 -17 b 485 46 350 -17 425 11 l 517 0 l 739 14 l 739 694 l 579 694 b 603 792 594 721 603 753 b 403 974 603 908 532 974 b 200 792 274 974 200 907 b 225 694 200 753 208 721 l 61 694 l 61 211 b 275 -17 61 69 140 -17 z m 331 319 l 331 624 b 403 615 353 618 376 615 b 469 622 428 615 450 618 l 469 228 b 407 217 449 221 426 217 b 331 319 349 217 331 242 z m 332 793 b 403 858 332 836 357 858 b 471 793 447 858 471 836 b 403 729 471 750 449 729 b 332 793 356 729 332 750 z "},"ũ":{"ha":803,"x_min":0,"x_max":0,"o":"m 275 -17 b 485 46 350 -17 425 11 l 517 0 l 739 14 l 739 694 l 469 694 l 469 228 b 407 217 449 221 426 217 b 331 319 349 217 331 242 l 331 694 l 61 694 l 61 211 b 275 -17 61 69 140 -17 z m 144 817 l 192 751 b 276 797 219 781 244 797 b 514 735 342 797 421 735 b 658 892 586 735 651 796 l 611 960 b 526 911 581 926 556 911 b 289 975 461 911 382 975 b 144 817 215 975 163 928 z "},"v":{"ha":786,"x_min":0,"x_max":0,"o":"m 231 0 l 556 0 l 781 694 l 489 694 l 393 278 l 297 694 l 6 694 z "},"ʌ":{"ha":786,"x_min":0,"x_max":0,"o":"m 556 694 l 231 694 l 6 0 l 297 0 l 393 417 l 489 0 l 781 0 z "},"w":{"ha":1181,"x_min":0,"x_max":0,"o":"m 188 0 l 493 0 l 590 388 l 688 0 l 993 0 l 1174 694 l 886 694 l 811 278 l 725 694 l 456 694 l 371 278 l 294 694 l 7 694 z "},"ẃ":{"ha":1181,"x_min":0,"x_max":0,"o":"m 188 0 l 493 0 l 590 388 l 688 0 l 993 0 l 1174 694 l 886 694 l 811 278 l 725 694 l 456 694 l 371 278 l 294 694 l 7 694 z m 449 736 l 671 736 l 789 958 l 518 958 z "},"ŵ":{"ha":1181,"x_min":0,"x_max":0,"o":"m 188 0 l 493 0 l 590 388 l 688 0 l 993 0 l 1174 694 l 886 694 l 811 278 l 725 694 l 456 694 l 371 278 l 294 694 l 7 694 z m 283 736 l 540 736 l 590 871 l 640 736 l 897 736 l 750 958 l 431 958 z "},"ẅ":{"ha":1181,"x_min":0,"x_max":0,"o":"m 188 0 l 493 0 l 590 388 l 688 0 l 993 0 l 1174 694 l 886 694 l 811 278 l 725 694 l 456 694 l 371 278 l 294 694 l 7 694 z m 294 829 b 433 719 294 754 342 719 b 569 829 524 719 569 754 b 433 942 569 904 524 942 b 294 829 342 942 294 904 z m 611 829 b 750 719 611 754 657 719 b 886 829 840 719 886 754 b 750 942 886 904 840 942 b 611 829 657 942 611 904 z "},"ẁ":{"ha":1181,"x_min":0,"x_max":0,"o":"m 188 0 l 493 0 l 590 388 l 688 0 l 993 0 l 1174 694 l 886 694 l 811 278 l 725 694 l 456 694 l 371 278 l 294 694 l 7 694 z m 379 958 l 496 736 l 718 736 l 650 958 z "},"x":{"ha":804,"x_min":0,"x_max":0,"o":"m 6 0 l 321 0 l 401 210 l 483 0 l 799 0 l 597 360 l 782 694 l 476 694 l 401 500 l 328 694 l 22 694 l 207 360 z "},"y":{"ha":811,"x_min":0,"x_max":0,"o":"m 254 -308 b 576 0 428 -308 501 -232 l 804 694 l 513 694 l 415 250 l 301 694 l 7 694 l 251 0 b 188 -90 278 -75 243 -90 b 96 -83 161 -90 126 -86 l 79 -292 b 254 -308 147 -301 204 -308 z "},"ý":{"ha":811,"x_min":0,"x_max":0,"o":"m 254 -308 b 576 0 428 -308 501 -232 l 804 694 l 513 694 l 415 250 l 301 694 l 7 694 l 251 0 b 188 -90 278 -75 243 -90 b 96 -83 161 -90 126 -86 l 79 -292 b 254 -308 147 -301 204 -308 z m 264 736 l 486 736 l 604 958 l 333 958 z "},"ŷ":{"ha":811,"x_min":0,"x_max":0,"o":"m 254 -308 b 576 0 428 -308 501 -232 l 804 694 l 513 694 l 415 250 l 301 694 l 7 694 l 251 0 b 188 -90 278 -75 243 -90 b 96 -83 161 -90 126 -86 l 79 -292 b 254 -308 147 -301 204 -308 z m 99 736 l 356 736 l 406 871 l 456 736 l 713 736 l 565 958 l 246 958 z "},"ÿ":{"ha":811,"x_min":0,"x_max":0,"o":"m 254 -308 b 576 0 428 -308 501 -232 l 804 694 l 513 694 l 415 250 l 301 694 l 7 694 l 251 0 b 188 -90 278 -75 243 -90 b 96 -83 161 -90 126 -86 l 79 -292 b 254 -308 147 -301 204 -308 z m 110 829 b 249 719 110 754 157 719 b 385 829 339 719 385 754 b 249 942 385 904 339 942 b 110 829 157 942 110 904 z m 426 829 b 565 719 426 754 472 719 b 701 829 656 719 701 754 b 565 942 701 904 656 942 b 426 829 472 942 426 904 z "},"ẏ":{"ha":811,"x_min":0,"x_max":0,"o":"m 254 -308 b 576 0 428 -308 501 -232 l 804 694 l 513 694 l 415 250 l 301 694 l 7 694 l 251 0 b 188 -90 278 -75 243 -90 b 96 -83 161 -90 126 -86 l 79 -292 b 254 -308 147 -301 204 -308 z m 269 822 b 408 713 269 747 315 713 b 544 822 499 713 544 747 b 408 935 544 897 499 935 b 269 822 315 935 269 897 z "},"ỵ":{"ha":811,"x_min":0,"x_max":0,"o":"m 254 -308 b 576 0 428 -308 501 -232 l 804 694 l 513 694 l 415 250 l 301 694 l 7 694 l 251 0 b 188 -90 278 -75 243 -90 b 96 -83 161 -90 126 -86 l 79 -292 b 254 -308 147 -301 204 -308 z m 500 -229 b 613 -317 500 -289 538 -317 b 721 -229 685 -317 721 -289 b 613 -139 721 -168 685 -139 b 500 -229 538 -139 500 -168 z "},"ỳ":{"ha":811,"x_min":0,"x_max":0,"o":"m 254 -308 b 576 0 428 -308 501 -232 l 804 694 l 513 694 l 415 250 l 301 694 l 7 694 l 251 0 b 188 -90 278 -75 243 -90 b 96 -83 161 -90 126 -86 l 79 -292 b 254 -308 147 -301 204 -308 z m 194 958 l 311 736 l 533 736 l 465 958 z "},"ỷ":{"ha":811,"x_min":0,"x_max":0,"o":"m 254 -308 b 576 0 428 -308 501 -232 l 804 694 l 513 694 l 415 250 l 301 694 l 7 694 l 251 0 b 188 -90 278 -75 243 -90 b 96 -83 161 -90 126 -86 l 79 -292 b 254 -308 147 -301 204 -308 z m 265 897 b 346 829 325 869 346 851 b 304 747 346 811 332 790 l 349 713 b 544 908 479 749 544 832 b 332 1056 544 986 474 1056 z "},"ȳ":{"ha":811,"x_min":0,"x_max":0,"o":"m 254 -308 b 576 0 428 -308 501 -232 l 804 694 l 513 694 l 415 250 l 301 694 l 7 694 l 251 0 b 188 -90 278 -75 243 -90 b 96 -83 161 -90 126 -86 l 79 -292 b 254 -308 147 -301 204 -308 z m 174 746 l 646 746 l 646 919 l 174 919 z "},"ỹ":{"ha":811,"x_min":0,"x_max":0,"o":"m 254 -308 b 576 0 428 -308 501 -232 l 804 694 l 513 694 l 415 250 l 301 694 l 7 694 l 251 0 b 188 -90 278 -75 243 -90 b 96 -83 161 -90 126 -86 l 79 -292 b 254 -308 147 -301 204 -308 z m 149 817 l 196 751 b 281 797 224 781 249 797 b 518 735 346 797 425 735 b 663 892 590 735 656 796 l 615 960 b 531 911 585 926 560 911 b 293 975 465 911 386 975 b 149 817 219 975 167 928 z "},"z":{"ha":675,"x_min":0,"x_max":0,"o":"m 33 0 l 644 0 l 644 208 l 371 208 l 640 503 l 640 694 l 49 694 l 49 486 l 303 486 l 33 192 z "},"ź":{"ha":675,"x_min":0,"x_max":0,"o":"m 33 0 l 644 0 l 644 208 l 371 208 l 640 503 l 640 694 l 49 694 l 49 486 l 303 486 l 33 192 z m 196 736 l 418 736 l 536 958 l 265 958 z "},"ž":{"ha":675,"x_min":0,"x_max":0,"o":"m 33 0 l 644 0 l 644 208 l 371 208 l 640 503 l 640 694 l 49 694 l 49 486 l 303 486 l 33 192 z m 31 958 l 178 736 l 497 736 l 644 958 l 388 958 l 338 824 l 288 958 z "},"ż":{"ha":675,"x_min":0,"x_max":0,"o":"m 33 0 l 644 0 l 644 208 l 371 208 l 640 503 l 640 694 l 49 694 l 49 486 l 303 486 l 33 192 z m 201 822 b 340 713 201 747 247 713 b 476 822 431 713 476 747 b 340 935 476 897 431 935 b 201 822 247 935 201 897 z "},"ẓ":{"ha":675,"x_min":0,"x_max":0,"o":"m 33 0 l 644 0 l 644 208 l 371 208 l 640 503 l 640 694 l 49 694 l 49 486 l 303 486 l 33 192 z m 197 -156 b 336 -265 197 -231 243 -265 b 472 -156 426 -265 472 -231 b 336 -43 472 -81 426 -43 b 197 -156 243 -43 197 -81 z "},"ẕ":{"ha":675,"x_min":0,"x_max":0,"o":"m 33 0 l 644 0 l 644 208 l 371 208 l 640 503 l 640 694 l 49 694 l 49 486 l 303 486 l 33 192 z m 101 -250 l 574 -250 l 574 -56 l 101 -56 z "},"ﬁ":{"ha":890,"x_min":0,"x_max":0,"o":"m 99 0 l 368 0 l 368 472 l 479 472 l 479 694 l 347 694 b 333 733 339 707 333 719 b 417 785 333 771 360 785 b 481 781 435 785 456 783 l 499 986 b 338 1003 444 997 389 1003 b 71 806 157 1003 71 931 b 99 694 71 764 85 728 l 1 694 l 1 472 l 99 472 z m 532 872 b 696 742 532 783 586 742 b 858 872 806 742 858 783 b 696 1007 858 963 806 1007 b 532 872 586 1007 532 963 z m 560 0 l 829 0 l 829 694 l 560 694 z "},"ﬂ":{"ha":896,"x_min":0,"x_max":0,"o":"m 99 0 l 368 0 l 368 472 l 479 472 l 479 694 l 347 694 b 333 733 339 707 333 719 b 417 785 333 771 360 785 b 481 781 435 785 456 783 l 499 986 b 338 1003 444 997 389 1003 b 71 806 157 1003 71 931 b 99 694 71 764 85 728 l 1 694 l 1 472 l 99 472 z m 564 0 l 832 0 l 832 986 l 564 986 z "},"ª":{"ha":775,"x_min":0,"x_max":0,"o":"m 271 313 b 453 394 358 313 419 340 l 497 331 l 719 343 l 719 706 b 368 1042 719 940 617 1042 b 104 1003 290 1042 193 1026 l 124 801 b 329 833 211 822 281 833 b 450 763 421 833 450 806 l 450 754 b 322 769 415 763 375 769 b 56 535 140 769 56 694 b 271 313 56 388 126 313 z m 328 560 b 400 618 328 604 353 618 b 450 614 417 618 435 617 l 450 599 b 385 501 450 526 429 501 b 328 560 346 501 328 519 z "},"º":{"ha":821,"x_min":0,"x_max":0,"o":"m 410 314 b 765 678 640 314 765 428 b 410 1042 765 928 640 1042 b 56 678 181 1042 56 926 b 410 314 56 428 181 314 z m 328 678 b 410 833 328 790 347 833 b 493 678 472 833 493 790 b 410 522 493 565 472 522 b 328 678 347 522 328 565 z "},"₀":{"ha":589,"x_min":0,"x_max":0,"o":"m 294 -87 b 560 231 472 -87 560 21 b 294 547 560 440 472 547 b 31 231 117 547 31 440 b 294 -87 31 21 117 -87 z m 218 231 b 294 406 218 360 242 406 b 371 231 347 406 371 360 b 294 56 371 101 347 56 b 218 231 242 56 218 101 z "},"₁":{"ha":364,"x_min":0,"x_max":0,"o":"m 119 -76 l 303 -76 l 303 547 l 267 547 l 0 538 l 0 386 l 119 390 z "},"₂":{"ha":492,"x_min":0,"x_max":0,"o":"m 26 57 l 26 -76 l 453 -76 l 453 75 l 254 75 b 461 344 347 135 461 214 b 226 547 461 478 381 547 b 42 525 168 547 94 540 l 58 378 b 196 406 83 385 142 406 b 274 344 247 406 274 385 b 26 57 274 276 208 221 z "},"₃":{"ha":519,"x_min":0,"x_max":0,"o":"m 240 -87 b 493 100 406 -87 493 -33 b 389 246 493 179 460 231 b 469 381 444 264 469 313 b 236 547 469 488 397 547 b 61 525 174 547 114 539 l 78 376 b 214 406 100 385 160 406 b 282 356 260 406 282 392 b 211 306 282 319 256 306 l 167 306 l 167 165 l 211 165 b 304 113 269 165 304 151 b 224 56 304 74 283 56 b 43 106 135 56 68 96 l 26 -43 b 240 -87 71 -58 136 -87 z "},"₄":{"ha":594,"x_min":0,"x_max":0,"o":"m 326 -76 l 510 -76 l 510 13 l 581 13 l 581 164 l 510 164 l 510 538 l 265 538 l 32 146 l 32 13 l 326 13 z m 211 164 l 326 390 l 326 164 z "},"₅":{"ha":528,"x_min":0,"x_max":0,"o":"m 240 -87 b 497 126 415 -87 497 -21 b 314 324 497 253 431 324 b 224 306 281 324 254 318 l 233 386 l 471 386 l 471 538 l 88 538 l 56 172 b 204 190 97 182 157 190 b 308 119 275 190 308 168 b 215 56 308 75 281 56 b 43 106 126 56 68 96 l 26 -43 b 240 -87 71 -58 136 -87 z "},"₆":{"ha":547,"x_min":0,"x_max":0,"o":"m 281 -87 b 521 124 433 -87 521 -18 b 329 335 521 263 456 335 b 222 310 288 335 253 325 b 328 406 231 381 258 406 b 475 376 392 406 450 385 l 492 525 b 317 547 439 539 378 547 b 31 231 125 547 31 453 b 281 -87 31 1 103 -87 z m 218 179 b 281 192 239 186 258 192 b 333 124 319 192 333 165 b 281 56 333 82 319 56 b 218 179 236 56 221 90 z "},"₇":{"ha":444,"x_min":0,"x_max":0,"o":"m 39 -76 l 242 -76 l 436 394 l 436 538 l 8 538 l 8 386 l 258 386 z "},"₈":{"ha":567,"x_min":0,"x_max":0,"o":"m 283 -87 b 540 97 451 -87 540 -36 b 438 246 540 176 507 231 b 517 381 493 264 517 313 b 283 547 517 488 446 547 b 49 381 121 547 49 488 b 129 246 49 313 75 264 b 26 97 60 231 26 176 b 283 -87 26 -36 115 -87 z m 204 110 b 283 165 204 150 231 165 b 363 110 338 165 363 150 b 283 56 363 71 338 56 b 204 110 231 56 204 71 z m 224 357 b 283 407 224 392 249 407 b 344 357 319 407 344 392 b 283 307 344 321 319 307 b 224 357 249 307 224 321 z "},"₉":{"ha":549,"x_min":0,"x_max":0,"o":"m 231 -87 b 518 231 421 -87 518 8 b 272 547 518 461 440 547 b 26 331 125 547 26 476 b 218 126 26 197 94 126 b 325 150 261 126 296 136 b 221 56 317 81 290 56 b 63 83 146 56 86 76 l 46 -65 b 231 -87 100 -78 160 -87 z m 214 338 b 268 406 214 379 228 406 b 329 282 314 406 326 374 b 268 268 310 274 289 268 b 214 338 228 268 214 296 z "},"⁰":{"ha":589,"x_min":0,"x_max":0,"o":"m 294 426 b 560 744 472 426 560 535 b 294 1061 560 954 472 1061 b 31 744 117 1061 31 954 b 294 426 31 535 117 426 z m 218 744 b 294 919 218 874 242 919 b 371 744 347 919 371 874 b 294 569 371 615 347 569 b 218 744 242 569 218 615 z "},"¹":{"ha":364,"x_min":0,"x_max":0,"o":"m 119 438 l 303 438 l 303 1061 l 267 1061 l 0 1051 l 0 900 l 119 904 z "},"²":{"ha":492,"x_min":0,"x_max":0,"o":"m 26 571 l 26 438 l 453 438 l 453 589 l 254 589 b 461 858 347 649 461 728 b 226 1061 461 992 381 1061 b 42 1039 168 1061 94 1054 l 58 892 b 196 919 83 899 142 919 b 274 858 247 919 274 899 b 26 571 274 790 208 735 z "},"³":{"ha":519,"x_min":0,"x_max":0,"o":"m 240 426 b 493 614 406 426 493 481 b 389 760 493 693 460 744 b 469 894 444 778 469 826 b 236 1061 469 1001 397 1061 b 61 1039 174 1061 114 1053 l 78 890 b 214 919 100 899 160 919 b 282 869 260 919 282 906 b 211 819 282 833 256 819 l 167 819 l 167 679 l 211 679 b 304 626 269 679 304 665 b 224 569 304 588 283 569 b 43 619 135 569 68 610 l 26 471 b 240 426 71 456 136 426 z "},"⁴":{"ha":594,"x_min":0,"x_max":0,"o":"m 326 438 l 510 438 l 510 526 l 581 526 l 581 678 l 510 678 l 510 1051 l 265 1051 l 32 660 l 32 526 l 326 526 z m 211 678 l 326 904 l 326 678 z "},"⁵":{"ha":528,"x_min":0,"x_max":0,"o":"m 240 426 b 497 640 415 426 497 493 b 314 838 497 767 431 838 b 224 819 281 838 254 832 l 233 900 l 471 900 l 471 1051 l 88 1051 l 56 686 b 204 704 97 696 157 704 b 308 633 275 704 308 682 b 215 569 308 589 281 569 b 43 619 126 569 68 610 l 26 471 b 240 426 71 456 136 426 z "},"⁶":{"ha":547,"x_min":0,"x_max":0,"o":"m 281 426 b 521 638 433 426 521 496 b 329 849 521 776 456 849 b 222 824 288 849 253 839 b 328 919 231 894 258 919 b 475 890 392 919 450 899 l 492 1039 b 317 1061 439 1053 378 1061 b 31 744 125 1061 31 967 b 281 426 31 515 103 426 z m 218 693 b 281 706 239 700 258 706 b 333 638 319 706 333 679 b 281 569 333 596 319 569 b 218 693 236 569 221 604 z "},"⁷":{"ha":444,"x_min":0,"x_max":0,"o":"m 39 438 l 242 438 l 436 908 l 436 1051 l 8 1051 l 8 900 l 258 900 z "},"⁸":{"ha":567,"x_min":0,"x_max":0,"o":"m 283 426 b 540 611 451 426 540 478 b 438 760 540 690 507 744 b 517 894 493 778 517 826 b 283 1061 517 1001 446 1061 b 49 894 121 1061 49 1001 b 129 760 49 826 75 778 b 26 611 60 744 26 690 b 283 426 26 478 115 426 z m 204 624 b 283 679 204 664 231 679 b 363 624 338 679 363 664 b 283 569 363 585 338 569 b 204 624 231 569 204 585 z m 224 871 b 283 921 224 906 249 921 b 344 871 319 921 344 906 b 283 821 344 835 319 821 b 224 871 249 821 224 835 z "},"⁹":{"ha":549,"x_min":0,"x_max":0,"o":"m 231 426 b 518 744 421 426 518 522 b 272 1061 518 975 440 1061 b 26 844 125 1061 26 990 b 218 640 26 711 94 640 b 325 664 261 640 296 650 b 221 569 317 594 290 569 b 63 597 146 569 86 590 l 46 449 b 231 426 100 436 160 426 z m 214 851 b 268 919 214 893 228 919 b 329 796 314 919 326 888 b 268 782 310 788 289 782 b 214 851 228 782 214 810 z "},"⁄":{"ha":206,"x_min":0,"x_max":0,"o":"m -210 -17 l -12 -17 l 429 975 l 232 975 z "},"½":{"ha":1033,"x_min":0,"x_max":0,"o":"m 119 438 l 303 438 l 303 1061 l 267 1061 l 0 1051 l 0 900 l 119 904 z m 126 -17 l 324 -17 l 765 975 l 568 975 z m 568 -76 l 994 -76 l 994 75 l 796 75 b 1003 344 889 135 1003 214 b 768 547 1003 478 922 547 b 583 525 710 547 636 540 l 600 378 b 738 406 625 385 683 406 b 815 344 789 406 815 385 b 568 57 815 276 750 221 z "},"¼":{"ha":1039,"x_min":0,"x_max":0,"o":"m 119 438 l 303 438 l 303 1061 l 267 1061 l 0 1051 l 0 900 l 119 904 z m 126 -17 l 324 -17 l 765 975 l 568 975 z m 476 13 l 771 13 l 771 -76 l 954 -76 l 954 13 l 1025 13 l 1025 164 l 954 164 l 954 538 l 710 538 l 476 146 z m 656 164 l 771 390 l 771 164 z "},"¾":{"ha":1222,"x_min":0,"x_max":0,"o":"m 240 426 b 493 614 406 426 493 481 b 389 760 493 693 460 744 b 469 894 444 778 469 826 b 236 1061 469 1001 397 1061 b 61 1039 174 1061 114 1053 l 78 890 b 214 919 100 899 160 919 b 282 869 260 919 282 906 b 211 819 282 833 256 819 l 167 819 l 167 679 l 211 679 b 304 626 269 679 304 665 b 224 569 304 588 283 569 b 43 619 135 569 68 610 l 26 471 b 240 426 71 456 136 426 z m 310 -17 l 507 -17 l 949 975 l 751 975 z m 660 13 l 954 13 l 954 -76 l 1138 -76 l 1138 13 l 1208 13 l 1208 164 l 1138 164 l 1138 538 l 893 538 l 660 146 z m 839 164 l 954 390 l 954 164 z "},"⅛":{"ha":1108,"x_min":0,"x_max":0,"o":"m 119 438 l 303 438 l 303 1061 l 267 1061 l 0 1051 l 0 900 l 119 904 z m 126 -17 l 324 -17 l 765 975 l 568 975 z m 568 97 b 825 -87 568 -36 657 -87 b 1082 97 993 -87 1082 -36 b 979 246 1082 176 1049 231 b 1058 381 1035 264 1058 313 b 825 547 1058 488 988 547 b 590 381 663 547 590 488 b 671 246 590 313 617 264 b 568 97 601 231 568 176 z m 746 110 b 825 165 746 150 772 165 b 904 110 879 165 904 150 b 825 56 904 71 879 56 b 746 110 772 56 746 71 z m 765 357 b 825 407 765 392 790 407 b 886 357 861 407 886 392 b 825 307 886 321 861 307 b 765 357 790 307 765 321 z "},"⅜":{"ha":1292,"x_min":0,"x_max":0,"o":"m 240 426 b 493 614 406 426 493 481 b 389 760 493 693 460 744 b 469 894 444 778 469 826 b 236 1061 469 1001 397 1061 b 61 1039 174 1061 114 1053 l 78 890 b 214 919 100 899 160 919 b 282 869 260 919 282 906 b 211 819 282 833 256 819 l 167 819 l 167 679 l 211 679 b 304 626 269 679 304 665 b 224 569 304 588 283 569 b 43 619 135 569 68 610 l 26 471 b 240 426 71 456 136 426 z m 310 -17 l 507 -17 l 949 975 l 751 975 z m 751 97 b 1008 -87 751 -36 840 -87 b 1265 97 1176 -87 1265 -36 b 1163 246 1265 176 1232 231 b 1242 381 1218 264 1242 313 b 1008 547 1242 488 1171 547 b 774 381 846 547 774 488 b 854 246 774 313 800 264 b 751 97 785 231 751 176 z m 929 110 b 1008 165 929 150 956 165 b 1088 110 1063 165 1088 150 b 1008 56 1088 71 1063 56 b 929 110 956 56 929 71 z m 949 357 b 1008 407 949 392 974 407 b 1069 357 1044 407 1069 392 b 1008 307 1069 321 1044 307 b 949 357 974 307 949 321 z "},"⅝":{"ha":1258,"x_min":0,"x_max":0,"o":"m 240 426 b 497 640 415 426 497 493 b 314 838 497 767 431 838 b 224 819 281 838 254 832 l 233 900 l 471 900 l 471 1051 l 88 1051 l 56 686 b 204 704 97 696 157 704 b 308 633 275 704 308 682 b 215 569 308 589 281 569 b 43 619 126 569 68 610 l 26 471 b 240 426 71 456 136 426 z m 276 -17 l 474 -17 l 915 975 l 718 975 z m 718 97 b 975 -87 718 -36 807 -87 b 1232 97 1143 -87 1232 -36 b 1129 246 1232 176 1199 231 b 1208 381 1185 264 1208 313 b 975 547 1208 488 1138 547 b 740 381 813 547 740 488 b 821 246 740 313 767 264 b 718 97 751 231 718 176 z m 896 110 b 975 165 896 150 922 165 b 1054 110 1029 165 1054 150 b 975 56 1054 71 1029 56 b 896 110 922 56 896 71 z m 915 357 b 975 407 915 392 940 407 b 1036 357 1011 407 1036 392 b 975 307 1036 321 1011 307 b 915 357 940 307 915 321 z "},"⅞":{"ha":1119,"x_min":0,"x_max":0,"o":"m 39 438 l 242 438 l 436 908 l 436 1051 l 8 1051 l 8 900 l 258 900 z m 138 -17 l 335 -17 l 776 975 l 579 975 z m 579 97 b 836 -87 579 -36 668 -87 b 1093 97 1004 -87 1093 -36 b 990 246 1093 176 1060 231 b 1069 381 1046 264 1069 313 b 836 547 1069 488 999 547 b 601 381 674 547 601 488 b 682 246 601 313 628 264 b 579 97 613 231 579 176 z m 757 110 b 836 165 757 150 783 165 b 915 110 890 165 915 150 b 836 56 915 71 890 56 b 757 110 783 56 757 71 z m 776 357 b 836 407 776 392 801 407 b 897 357 872 407 897 392 b 836 307 897 321 872 307 b 776 357 801 307 776 321 z "},"　":{"ha":1389,"x_min":0,"x_max":0,"o":""}," ":{"ha":308,"x_min":0,"x_max":0,"o":""},"‎":{"ha":0,"x_min":0,"x_max":0,"o":""},"‏":{"ha":0,"x_min":0,"x_max":0,"o":""},"‍":{"ha":0,"x_min":0,"x_max":0,"o":""},"‌":{"ha":0,"x_min":0,"x_max":0,"o":""}," ":{"ha":1389,"x_min":0,"x_max":0,"o":""}," ":{"ha":1389,"x_min":0,"x_max":0,"o":""}," ":{"ha":694,"x_min":0,"x_max":0,"o":""}," ":{"ha":694,"x_min":0,"x_max":0,"o":""}," ":{"ha":922,"x_min":0,"x_max":0,"o":""}," ":{"ha":347,"x_min":0,"x_max":0,"o":""}," ":{"ha":199,"x_min":0,"x_max":0,"o":""}," ":{"ha":222,"x_min":0,"x_max":0,"o":""}," ":{"ha":439,"x_min":0,"x_max":0,"o":""}," ":{"ha":232,"x_min":0,"x_max":0,"o":""}," ":{"ha":278,"x_min":0,"x_max":0,"o":""}," ":{"ha":278,"x_min":0,"x_max":0,"o":""}," ":{"ha":463,"x_min":0,"x_max":0,"o":""},"​":{"ha":0,"x_min":0,"x_max":0,"o":""},"·":{"ha":386,"x_min":0,"x_max":0,"o":"m 194 368 b 331 478 285 368 331 403 b 194 590 331 553 285 590 b 56 478 101 590 56 553 b 194 368 56 403 103 368 z "},";":{"ha":439,"x_min":0,"x_max":0,"o":"m 67 -85 l 76 -194 b 383 75 271 -182 383 -82 b 214 249 383 188 325 249 b 56 110 111 249 56 199 b 174 -17 56 39 92 -11 b 67 -85 163 -53 121 -72 z m 56 560 b 221 429 56 471 111 429 b 383 560 329 429 383 471 b 221 694 383 650 329 694 b 56 560 111 694 56 650 z "},".":{"ha":439,"x_min":0,"x_max":0,"o":"m 221 -17 b 383 114 329 -17 383 25 b 221 249 383 204 329 249 b 56 114 111 249 56 204 b 221 -17 56 25 111 -17 z "},",":{"ha":439,"x_min":0,"x_max":0,"o":"m 214 253 b 56 114 113 253 56 203 b 174 -12 56 44 92 -7 b 67 -79 163 -46 128 -67 l 76 -190 b 383 79 278 -176 383 -72 b 214 253 383 193 325 253 z "},":":{"ha":439,"x_min":0,"x_max":0,"o":"m 221 429 b 383 560 329 429 383 471 b 221 694 383 650 329 694 b 56 560 111 694 56 650 b 221 429 56 471 111 429 z m 56 114 b 221 -17 56 25 111 -17 b 383 114 329 -17 383 25 b 221 249 383 204 329 249 b 56 114 111 249 56 204 z "},";":{"ha":439,"x_min":0,"x_max":0,"o":"m 221 429 b 383 560 329 429 383 471 b 221 694 383 650 329 694 b 56 560 111 694 56 650 b 221 429 56 471 111 429 z m 56 114 b 174 -12 56 44 92 -7 b 67 -79 163 -46 128 -67 l 76 -190 b 383 79 278 -176 383 -72 b 214 253 383 193 325 253 b 56 114 113 253 56 203 z "},"…":{"ha":1317,"x_min":0,"x_max":0,"o":"m 221 -17 b 383 114 329 -17 383 25 b 221 249 383 204 329 249 b 56 114 111 249 56 204 b 221 -17 56 25 111 -17 z m 494 114 b 660 -17 494 25 550 -17 b 822 114 768 -17 822 25 b 660 249 822 204 768 249 b 494 114 550 249 494 204 z m 933 114 b 1099 -17 933 25 989 -17 b 1261 114 1207 -17 1261 25 b 1099 249 1261 204 1207 249 b 933 114 989 249 933 204 z "},"!":{"ha":439,"x_min":0,"x_max":0,"o":"m 221 -17 b 383 114 329 -17 383 25 b 221 249 383 204 329 249 b 56 114 111 249 56 204 b 221 -17 56 25 111 -17 z m 49 986 l 78 347 l 306 347 l 335 986 z "},"¡":{"ha":439,"x_min":0,"x_max":0,"o":"m 76 -292 l 363 -292 l 333 347 l 106 347 z m 56 581 b 218 446 56 490 110 446 b 383 581 328 446 383 490 b 218 711 383 669 328 711 b 56 581 110 711 56 671 z "},"?":{"ha":767,"x_min":0,"x_max":0,"o":"m 183 289 l 433 289 l 433 319 b 711 674 433 486 711 344 b 343 992 711 881 583 992 b 56 957 247 992 139 979 l 82 726 b 296 769 118 738 210 769 b 417 683 375 769 417 736 b 183 319 417 557 183 653 z m 143 114 b 308 -17 143 25 199 -17 b 471 114 417 -17 471 25 b 308 249 471 204 417 249 b 143 114 199 249 143 204 z "},"¿":{"ha":765,"x_min":0,"x_max":0,"o":"m 422 -308 b 710 -274 519 -308 626 -296 l 685 -43 b 469 -86 647 -54 556 -86 b 349 0 390 -86 349 -53 b 582 363 349 126 582 31 l 582 394 l 332 394 l 332 363 b 56 10 332 197 56 339 b 422 -308 56 -197 182 -308 z m 294 581 b 457 446 294 490 349 446 b 622 581 568 446 622 490 b 457 711 622 669 568 711 b 294 581 349 711 294 669 z "},"·":{"ha":439,"x_min":0,"x_max":0,"o":"m 221 217 b 383 347 329 217 383 258 b 221 482 383 438 329 482 b 56 347 111 482 56 438 b 221 217 56 258 111 217 z "},"•":{"ha":465,"x_min":0,"x_max":0,"o":"m 235 336 b 410 476 351 336 410 381 b 235 622 410 575 351 622 b 56 476 115 622 56 574 b 235 336 56 381 115 336 z "},"*":{"ha":817,"x_min":0,"x_max":0,"o":"m 311 347 l 508 347 l 468 593 l 656 432 l 757 600 l 524 693 l 761 771 l 669 946 l 469 793 l 510 1042 l 313 1042 l 354 796 l 163 958 l 61 790 l 292 700 l 56 621 l 147 447 l 353 601 z "},"#":{"ha":1056,"x_min":0,"x_max":0,"o":"m 125 0 l 385 0 l 426 199 l 510 199 l 468 0 l 728 0 l 769 199 l 910 199 l 947 435 l 819 435 l 839 525 l 963 525 l 1000 761 l 889 761 l 932 958 l 672 958 l 629 761 l 546 761 l 589 958 l 329 958 l 286 761 l 146 761 l 108 525 l 236 525 l 217 435 l 93 435 l 56 199 l 167 199 z m 476 435 l 496 525 l 579 525 l 560 435 z "},"/":{"ha":764,"x_min":0,"x_max":0,"o":"m 14 -114 l 306 -114 l 750 986 l 458 986 z "},"\\":{"ha":786,"x_min":0,"x_max":0,"o":"m 481 -17 l 772 -17 l 306 986 l 14 986 z "},"-":{"ha":625,"x_min":0,"x_max":0,"o":"m 56 229 l 569 229 l 569 465 l 56 465 z "},"–":{"ha":863,"x_min":0,"x_max":0,"o":"m 56 229 l 807 229 l 807 465 l 56 465 z "},"—":{"ha":1086,"x_min":0,"x_max":0,"o":"m 57 229 l 1029 229 l 1029 465 l 57 465 z "},"_":{"ha":875,"x_min":0,"x_max":0,"o":"m 56 -253 l 819 -253 l 819 -17 l 56 -17 z "},"―":{"ha":1142,"x_min":0,"x_max":0,"o":"m 57 229 l 1085 229 l 1085 465 l 57 465 z "},"(":{"ha":547,"x_min":0,"x_max":0,"o":"m 256 -139 l 492 -139 b 350 424 397 3 350 201 b 492 986 350 644 397 844 l 256 986 b 56 424 131 861 56 674 b 256 -139 56 174 131 -14 z "},")":{"ha":547,"x_min":0,"x_max":0,"o":"m 56 -139 l 292 -139 b 492 424 417 -14 492 174 b 292 986 492 674 417 861 l 56 986 b 197 424 150 844 197 644 b 56 -139 197 201 150 3 z "},"{":{"ha":651,"x_min":0,"x_max":0,"o":"m 453 -186 b 596 -171 504 -186 538 -182 l 574 49 b 496 38 550 44 528 38 b 424 113 436 38 424 68 b 431 224 424 144 431 183 b 296 400 431 317 386 385 b 431 575 386 415 431 482 b 424 688 431 615 424 656 b 496 763 424 732 436 763 b 574 751 528 763 550 756 l 596 971 b 453 986 538 982 504 986 b 163 763 251 986 163 917 b 179 583 163 697 179 639 b 56 461 179 524 147 476 l 56 339 b 179 217 147 322 179 276 b 163 38 179 161 163 103 b 453 -186 163 -117 251 -186 z "},"}":{"ha":651,"x_min":0,"x_max":0,"o":"m 199 -186 b 489 38 400 -186 489 -117 b 472 217 489 103 472 161 b 596 339 472 276 504 322 l 596 461 b 472 583 504 476 472 524 b 488 763 472 639 488 697 b 199 986 488 917 400 986 b 56 971 147 986 114 982 l 78 751 b 156 763 101 756 124 763 b 228 688 215 763 228 732 b 221 575 228 656 221 615 b 356 400 221 482 265 415 b 221 224 265 385 221 317 b 228 113 221 183 228 144 b 156 38 228 68 215 38 b 78 49 124 38 101 44 l 56 -171 b 199 -186 114 -182 147 -186 z "},"[":{"ha":578,"x_min":0,"x_max":0,"o":"m 56 -153 l 522 -153 l 522 69 l 342 69 l 342 764 l 522 764 l 522 986 l 56 986 z "},"]":{"ha":578,"x_min":0,"x_max":0,"o":"m 56 -153 l 522 -153 l 522 986 l 56 986 l 56 764 l 236 764 l 236 69 l 56 69 z "},"‚":{"ha":440,"x_min":0,"x_max":0,"o":"m 214 142 b 56 3 113 142 56 92 b 174 -124 56 -67 92 -118 b 67 -190 163 -157 128 -178 l 76 -301 b 383 -32 278 -287 383 -183 b 214 142 383 82 325 142 z "},"„":{"ha":788,"x_min":0,"x_max":0,"o":"m 561 142 b 403 3 460 142 403 92 b 521 -124 403 -67 439 -118 b 414 -190 510 -157 475 -178 l 424 -301 b 731 -32 625 -287 731 -183 b 561 142 731 82 672 142 z m 56 3 b 174 -124 56 -67 92 -118 b 67 -190 163 -157 128 -178 l 76 -301 b 383 -32 278 -287 383 -183 b 214 142 383 82 325 142 b 56 3 113 142 56 92 z "},"“":{"ha":788,"x_min":0,"x_max":0,"o":"m 572 532 b 731 671 674 532 731 582 b 613 797 731 740 694 792 b 719 864 624 831 658 851 l 710 975 b 403 706 508 961 403 857 b 572 532 403 592 461 532 z m 56 706 b 225 532 56 592 114 532 b 383 671 326 532 383 582 b 265 797 383 740 347 792 b 372 864 276 831 311 851 l 363 975 b 56 706 161 961 56 857 z "},"”":{"ha":788,"x_min":0,"x_max":0,"o":"m 214 981 b 56 842 113 981 56 931 b 174 715 56 772 92 721 b 67 649 163 682 128 661 l 76 538 b 383 807 278 551 383 656 b 214 981 383 921 325 981 z m 403 842 b 521 715 403 772 439 721 b 414 649 510 682 475 661 l 424 538 b 731 807 625 551 731 656 b 561 981 731 921 672 981 b 403 842 460 981 403 931 z "},"‘":{"ha":442,"x_min":0,"x_max":0,"o":"m 226 532 b 385 671 328 532 385 582 b 267 797 385 740 349 792 b 374 864 278 831 313 851 l 364 975 b 57 706 163 961 57 857 b 226 532 57 592 115 532 z "},"’":{"ha":439,"x_min":0,"x_max":0,"o":"m 231 960 b 72 821 129 960 72 910 b 190 694 72 751 108 700 b 83 628 179 661 144 640 l 93 517 b 400 786 294 531 400 635 b 231 960 400 900 342 960 z "},"«":{"ha":978,"x_min":0,"x_max":0,"o":"m 638 13 l 922 13 l 711 347 l 922 682 l 638 682 l 454 347 z m 56 347 l 239 13 l 524 13 l 313 347 l 524 682 l 239 682 z "},"»":{"ha":978,"x_min":0,"x_max":0,"o":"m 454 13 l 739 13 l 922 347 l 739 682 l 454 682 l 665 347 z m 56 13 l 340 13 l 524 347 l 340 682 l 56 682 l 267 347 z "},"‹":{"ha":579,"x_min":0,"x_max":0,"o":"m 239 13 l 524 13 l 313 347 l 524 682 l 239 682 l 56 347 z "},"›":{"ha":579,"x_min":0,"x_max":0,"o":"m 56 13 l 340 13 l 524 347 l 340 682 l 56 682 l 267 347 z "},"\"":{"ha":824,"x_min":0,"x_max":0,"o":"m 68 642 l 78 532 b 385 801 271 544 385 644 b 214 975 385 914 326 975 b 56 836 113 975 56 925 b 174 710 56 765 92 715 b 68 642 163 674 122 654 z m 440 836 b 557 710 440 765 475 715 b 451 642 546 674 506 654 l 461 532 b 768 801 654 544 768 644 b 597 975 768 914 710 975 b 440 836 496 975 440 925 z "},"'":{"ha":439,"x_min":0,"x_max":0,"o":"m 217 974 b 58 835 115 974 58 924 b 176 708 58 765 94 714 b 69 642 165 675 131 654 l 79 531 b 386 800 281 544 386 649 b 217 974 386 914 328 974 z "},"ƒ":{"ha":553,"x_min":0,"x_max":0,"o":"m 157 -308 b 418 14 347 -308 418 -222 l 418 472 l 529 472 l 529 694 l 399 694 b 383 733 390 706 383 719 b 467 785 383 771 410 785 b 531 781 482 785 501 783 l 550 986 b 388 1003 500 996 442 1003 b 121 806 208 1003 121 931 b 149 694 121 767 135 728 l 38 694 l 38 472 l 149 472 l 149 14 b 64 -89 149 -49 146 -89 b 22 -87 53 -89 38 -87 l 3 -292 b 157 -308 51 -301 103 -308 z "},"ʹ":{"ha":451,"x_min":0,"x_max":0,"o":"m 56 764 l 278 764 l 396 986 l 125 986 z "},"͵":{"ha":451,"x_min":0,"x_max":0,"o":"m 56 -222 l 326 -222 l 396 0 l 174 0 z "},"@":{"ha":1125,"x_min":0,"x_max":0,"o":"m 560 -165 b 911 -100 719 -165 825 -139 l 903 -44 b 560 -110 818 -82 713 -110 b 111 332 282 -110 111 39 b 571 782 111 632 279 782 b 1014 392 853 782 1014 642 b 953 206 1014 260 1001 206 b 901 308 911 206 901 226 l 901 375 b 550 711 901 610 799 711 b 286 672 474 711 375 696 l 306 472 b 513 503 393 492 464 503 b 632 432 603 503 632 476 l 632 425 b 506 440 599 433 551 440 b 238 204 324 440 238 364 b 454 -17 238 57 310 -17 b 660 64 539 -17 626 10 b 831 -17 696 10 754 -17 b 1069 392 996 -17 1069 111 b 571 838 1069 674 885 838 b 56 332 249 838 56 665 b 560 -165 56 4 253 -165 z m 510 229 b 583 288 510 274 535 288 b 632 285 601 288 619 286 l 632 268 b 567 171 632 196 611 171 b 510 229 529 171 510 190 z "},"&":{"ha":1090,"x_min":0,"x_max":0,"o":"m 378 -17 b 653 72 499 -17 586 18 b 867 -17 693 10 761 -17 b 1035 0 936 -17 986 -10 l 1015 204 b 972 203 999 204 985 203 b 875 306 899 203 875 226 l 875 378 l 1007 378 l 1007 597 l 875 597 l 875 694 b 604 597 818 639 700 597 b 426 675 544 597 426 582 b 532 753 426 731 461 753 b 775 708 646 753 738 719 l 800 940 b 499 975 717 961 624 975 b 133 714 246 975 133 881 b 272 503 133 607 186 532 b 56 260 149 481 56 397 b 378 -17 56 79 175 -17 z m 351 292 b 508 378 351 353 389 378 l 606 378 l 606 306 b 608 222 606 275 607 247 b 492 206 574 213 535 206 b 351 292 393 206 351 228 z "},"¶":{"ha":1264,"x_min":0,"x_max":0,"o":"m 558 278 l 558 -292 l 828 -292 l 829 940 b 492 975 701 961 588 975 b 56 625 206 975 56 854 b 468 275 56 399 201 275 b 558 278 490 275 525 276 z m 347 625 b 467 753 347 715 383 753 b 556 742 489 753 524 750 l 556 508 b 465 497 524 500 489 497 b 347 625 383 497 347 535 z m 939 -292 l 1208 -292 l 1208 958 l 939 958 z "},"§":{"ha":732,"x_min":0,"x_max":0,"o":"m 358 -150 b 676 94 575 -150 676 -67 b 578 288 676 200 633 256 b 676 458 643 321 676 376 b 328 725 676 708 328 640 b 410 767 328 744 344 767 b 636 735 467 767 543 757 l 656 936 b 374 975 567 960 461 975 b 56 731 157 975 56 892 b 154 536 56 625 99 569 b 56 365 89 503 56 449 b 404 99 56 117 404 183 b 322 58 404 79 388 58 b 74 96 239 58 168 71 l 56 -104 b 358 -150 143 -132 254 -150 z m 319 410 b 378 465 319 428 335 460 b 413 415 399 454 413 439 b 354 360 413 396 397 364 b 319 410 333 371 319 386 z "},"©":{"ha":1147,"x_min":0,"x_max":0,"o":"m 574 -17 b 1092 486 892 -17 1092 167 b 574 989 1092 806 892 989 b 56 486 254 989 56 806 b 574 -17 56 167 254 -17 z m 125 486 b 574 933 125 785 292 933 b 1022 486 854 933 1022 785 b 574 39 1022 188 854 39 b 125 486 292 39 125 188 z m 239 486 b 593 122 239 236 363 122 b 796 147 663 122 744 133 l 776 347 b 639 331 746 340 694 331 b 511 486 547 331 511 372 b 639 642 511 599 547 642 b 776 625 694 642 746 632 l 796 825 b 593 850 744 839 663 850 b 239 486 363 850 239 735 z "},"®":{"ha":1147,"x_min":0,"x_max":0,"o":"m 326 808 l 326 174 l 519 174 l 519 392 b 563 389 535 390 549 390 l 663 174 l 888 174 l 743 417 b 858 606 819 443 858 501 b 565 832 858 760 757 832 b 326 808 500 832 413 822 z m 56 486 b 574 -17 56 167 254 -17 b 1092 486 892 -17 1092 167 b 574 989 1092 806 892 989 b 56 486 254 989 56 806 z m 125 486 b 574 933 125 785 292 933 b 1022 486 854 933 1022 785 b 574 39 1022 188 854 39 b 125 486 292 39 125 188 z m 519 536 l 519 674 b 579 682 540 681 564 682 b 660 606 635 682 660 657 b 579 528 660 554 635 528 b 519 536 564 528 540 531 z "},"™":{"ha":1285,"x_min":0,"x_max":0,"o":"m 186 282 l 368 282 l 368 743 l 528 743 l 528 893 l 26 893 l 26 743 l 186 743 z m 567 282 l 750 282 l 750 607 l 851 282 l 975 282 l 1075 607 l 1075 282 l 1258 282 l 1258 893 l 1024 893 l 913 563 l 801 893 l 567 893 z "},"°":{"ha":656,"x_min":0,"x_max":0,"o":"m 331 556 b 600 796 506 556 600 640 b 331 1042 600 954 504 1042 b 56 796 156 1042 56 953 b 331 556 56 642 153 556 z m 235 797 b 329 886 235 856 267 886 b 421 797 390 886 421 857 b 329 711 421 739 392 711 b 235 797 265 711 235 739 z "},"|":{"ha":397,"x_min":0,"x_max":0,"o":"m 56 -190 l 342 -190 l 342 1032 l 56 1032 z "},"¦":{"ha":397,"x_min":0,"x_max":0,"o":"m 56 476 l 342 476 l 342 1032 l 56 1032 z m 56 -190 l 342 -190 l 342 365 l 56 365 z "},"ℓ":{"ha":751,"x_min":0,"x_max":0,"o":"m 376 1007 b 50 642 172 1007 50 892 l 50 321 b 401 -17 50 88 158 -17 b 665 18 513 -17 599 4 l 640 249 b 432 206 607 238 507 206 b 336 319 361 206 336 235 b 515 347 404 321 464 329 b 690 660 625 388 690 479 b 376 1007 690 892 581 1007 z m 336 529 l 336 642 b 376 799 336 757 346 799 b 418 696 407 799 418 763 b 385 556 418 624 406 581 b 336 529 371 539 354 532 z "},"†":{"ha":736,"x_min":0,"x_max":0,"o":"m 56 461 l 224 461 l 224 -190 l 510 -190 l 510 461 l 681 461 l 681 697 l 510 697 l 510 1032 l 224 1032 l 224 697 l 56 697 z "},"‡":{"ha":736,"x_min":0,"x_max":0,"o":"m 224 -190 l 510 -190 l 510 135 l 681 135 l 681 371 l 510 371 l 510 461 l 681 461 l 681 697 l 510 697 l 510 1032 l 224 1032 l 224 697 l 56 697 l 56 461 l 224 461 l 224 371 l 56 371 l 56 135 l 224 135 z "},"€":{"ha":885,"x_min":0,"x_max":0,"o":"m 582 -17 b 829 10 663 -17 758 -6 l 803 240 b 614 206 758 225 693 206 b 449 285 532 206 479 226 l 725 285 l 743 451 l 417 451 b 417 479 417 460 417 469 l 417 507 l 750 507 l 768 674 l 449 674 b 614 753 479 732 532 753 b 774 726 676 753 731 739 l 799 954 b 582 975 733 967 651 975 b 144 674 344 975 197 876 l 56 674 l 56 507 l 122 507 b 122 479 122 497 122 489 l 122 451 l 56 451 l 56 285 l 144 285 b 582 -17 197 83 344 -17 z "}}}
